<svg width="28" height="32" viewBox="0 0 28 32" fill="none" xmlns="http://www.w3.org/2000/svg">
<path fill-rule="evenodd" clip-rule="evenodd" d="M7.49788 4.33498C2.06905 8.01699 0.65298 15.4028 4.33499 20.8316C8.01701 26.2604 15.4028 27.6765 20.8316 23.9945C26.2605 20.3125 27.6765 12.9267 23.9945 7.49787C20.3125 2.06904 12.9267 0.652968 7.49788 4.33498ZM2.74515 21.9099C-1.53238 15.603 0.11273 7.02267 6.4196 2.74514C12.7265 -1.53239 21.3068 0.112721 25.5844 6.41959C29.6807 12.4592 28.3456 20.5838 22.6864 25.018L26.2991 30.3446L24.7092 31.4229L21.0965 26.0963C14.8837 29.7141 6.84145 27.9496 2.74515 21.9099Z" fill="#3E3E3E"/>
</svg>
