<svg width="128" height="31" viewBox="0 0 128 31" fill="none" xmlns="http://www.w3.org/2000/svg">
<g clip-path="url(#clip0)">
<path d="M43.5451 22.2028V20.059L41.7116 20.9617H34.1236L40.6961 17.1536L42.7271 17.0125L41.6552 15.1508L40.4986 16.8433L33.9543 20.6232L37.7342 14.0789L39.4267 12.9223L37.565 11.8504L37.4239 13.8814L33.644 20.4257V12.8095L34.5185 10.9478H32.3747L33.2773 12.8095V20.4539L29.441 13.825L29.2718 11.794L27.4382 12.8659L29.1307 14.0224L32.9388 20.6232L26.3099 16.8151L25.1534 15.1226L24.1097 16.9561L26.1407 17.1253L32.7696 20.9617H25.1252L23.2634 20.059V22.2028L25.1252 21.3284H32.7414L26.1407 25.1365L24.1097 25.3057L25.1534 27.1392L26.3099 25.4468L32.9388 21.6387L29.1025 28.2676L27.4382 29.4241L29.2718 30.4678L29.441 28.4368L33.2773 21.8079V29.3959L32.3747 31.2294H34.5185L33.644 29.3959V21.8361L37.4239 28.3804L37.565 30.4114L39.4267 29.3677L37.7342 28.2112L33.9543 21.6387L40.4986 25.4185L41.6552 27.111L42.7271 25.2775L40.6961 25.1083L34.1236 21.3284H41.7116L43.5451 22.2028Z" fill="#3E3E3E"/>
<path d="M18.1856 26.377L19.9345 26.9976C19.6242 27.4489 19.2575 27.8721 18.8344 28.267C16.8598 30.2415 14.4621 31.257 11.6413 31.257C8.84866 31.257 6.45097 30.2698 4.4764 28.267C2.50182 26.2924 1.48633 23.8947 1.48633 21.0739C1.48633 18.2813 2.47361 15.8836 4.4764 13.909C6.47918 11.9344 8.84866 10.9189 11.6413 10.9189C14.4621 10.9189 16.8598 11.9062 18.8344 13.909C19.2293 14.3039 19.596 14.727 19.9345 15.1784L18.1856 15.8272C17.9881 15.6015 17.7907 15.3758 17.5932 15.1502C15.9571 13.5141 13.9826 12.6961 11.6413 12.6961C9.3282 12.6961 7.35363 13.5141 5.71756 15.1502C4.08148 16.7862 3.26344 18.7608 3.26344 21.0739C3.26344 23.387 4.08148 25.3615 5.71756 27.0258C7.35363 28.6619 9.3282 29.4799 11.6413 29.4799C13.9543 29.4799 15.9289 28.6619 17.5932 27.0258C17.7907 26.8284 17.9881 26.6027 18.1856 26.377Z" fill="#3E3E3E"/>
<path d="M49.6938 1.1582V30.7486H48.0295V1.1582H49.6938Z" fill="#3E3E3E"/>
<path d="M57.6481 14.2462V30.748H55.9838V14.2462H54.1221V12.582H55.9838V7.67374C56.0684 6.29154 56.5762 5.135 57.5635 4.14771C58.579 3.21684 59.7355 2.7373 61.0613 2.7373C61.7383 2.7373 62.4717 2.87835 63.2333 3.13222L62.7256 4.59905C62.2178 4.37338 61.7101 4.26055 61.2305 4.26055C60.3561 4.26055 59.538 4.59905 58.7482 5.30425C58.0712 5.98125 57.7045 6.79928 57.6481 7.75836V12.582H61.3434V14.2462H57.6481Z" fill="#3E3E3E"/>
<path d="M72.4012 31.0029C70.1445 31.0029 68.3392 30.326 66.9852 29.0002C65.6312 27.6462 64.9542 25.9537 64.926 23.9227V12.583H66.5903V23.7534C66.5903 25.3049 67.1545 26.6025 68.2828 27.7026C69.3829 28.8027 70.7651 29.3387 72.4012 29.3387C73.9244 29.3387 75.2502 28.8027 76.3785 27.7026C77.5069 26.6025 78.0428 25.3049 78.0428 23.7534V12.583H79.7071V23.8945C79.6789 25.9537 78.9737 27.6462 77.6479 28.972C76.3221 30.2977 74.545 31.0029 72.4012 31.0029Z" fill="#3E3E3E"/>
<path d="M85.2366 12.5827H86.9009V13.0058C87.9446 12.0185 89.1857 11.5107 90.6243 11.5107C92.1194 11.5107 93.3887 12.0467 94.4324 13.0904C94.7145 13.3725 94.9684 13.6828 95.1659 14.0213C95.3633 13.711 95.6172 13.4007 95.9275 13.0904C96.9712 12.0467 98.2405 11.5107 99.7356 11.5107C101.231 11.5107 102.5 12.0467 103.544 13.0904C104.531 14.1059 105.067 15.3188 105.123 16.7293V30.7487H103.459V16.7293H103.487C103.431 15.7702 103.064 14.9521 102.387 14.2751C101.654 13.5417 100.779 13.175 99.7356 13.175C98.6919 13.175 97.8456 13.5417 97.1122 14.2751C96.3788 15.0086 96.0121 15.9112 96.0121 16.9831V30.7487H94.3478V16.7293H94.376C94.3196 15.7702 93.9529 14.9521 93.2759 14.2751C92.5425 13.5417 91.668 13.175 90.6243 13.175C89.5806 13.175 88.7344 13.5417 88.001 14.2751C87.3522 14.8957 86.9855 15.6856 86.9009 16.5882V30.7487H85.2366V12.5827Z" fill="#3E3E3E"/>
<path d="M114.121 27.3361C115.701 28.7747 117.563 29.4799 119.707 29.4799C122.02 29.4799 123.994 28.6619 125.659 27.0258C125.856 26.8284 126.054 26.6027 126.251 26.377L128 26.9976C127.69 27.4489 127.323 27.8721 126.9 28.267C124.925 30.2415 122.528 31.257 119.707 31.257C116.914 31.257 114.516 30.2698 112.542 28.267C110.567 26.2924 109.552 23.8947 109.552 21.0739C109.552 18.2813 110.539 15.8836 112.542 13.909C114.545 11.9344 116.914 10.9189 119.707 10.9189C122.104 10.9189 124.22 11.6524 126.025 13.091C126.307 13.3448 126.618 13.5987 126.9 13.909C127.013 14.0218 127.125 14.1347 127.21 14.2475L125.941 15.5169L114.121 27.3361ZM124.756 14.3886C123.317 13.2884 121.625 12.7243 119.735 12.7243C117.422 12.7243 115.447 13.5423 113.811 15.1784C112.175 16.8145 111.357 18.789 111.357 21.1021C111.357 23.0203 111.921 24.6845 113.021 26.1232L124.756 14.3886Z" fill="#3E3E3E"/>
</g>
<defs>
<clipPath id="clip0">
<rect width="128" height="31" fill="white"/>
</clipPath>
</defs>
</svg>
