<svg width="153" height="38" viewBox="0 0 153 38" fill="none" xmlns="http://www.w3.org/2000/svg">
<path d="M51.3936 26.1298V23.5859L49.2179 24.657H40.2139L48.0129 20.1383L50.4229 19.9709L49.151 17.7618L47.7786 19.7701L40.0131 24.2553L44.4983 16.4898L46.5067 15.1175L44.2975 13.8455L44.1301 16.2555L39.6449 24.021V14.9836L40.6825 12.7744H38.1386L39.2097 14.9836V24.0545L34.6575 16.1886L34.4567 13.7786L32.281 15.0505L34.2893 16.4229L38.8081 24.2553L30.9421 19.7366L29.5698 17.7283L28.3313 19.904L30.7413 20.1048L38.6073 24.657H29.5363L27.3271 23.5859V26.1298L29.5363 25.0921H38.5738L30.7413 29.6109L28.3313 29.8117L29.5698 31.9874L30.9421 29.9791L38.8081 25.4603L34.2559 33.3263L32.281 34.6986L34.4567 35.9371L34.6575 33.5271L39.2097 25.6612V34.6652L38.1386 36.8409H40.6825L39.6449 34.6652V25.6946L44.1301 33.4602L44.2975 35.8702L46.5067 34.6317L44.4983 33.2593L40.0131 25.4603L47.7786 29.9456L49.151 31.9539L50.4229 29.7782L48.0129 29.5774L40.2139 25.0921H49.2179L51.3936 26.1298Z" fill="#3E3E3E"/>
<path d="M21.3018 31.0829L23.3771 31.8193C23.0089 32.3549 22.5738 32.857 22.0717 33.3256C19.7286 35.6686 16.8835 36.8736 13.5363 36.8736C10.2225 36.8736 7.37742 35.7021 5.03437 33.3256C2.69132 30.9825 1.48633 28.1374 1.48633 24.7902C1.48633 21.4765 2.65785 18.6313 5.03437 16.2883C7.41089 13.9452 10.2225 12.7402 13.5363 12.7402C16.8835 12.7402 19.7286 13.9118 22.0717 16.2883C22.5403 16.7569 22.9754 17.259 23.3771 17.7945L21.3018 18.5644C21.0675 18.2966 20.8332 18.0288 20.5989 17.7611C18.6575 15.8197 16.3145 14.849 13.5363 14.849C10.7916 14.849 8.44853 15.8197 6.50714 17.7611C4.56576 19.7024 3.59507 22.0455 3.59507 24.7902C3.59507 27.5349 4.56576 29.878 6.50714 31.8528C8.44853 33.7942 10.7916 34.7649 13.5363 34.7649C16.281 34.7649 18.624 33.7942 20.5989 31.8528C20.8332 31.6185 21.0675 31.3507 21.3018 31.0829Z" fill="#3E3E3E"/>
<path d="M58.6897 1.1582V36.2704H56.7148V1.1582H58.6897Z" fill="#3E3E3E"/>
<path d="M68.1283 16.6888V36.27H66.1535V16.6888H63.9443V14.714H66.1535V8.88985C66.2539 7.24971 66.8564 5.87736 68.0279 4.70583C69.2329 3.60125 70.6053 3.03223 72.1785 3.03223C72.9818 3.03223 73.8521 3.19959 74.7558 3.50084L74.1533 5.24139C73.5508 4.97361 72.9483 4.83972 72.3793 4.83972C71.3417 4.83972 70.371 5.24139 69.4338 6.07819C68.6304 6.88152 68.1953 7.85221 68.1283 8.99026V14.714H72.5132V16.6888H68.1283Z" fill="#3E3E3E"/>
<path d="M85.6348 36.5721C82.957 36.5721 80.8148 35.7688 79.2081 34.1956C77.6015 32.5889 76.7981 30.5806 76.7646 28.1706V14.7148H78.7395V27.9698C78.7395 29.8108 79.4089 31.3505 80.7478 32.6559C82.0532 33.9613 83.6934 34.5973 85.6348 34.5973C87.4422 34.5973 89.0154 33.9613 90.3543 32.6559C91.6932 31.3505 92.3292 29.8108 92.3292 27.9698V14.7148H94.304V28.1372C94.2706 30.5806 93.4338 32.589 91.8606 34.1621C90.2874 35.7353 88.1786 36.5721 85.6348 36.5721Z" fill="#3E3E3E"/>
<path d="M100.865 14.7143H102.84V15.2164C104.079 14.0449 105.551 13.4424 107.258 13.4424C109.032 13.4424 110.539 14.0784 111.777 15.3168C112.112 15.6515 112.413 16.0197 112.647 16.4214C112.882 16.0532 113.183 15.685 113.551 15.3168C114.79 14.0784 116.296 13.4424 118.07 13.4424C119.844 13.4424 121.35 14.0784 122.589 15.3168C123.76 16.5218 124.396 17.9611 124.463 19.6347V36.2704H122.488V19.6347H122.522C122.455 18.4967 122.02 17.526 121.216 16.7227C120.346 15.8524 119.308 15.4172 118.07 15.4172C116.831 15.4172 115.827 15.8524 114.957 16.7227C114.087 17.5929 113.652 18.664 113.652 19.936V36.2704H111.677V19.6347H111.71C111.643 18.4967 111.208 17.526 110.405 16.7227C109.535 15.8524 108.497 15.4172 107.258 15.4172C106.02 15.4172 105.016 15.8524 104.146 16.7227C103.376 17.459 102.941 18.3963 102.84 19.4674V36.2704H100.865V14.7143Z" fill="#3E3E3E"/>
<path d="M135.14 32.221C137.015 33.9281 139.224 34.7649 141.768 34.7649C144.512 34.7649 146.855 33.7942 148.83 31.8528C149.065 31.6185 149.299 31.3507 149.533 31.0829L151.609 31.8193C151.24 32.3549 150.805 32.857 150.303 33.3256C147.96 35.6686 145.115 36.8736 141.768 36.8736C138.454 36.8736 135.609 35.7021 133.266 33.3256C130.923 30.9825 129.718 28.1374 129.718 24.7902C129.718 21.4765 130.889 18.6313 133.266 16.2883C135.642 13.9452 138.454 12.7402 141.768 12.7402C144.613 12.7402 147.123 13.6105 149.265 15.3176C149.6 15.6188 149.968 15.9201 150.303 16.2883C150.437 16.4222 150.571 16.5561 150.671 16.6899L149.165 18.1962L135.14 32.221ZM147.759 16.8573C146.052 15.5519 144.044 14.8824 141.801 14.8824C139.056 14.8824 136.713 15.8531 134.772 17.7945C132.831 19.7359 131.86 22.079 131.86 24.8237C131.86 27.0998 132.529 29.0746 133.835 30.7817L147.759 16.8573Z" fill="#3E3E3E"/>
</svg>
