<svg width="213" height="277" viewBox="0 0 213 277" fill="none" xmlns="http://www.w3.org/2000/svg">
<rect width="213" height="277" fill="#FAAA6B"/>
<path d="M62.7701 29.7651C66.358 29.7651 69.1188 30.8984 71.0524 33.165C72.986 35.4316 73.9528 38.5684 73.9528 42.5752C73.9528 44.2725 73.652 45.8677 73.0504 47.3608C72.4488 48.854 71.6378 50.1216 70.6173 51.1636C69.5968 52.2056 68.3937 53.0273 67.0079 53.6289C65.6329 54.2197 64.1881 54.5151 62.6735 54.5151C61.0836 54.5151 59.6066 54.2358 58.2423 53.6772C56.878 53.1079 55.691 52.3022 54.6813 51.2603C53.6822 50.2183 52.8981 48.9077 52.3287 47.3286C51.7594 45.7388 51.4747 43.9771 51.4747 42.0435C51.4747 40.3354 51.7755 38.7188 52.3771 37.1934C52.9894 35.668 53.8004 34.3682 54.8102 33.2939C55.8307 32.209 57.0338 31.3496 58.4196 30.7158C59.8053 30.082 61.2555 29.7651 62.7701 29.7651ZM54.1818 41.8823C54.1818 43.4614 54.3483 44.9116 54.6813 46.2329C55.025 47.5435 55.4816 48.6499 56.0509 49.5522C56.6202 50.4546 57.2863 51.2173 58.0489 51.8403C58.8224 52.4634 59.6334 52.9199 60.4821 53.21C61.3307 53.4893 62.2115 53.6289 63.1246 53.6289C64.4459 53.6289 65.6276 53.3389 66.6696 52.7588C67.7223 52.1787 68.5763 51.3892 69.2316 50.3901C69.8868 49.3804 70.3863 48.2256 70.7301 46.9258C71.0738 45.626 71.2457 44.2295 71.2457 42.7363C71.2457 40.792 70.9987 39.041 70.5045 37.4834C70.0211 35.9258 69.3658 34.6689 68.5387 33.7129C67.7115 32.7461 66.7716 32.0103 65.7189 31.5054C64.6769 31.0005 63.5704 30.748 62.3995 30.748C61.0782 30.748 59.8859 31.0542 58.8224 31.6665C57.7696 32.2681 56.9103 33.0845 56.2443 34.1157C55.5782 35.147 55.068 36.3286 54.7135 37.6606C54.359 38.9819 54.1818 40.3892 54.1818 41.8823ZM79.9952 41.9146C79.9952 41.1948 79.9576 40.5933 79.8824 40.1099C79.818 39.6265 79.6945 39.2397 79.5118 38.9497C79.34 38.6597 79.0983 38.4556 78.7867 38.3374C78.4752 38.2192 77.9327 38.1655 77.1593 38.1763L77.0948 37.8862C78.8458 37.3599 80.4733 37.0967 81.9772 37.0967C82.2028 37.666 82.3155 38.2783 82.3155 38.9336V40.9155L82.38 40.98C82.8312 40.3569 83.2609 39.8037 83.6691 39.3203C84.088 38.8369 84.5123 38.4341 84.942 38.1118C85.3717 37.7896 85.8229 37.5479 86.2955 37.3867C86.7682 37.2148 87.2946 37.1289 87.8746 37.1289C88.2399 37.1289 88.6427 37.1611 89.0831 37.2256L88.1486 41.1572L87.5524 40.98C87.5524 40.8188 87.5416 40.5986 87.5201 40.3193C87.4987 40.04 87.4664 39.7661 87.4235 39.4976C87.3912 39.2183 87.3429 38.9819 87.2784 38.7886C87.2247 38.5845 87.1603 38.4824 87.0851 38.4824C86.7736 38.4824 86.4567 38.5522 86.1344 38.6919C85.8229 38.8208 85.4791 39.0356 85.1031 39.3364C84.7272 39.6372 84.3136 40.0293 83.8624 40.5127C83.4113 40.9961 82.8956 41.5815 82.3155 42.269V51.647C82.3155 51.9907 82.3424 52.27 82.3961 52.4849C82.4498 52.689 82.5626 52.8608 82.7345 53.0005C82.9064 53.1401 83.1481 53.2637 83.4596 53.3711C83.7711 53.4785 84.1793 53.5967 84.6842 53.7256L84.5553 54.1123C83.9322 54.0264 83.4005 53.9619 82.9601 53.9189C82.5304 53.876 82.1813 53.8545 81.9127 53.8545C81.3004 53.8545 80.5861 53.9404 79.7696 54.1123L79.673 53.9512C79.8878 53.6396 79.9952 53.0703 79.9952 52.2432V41.9146ZM103.601 52.0337C103.601 52.2163 103.639 52.3882 103.714 52.5493C103.8 52.6997 103.897 52.8286 104.004 52.936C104.122 53.0327 104.289 53.1294 104.504 53.2261C104.718 53.3228 104.906 53.3979 105.068 53.4517C105.229 53.5054 105.454 53.5752 105.744 53.6611L105.615 54.0479C104.928 53.9189 104.246 53.8545 103.569 53.8545C102.72 53.8545 101.882 53.9404 101.055 54.1123L100.959 53.9512C101.184 53.6396 101.297 53.0703 101.297 52.2432V51.1797C100.76 52.1787 99.922 52.9844 98.7833 53.5967C97.6554 54.209 96.5113 54.5151 95.3512 54.5151C94.1158 54.5151 93.1168 54.1982 92.3541 53.5645C91.6022 52.9199 91.2262 51.9692 91.2262 50.7124C91.2262 49.896 91.3927 49.1709 91.7257 48.5371C92.0695 47.8926 92.5206 47.3501 93.0792 46.9097C93.6486 46.4585 94.3737 46.061 95.2545 45.7173C96.1461 45.3735 97.0592 45.0942 97.9938 44.8794C98.9391 44.6646 100.04 44.4658 101.297 44.2832V42.8008C101.297 39.8467 100.131 38.3696 97.8004 38.3696C97.0485 38.3696 96.1246 38.5576 95.0289 38.9336C93.944 39.2988 93.0309 39.7822 92.2897 40.3838L91.629 39.6265C92.5636 38.8853 93.67 38.2729 94.9484 37.7896C96.2374 37.3062 97.4405 37.0645 98.5577 37.0645C99.0519 37.0645 99.5192 37.1128 99.9596 37.2095C100.411 37.2954 100.862 37.4619 101.313 37.709C101.775 37.9453 102.167 38.2515 102.489 38.6274C102.822 38.9927 103.091 39.4868 103.295 40.1099C103.499 40.7222 103.601 41.4204 103.601 42.2046V52.0337ZM96.1085 53.2905C97.0431 53.2905 98.0206 52.9844 99.0411 52.3721C100.062 51.749 100.814 50.9756 101.297 50.0518V45.1372C98.547 45.5347 96.5812 46.147 95.3995 46.9741C94.2286 47.7905 93.6432 48.9829 93.6432 50.5513C93.6432 51.5073 93.8473 52.2056 94.2555 52.646C94.6637 53.0757 95.2814 53.2905 96.1085 53.2905ZM110.965 41.9146C110.965 41.1948 110.927 40.5933 110.852 40.1099C110.788 39.6265 110.664 39.2397 110.482 38.9497C110.31 38.6597 110.068 38.4556 109.756 38.3374C109.445 38.2192 109.112 38.1602 108.757 38.1602C108.414 38.1602 108.204 38.1655 108.129 38.1763L108.065 37.8862C109.816 37.3599 111.443 37.0967 112.947 37.0967C113.172 37.666 113.285 38.2783 113.285 38.9336V39.4009C113.908 38.9819 114.483 38.6167 115.009 38.3052C115.536 37.9937 116.051 37.7305 116.556 37.5156C117.072 37.3008 117.598 37.1396 118.135 37.0322C118.672 36.9248 119.263 36.8711 119.908 36.8711C120.488 36.8711 121.063 36.9463 121.632 37.0967C122.212 37.2471 122.728 37.5156 123.179 37.9023C123.641 38.2891 124.011 38.8154 124.291 39.4814C124.581 40.1475 124.726 40.9907 124.726 42.0112V52.0337C124.726 52.2915 124.785 52.5063 124.903 52.6782C125.032 52.8501 125.193 52.9951 125.386 53.1133C125.59 53.2314 125.821 53.3335 126.079 53.4194C126.337 53.4946 126.606 53.5752 126.885 53.6611L126.74 54.0479C126.138 53.9189 125.338 53.8545 124.339 53.8545C123.727 53.8545 123.012 53.9404 122.196 54.1123L122.099 53.9512C122.314 53.6396 122.422 53.0703 122.422 52.2432V42.6074C122.422 41.7051 122.336 40.9692 122.164 40.3999C121.992 39.8198 121.755 39.3687 121.455 39.0464C121.165 38.7134 120.821 38.4824 120.423 38.3535C120.037 38.2246 119.623 38.1602 119.183 38.1602C118.646 38.1602 118.141 38.2085 117.668 38.3052C117.206 38.4019 116.739 38.5522 116.266 38.7563C115.804 38.9497 115.332 39.1968 114.848 39.4976C114.365 39.7876 113.844 40.1313 113.285 40.5288V51.647C113.285 51.9907 113.312 52.27 113.366 52.4849C113.42 52.689 113.532 52.8608 113.704 53.0005C113.876 53.1401 114.118 53.2637 114.429 53.3711C114.741 53.4785 115.149 53.5967 115.654 53.7256L115.525 54.1123C114.902 54.0264 114.37 53.9619 113.93 53.9189C113.5 53.876 113.151 53.8545 112.882 53.8545C112.27 53.8545 111.556 53.9404 110.739 54.1123L110.643 53.9512C110.858 53.6396 110.965 53.0703 110.965 52.2432V41.9146ZM144.787 57.9473C144.787 59.0215 144.384 59.9722 143.578 60.7993C142.783 61.6372 141.752 62.2656 140.484 62.6846C139.217 63.1143 137.847 63.3291 136.376 63.3291C135.248 63.3291 134.233 63.1787 133.33 62.8779C132.428 62.5771 131.681 62.0776 131.09 61.3794C130.5 60.6812 130.204 59.8325 130.204 58.8335C130.204 57.7915 130.661 56.8247 131.574 55.9331C132.487 55.0415 133.69 54.2842 135.183 53.6611C133.83 53.3604 132.858 53.0327 132.267 52.6782C131.676 52.313 131.38 51.749 131.38 50.9863C131.38 50.3096 131.59 49.7671 132.009 49.3589C132.428 48.9399 133.142 48.6016 134.152 48.3438C132.97 47.9785 132.047 47.3501 131.38 46.4585C130.725 45.5669 130.398 44.4121 130.398 42.9941C130.398 41.9629 130.698 40.9907 131.3 40.0776C131.912 39.1646 132.713 38.4395 133.701 37.9023C134.7 37.3652 135.742 37.0967 136.827 37.0967C138.073 37.0967 139.174 37.29 140.13 37.6768L145.415 37.0967L145.544 37.6445L144.384 38.8369L141.516 38.5791C142.622 39.5674 143.175 40.9961 143.175 42.8652C143.175 43.8105 142.891 44.729 142.321 45.6206C141.752 46.5122 140.968 47.2427 139.969 47.812C138.97 48.3813 137.901 48.666 136.762 48.666C135.215 48.9346 134.222 49.1709 133.781 49.375C133.352 49.5791 133.137 49.9067 133.137 50.3579C133.137 50.6265 133.432 50.8896 134.023 51.1475C134.614 51.3945 135.779 51.7383 137.52 52.1787C138.315 52.3721 138.986 52.5493 139.534 52.7104C140.082 52.8608 140.63 53.0381 141.177 53.2422C141.725 53.4355 142.171 53.6343 142.515 53.8384C142.869 54.0425 143.202 54.2788 143.514 54.5474C143.836 54.8267 144.078 55.1274 144.239 55.4497C144.411 55.7827 144.545 56.1533 144.642 56.5615C144.738 56.9697 144.787 57.4316 144.787 57.9473ZM137.359 54.0801L136.698 53.9189C135.344 54.4238 134.276 55.106 133.491 55.9653C132.707 56.8247 132.315 57.6948 132.315 58.5757C132.315 59.1987 132.482 59.7466 132.815 60.2192C133.158 60.7026 133.615 61.0786 134.184 61.3472C134.754 61.6157 135.36 61.8145 136.005 61.9434C136.65 62.0723 137.321 62.1367 138.019 62.1367C141.167 62.1367 142.74 60.9067 142.74 58.4468C142.74 57.2544 142.289 56.3252 141.387 55.6592C140.495 54.9932 139.152 54.4668 137.359 54.0801ZM136.166 38.2407C134.813 38.2407 133.873 38.5898 133.346 39.2881C132.831 39.9756 132.573 41.125 132.573 42.7363C132.573 43.4883 132.691 44.1597 132.927 44.7505C133.174 45.3306 133.481 45.7925 133.846 46.1362C134.211 46.4692 134.635 46.7485 135.119 46.9741C135.613 47.189 136.069 47.334 136.488 47.4092C136.918 47.4844 137.342 47.522 137.761 47.522C138.857 47.522 139.668 47.1299 140.194 46.3457C140.721 45.5615 140.984 44.4873 140.984 43.123C140.984 42.3389 140.86 41.646 140.613 41.0444C140.377 40.4321 140.082 39.9595 139.727 39.6265C139.383 39.2827 138.981 39.0034 138.519 38.7886C138.057 38.563 137.638 38.418 137.262 38.3535C136.886 38.2783 136.521 38.2407 136.166 38.2407ZM148.009 46.0073C148.009 44.8687 148.197 43.7676 148.573 42.7041C148.949 41.6299 149.486 40.6792 150.185 39.8521C150.883 39.0142 151.726 38.3481 152.714 37.854C153.714 37.3491 154.831 37.0967 156.066 37.0967C156.839 37.0967 157.57 37.231 158.257 37.4995C158.945 37.7573 159.541 38.1655 160.046 38.7241C160.562 39.272 160.964 39.981 161.255 40.8511C161.555 41.7104 161.706 42.7363 161.706 43.9287L161.077 44.5088H150.555C150.534 44.6914 150.523 44.8687 150.523 45.0405C150.523 45.2124 150.523 45.3843 150.523 45.5562C150.523 46.7271 150.657 47.7905 150.926 48.7466C151.205 49.7026 151.576 50.5244 152.038 51.2119C152.51 51.8887 153.064 52.415 153.697 52.791C154.331 53.167 155.003 53.355 155.712 53.355C156.163 53.355 156.619 53.3228 157.081 53.2583C157.554 53.1831 158.01 53.0703 158.451 52.9199C158.902 52.7695 159.337 52.5762 159.756 52.3398C160.175 52.1035 160.562 51.8188 160.916 51.4858L161.577 52.1787C160.728 53.0166 159.804 53.6128 158.805 53.9673C157.806 54.3325 156.651 54.5151 155.341 54.5151C154.31 54.5151 153.343 54.3164 152.441 53.9189C151.549 53.5215 150.776 52.9521 150.12 52.2109C149.465 51.4697 148.949 50.5781 148.573 49.5361C148.197 48.4834 148.009 47.3071 148.009 46.0073ZM155.712 38.2085C154.047 38.2085 152.827 38.6436 152.054 39.5137C151.28 40.373 150.813 41.6138 150.652 43.2358H159.627C159.541 41.4741 159.144 40.1958 158.435 39.4009C157.736 38.606 156.829 38.2085 155.712 38.2085Z" fill="white"/>
<path d="M87.5271 240.459H84.089V238.712H87.5271V240.459ZM89.9964 234.742H87.5271V236.831H84.089V234.742H81.6196V242.416H89.9964V234.742ZM85.8365 248.304H94.8782V243.555H83.3292V245.455H92.4088V246.519H83.3482V251.343H95.391V249.406H85.8365V248.304ZM94.8782 237.363V233.982H92.3708V242.871H94.8782V239.395H97.1766V237.363H94.8782ZM108.667 240.345C106.464 240.706 104.564 240.782 101.696 240.801V239.566H107.167V234.78H99.1886V236.679H104.697V237.819H99.2076V242.719H100.689C104.222 242.719 106.407 242.663 108.857 242.245L108.667 240.345ZM103.424 248.38H112.352V243.726H100.917V245.607H109.883V246.613H100.955V251.343H112.979V249.463H103.424V248.38ZM112.352 237.42V233.963H109.845V243.061H112.352V239.471H114.67V237.42H112.352ZM126.369 235.824H122.456V233.963H119.93V235.824H116.055V237.781H126.35L126.369 235.824ZM119.303 241.77C119.303 240.82 120.082 240.307 121.202 240.307C122.304 240.307 123.102 240.82 123.102 241.77C123.102 242.738 122.304 243.251 121.202 243.251C120.082 243.251 119.303 242.738 119.303 241.77ZM125.495 241.77C125.495 239.794 123.71 238.408 121.202 238.408C118.695 238.408 116.91 239.794 116.91 241.77C116.91 243.783 118.695 245.151 121.202 245.151C123.71 245.151 125.495 243.783 125.495 241.77ZM121.05 246.101H118.543V251.172H130.453V249.178H121.05V246.101ZM129.826 239.319V233.982H127.319V247.069H129.826V241.39H132.144V239.319H129.826Z" fill="white"/>
<path d="M7.24072 206.843L205.156 206.843" stroke="white" stroke-width="1.58292" stroke-linecap="round" stroke-linejoin="round"/>
<path d="M131.4 143.532C127.202 139.312 120.635 138.924 116.002 142.368C123.943 133.097 123.547 119.094 114.803 110.303C105.781 101.231 91.2462 101.093 82.048 109.88C81.8986 110.017 81.7493 110.158 81.6059 110.303C76.9829 114.951 76.9829 122.488 81.6059 127.137C85.8038 131.357 92.3702 131.745 97.0037 128.3C89.0629 137.572 89.4581 151.574 98.2028 160.366C107.225 169.437 121.759 169.576 130.958 160.788C131.107 160.652 131.254 160.511 131.399 160.366C136.025 155.719 136.025 148.182 131.4 143.532ZM98.3507 127.137L114.659 143.532L98.3507 127.137Z" fill="white"/>
</svg>
