<svg width="213" height="277" viewBox="0 0 213 277" fill="none" xmlns="http://www.w3.org/2000/svg">
<rect width="213" height="277" fill="#96BCD2"/>
<path d="M83.2454 53.7578L79.4588 53.8867C78.8787 53.9082 78.3631 53.9458 77.9119 53.9995C77.4715 54.0532 77.0955 54.1123 76.784 54.1768L76.6873 54.0156C76.9021 53.7041 77.0095 53.1348 77.0095 52.3076V35.3081C77.0095 34.5776 76.9773 33.9707 76.9129 33.4873C76.8484 33.0039 76.7249 32.6226 76.5423 32.3433C76.3704 32.0532 76.1287 31.8545 75.8172 31.7471C75.5164 31.6289 75.1887 31.5698 74.8342 31.5698C74.4798 31.5698 74.2595 31.5752 74.1736 31.5859L74.1091 31.1187C75.409 30.9468 76.6873 30.7964 77.9441 30.6675C79.2117 30.5386 80.0711 30.4688 80.5222 30.458C80.9734 30.4365 81.4085 30.4258 81.8274 30.4258C82.9983 30.4258 84.0349 30.501 84.9373 30.6514C85.8504 30.791 86.6131 31.0273 87.2254 31.3604C87.8484 31.6934 88.3211 32.1284 88.6433 32.6655C88.9656 33.1919 89.1267 33.8418 89.1267 34.6152C89.1267 35.2812 88.9978 35.915 88.74 36.5166C88.4822 37.1182 88.1223 37.6768 87.6604 38.1924C87.2092 38.708 86.6775 39.1753 86.0652 39.5942C85.4529 40.0132 84.7923 40.3677 84.0833 40.6577V40.7866C84.9212 40.894 85.7376 41.082 86.5325 41.3506C87.3382 41.6191 88.0525 41.9951 88.6756 42.4785C89.2986 42.9512 89.7981 43.542 90.1741 44.251C90.5501 44.9492 90.7381 45.7871 90.7381 46.7646C90.7381 47.9141 90.5178 48.9292 90.0774 49.8101C89.6477 50.6802 89.0784 51.4106 88.3694 52.0015C87.6604 52.5815 86.8548 53.022 85.9524 53.3228C85.0608 53.6128 84.1585 53.7578 83.2454 53.7578ZM79.491 32.6978V52.8394L82.2625 52.9683C84.0457 53.0542 85.4798 52.6245 86.5647 51.6792C87.6604 50.7231 88.2083 49.2676 88.2083 47.3125C88.2083 46.292 88.0095 45.3896 87.6121 44.6055C87.2146 43.8105 86.6614 43.1768 85.9524 42.7041C85.2542 42.2314 84.4539 41.877 83.5515 41.6406C82.6492 41.4043 81.6609 41.2969 80.5867 41.3184V40.6255C81.6072 40.604 82.5686 40.3838 83.471 39.9648C84.3733 39.5459 85.1253 38.9121 85.7268 38.0635C86.3391 37.2041 86.6453 36.2104 86.6453 35.0825C86.6453 34.105 86.4412 33.353 86.033 32.8267C85.6355 32.3003 85.1038 31.9297 84.4378 31.7148C83.7717 31.5 83.0037 31.4033 82.1336 31.4248C81.2634 31.4463 80.3611 31.5215 79.4265 31.6504C79.4158 31.6504 79.405 31.6504 79.3943 31.6504C79.4588 32.0049 79.491 32.354 79.491 32.6978ZM98.2791 50.9541C98.2791 51.8027 98.4778 52.4312 98.8753 52.8394C99.2727 53.2476 99.9763 53.543 100.986 53.7256L100.857 54.1123C99.6218 53.9404 98.6658 53.8545 97.989 53.8545C97.323 53.8545 96.5711 53.9404 95.7332 54.1123L95.6365 53.9512C95.8513 53.6396 95.9588 53.0703 95.9588 52.2432V32.9395C95.9588 31.4141 95.7761 30.3936 95.4109 29.8779C95.0564 29.3516 94.2937 29.126 93.1228 29.2012L93.0584 28.9111C94.8308 28.3848 96.4583 28.1216 97.9407 28.1216C98.1663 28.6802 98.2791 29.2925 98.2791 29.9585V50.9541ZM118.856 49.3589C118.856 50.0786 118.888 50.6802 118.952 51.1636C119.028 51.6362 119.151 52.0176 119.323 52.3076C119.506 52.5977 119.753 52.8071 120.064 52.936C120.376 53.0542 120.703 53.1133 121.047 53.1133C121.391 53.1133 121.606 53.1079 121.692 53.0972L121.772 53.3872C120 53.9136 118.367 54.1768 116.874 54.1768C116.659 53.5967 116.552 52.9844 116.552 52.3398V51.5825C115.982 52.0874 115.45 52.5225 114.956 52.8877C114.473 53.2529 113.995 53.5591 113.522 53.8062C113.05 54.0425 112.566 54.2197 112.072 54.3379C111.578 54.4561 111.046 54.5151 110.477 54.5151C109.832 54.5151 109.188 54.4399 108.543 54.2896C107.909 54.1392 107.335 53.8706 106.819 53.4839C106.303 53.0972 105.885 52.5708 105.562 51.9048C105.251 51.2388 105.095 50.3901 105.095 49.3589V39.4009C105.095 38.9712 104.912 38.6436 104.547 38.418C104.193 38.1924 103.661 37.9829 102.952 37.7896L103.081 37.3867C103.704 37.5156 104.51 37.5801 105.498 37.5801C106.11 37.5801 106.824 37.4941 107.641 37.3223L107.738 37.4834C107.523 37.8164 107.415 38.3911 107.415 39.2075V48.7788C107.415 49.6704 107.517 50.4062 107.721 50.9863C107.926 51.5557 108.199 52.0068 108.543 52.3398C108.887 52.6729 109.29 52.9038 109.752 53.0327C110.214 53.1509 110.702 53.21 111.218 53.21C111.701 53.21 112.147 53.1616 112.555 53.0649C112.974 52.9575 113.393 52.7964 113.812 52.5815C114.231 52.356 114.661 52.0713 115.101 51.7275C115.542 51.373 116.025 50.9487 116.552 50.4546V39.8037C116.552 39.4707 116.519 39.2021 116.455 38.998C116.401 38.7832 116.288 38.606 116.116 38.4663C115.955 38.3159 115.719 38.187 115.407 38.0796C115.096 37.9722 114.688 37.854 114.183 37.7251L114.312 37.3223C114.924 37.4082 115.45 37.4727 115.891 37.5156C116.331 37.5586 116.686 37.5801 116.954 37.5801C117.567 37.5801 118.281 37.4941 119.097 37.3223L119.194 37.4834C118.969 37.8057 118.856 38.3804 118.856 39.2075V49.3589ZM124.914 46.0073C124.914 44.8687 125.102 43.7676 125.478 42.7041C125.854 41.6299 126.391 40.6792 127.09 39.8521C127.788 39.0142 128.631 38.3481 129.619 37.854C130.618 37.3491 131.736 37.0967 132.971 37.0967C133.744 37.0967 134.475 37.231 135.162 37.4995C135.85 37.7573 136.446 38.1655 136.951 38.7241C137.467 39.272 137.869 39.981 138.159 40.8511C138.46 41.7104 138.611 42.7363 138.611 43.9287L137.982 44.5088H127.46C127.439 44.6914 127.428 44.8687 127.428 45.0405C127.428 45.2124 127.428 45.3843 127.428 45.5562C127.428 46.7271 127.562 47.7905 127.831 48.7466C128.11 49.7026 128.481 50.5244 128.943 51.2119C129.415 51.8887 129.969 52.415 130.602 52.791C131.236 53.167 131.907 53.355 132.616 53.355C133.068 53.355 133.524 53.3228 133.986 53.2583C134.459 53.1831 134.915 53.0703 135.356 52.9199C135.807 52.7695 136.242 52.5762 136.661 52.3398C137.08 52.1035 137.467 51.8188 137.821 51.4858L138.482 52.1787C137.633 53.0166 136.709 53.6128 135.71 53.9673C134.711 54.3325 133.556 54.5151 132.246 54.5151C131.215 54.5151 130.248 54.3164 129.345 53.9189C128.454 53.5215 127.68 52.9521 127.025 52.2109C126.37 51.4697 125.854 50.5781 125.478 49.5361C125.102 48.4834 124.914 47.3071 124.914 46.0073ZM132.616 38.2085C130.951 38.2085 129.732 38.6436 128.959 39.5137C128.185 40.373 127.718 41.6138 127.557 43.2358H136.532C136.446 41.4741 136.049 40.1958 135.34 39.4009C134.641 38.606 133.734 38.2085 132.616 38.2085Z" fill="white"/>
<path d="M50.7877 235.33H48.2803V237.876C48.2803 241.276 46.8367 244.657 43.7785 245.968L45.2791 248.038C47.3686 247.05 48.7932 245.17 49.572 242.833C50.3508 244.98 51.6995 246.708 53.7129 247.62L55.1376 245.588C52.1743 244.315 50.7877 241.124 50.7877 237.876V235.33ZM55.9924 233.963V251.514H58.4997V233.963H55.9924ZM70.4081 244.144V245.854H73.6943V247.24H76.2016V233.982H73.6943V244.144H70.4081ZM67.046 236.394C68.2047 236.394 69.0215 236.85 69.0215 237.705C69.0215 238.56 68.2047 238.996 67.046 238.996C65.8683 238.996 65.0515 238.56 65.0515 237.705C65.0515 236.85 65.8683 236.394 67.046 236.394ZM67.046 240.82C69.5914 240.82 71.3959 239.566 71.3959 237.705C71.3959 235.843 69.5914 234.571 67.046 234.571C64.4817 234.571 62.6961 235.843 62.6961 237.705C62.6961 239.566 64.4817 240.82 67.046 240.82ZM66.1153 249.178V246.784H68.5276V243.479C69.9333 243.365 71.3389 243.213 72.7066 242.985L72.5356 241.2C68.8505 241.675 64.5956 241.713 61.4045 241.732L61.7274 243.726C63.038 243.726 64.5007 243.707 66.0393 243.631V245.968H63.6079V251.172H76.5816V249.178H66.1153ZM84.0071 245.854C82.8295 245.854 81.9557 245.056 81.9557 243.726C81.9557 242.397 82.8295 241.58 84.0071 241.58C85.1848 241.58 86.0396 242.397 86.0396 243.707C86.0396 245.056 85.1848 245.854 84.0071 245.854ZM84.0071 239.547C81.4618 239.547 79.5623 241.276 79.5623 243.707C79.5623 246.177 81.4618 247.905 84.0071 247.905C86.5335 247.905 88.414 246.177 88.414 243.707C88.414 241.276 86.5335 239.547 84.0071 239.547ZM85.2418 234.286H82.7345V236.565H78.8595V238.56H89.0408V236.565H85.2418V234.286ZM95.1953 240.82H92.6879V233.982H90.1806V251.476H92.6879V242.89H95.1953V240.82ZM110.048 245.531C110.751 241.808 110.751 239.338 110.751 237.154V235.482H98.043V237.477H108.243C108.243 239.509 108.205 241.941 107.541 245.246L110.048 245.531ZM104.539 247.354V241.333H102.032V247.354H96.4475V249.368H112.27V247.354H104.539ZM127.609 238.655V240.668H130.325V244.543H132.832V233.982H130.325V238.655H127.609ZM128.71 242.074C125.918 241.333 124.664 239.566 124.626 237.762H128.083V235.786H124.626V233.925H122.119V235.786H118.7V237.762H122.119C122.081 239.718 120.865 241.694 118.092 242.492L119.27 244.429C121.302 243.84 122.67 242.606 123.449 241.01C124.246 242.397 125.614 243.479 127.571 243.992L128.71 242.074ZM126.925 249.558C124.607 249.558 123.43 249.121 123.43 248.171C123.43 247.221 124.607 246.765 126.925 246.765C129.204 246.765 130.401 247.221 130.401 248.171C130.401 249.121 129.204 249.558 126.925 249.558ZM126.925 244.847C123.202 244.847 120.922 246.063 120.922 248.171C120.922 250.261 123.202 251.476 126.925 251.476C130.629 251.476 132.908 250.261 132.908 248.171C132.908 246.063 130.629 244.847 126.925 244.847ZM136.307 238.408V243.802H137.807C141.303 243.802 143.525 243.726 145.956 243.27L145.747 241.257C143.563 241.656 141.644 241.77 138.795 241.789V240.269H144.266V235.007H136.288V237.021H141.796V238.408H136.307ZM143.696 249.577C141.417 249.577 140.239 249.14 140.239 248.171C140.239 247.202 141.417 246.765 143.696 246.765C145.975 246.765 147.153 247.202 147.153 248.171C147.153 249.14 145.975 249.577 143.696 249.577ZM143.696 244.847C140.049 244.847 137.77 246.063 137.77 248.171C137.77 250.261 140.049 251.495 143.696 251.495C147.343 251.495 149.622 250.261 149.622 248.171C149.622 246.063 147.343 244.847 143.696 244.847ZM151.769 238.37V236.337H149.451V233.982H146.944V244.524H149.451V242.055H151.769V240.022H149.451V238.37H151.769ZM163.468 235.824H159.555V233.963H157.029V235.824H153.154V237.781H163.449L163.468 235.824ZM156.402 241.77C156.402 240.82 157.181 240.307 158.302 240.307C159.403 240.307 160.201 240.82 160.201 241.77C160.201 242.738 159.403 243.251 158.302 243.251C157.181 243.251 156.402 242.738 156.402 241.77ZM162.595 241.77C162.595 239.794 160.809 238.408 158.302 238.408C155.794 238.408 154.009 239.794 154.009 241.77C154.009 243.783 155.794 245.151 158.302 245.151C160.809 245.151 162.595 243.783 162.595 241.77ZM158.15 246.101H155.642V251.172H167.552V249.178H158.15V246.101ZM166.925 239.319V233.982H164.418V247.069H166.925V241.39H169.243V239.319H166.925Z" fill="white"/>
<path d="M7.24023 206.843L205.155 206.843" stroke="white" stroke-width="1.58292" stroke-linecap="round" stroke-linejoin="round"/>
<path d="M75 137.905V82L107.112 145.214L139.225 82V137.905L107.112 157.954L75 137.905Z" fill="white"/>
</svg>
