<svg width="213" height="277" viewBox="0 0 213 277" fill="none" xmlns="http://www.w3.org/2000/svg">
<rect width="213" height="277" fill="#8CA65F"/>
<path d="M79.6843 51.8081V49.1655C79.6843 47.6509 79.5017 46.6357 79.1365 46.1201C78.7713 45.5938 78.0032 45.3682 76.8323 45.4434L76.7678 45.1372C78.5403 44.6108 80.2268 44.3477 81.8274 44.3477C82.0423 44.9385 82.1497 45.5562 82.1497 46.2007V50.8252C82.1497 51.835 82.2517 52.4795 82.4558 52.7588L82.3591 52.936C81.5105 52.936 80.5921 53.0703 79.6038 53.3389C78.6155 53.5967 77.5574 53.8545 76.4295 54.1123C75.3015 54.3809 74.1521 54.5151 72.9812 54.5151C71.3591 54.5151 69.8499 54.2197 68.4534 53.6289C67.0569 53.0273 65.8538 52.1948 64.844 51.1313C63.845 50.0679 63.0554 48.7573 62.4754 47.1997C61.906 45.6421 61.6214 43.9448 61.6214 42.1079C61.6214 40.4214 61.8469 38.8906 62.2981 37.5156C62.76 36.1299 63.3831 34.9644 64.1673 34.019C64.9622 33.0737 65.9129 32.2788 67.0193 31.6343C68.1258 30.979 69.3128 30.5063 70.5803 30.2163C71.8587 29.9155 73.2175 29.7651 74.657 29.7651C77.117 29.7651 79.4265 30.27 81.5857 31.2798C81.2097 32.6226 80.6726 34.0405 79.9744 35.5337L79.5393 35.3726C79.7112 34.0942 79.7488 33.0415 79.6521 32.2144C79.1795 31.9458 78.7122 31.7256 78.2503 31.5537C77.7883 31.3711 77.2996 31.2314 76.784 31.1348C76.2683 31.0273 75.7097 30.9575 75.1082 30.9253C74.5174 30.8823 73.8513 30.8608 73.1101 30.8608C72.1218 30.8608 71.198 30.9897 70.3386 31.2476C69.49 31.4946 68.6951 31.9082 67.9539 32.4883C67.2127 33.0684 66.5789 33.7988 66.0525 34.6797C65.5261 35.5498 65.1126 36.6401 64.8118 37.9507C64.511 39.2505 64.3606 40.7222 64.3606 42.3657C64.3606 43.9448 64.6292 45.4326 65.1663 46.8291C65.7034 48.2256 66.4124 49.4019 67.2932 50.3579C68.1848 51.314 69.2107 52.0713 70.3709 52.6299C71.531 53.1777 72.7288 53.4517 73.9641 53.4517C75.1887 53.4517 76.2146 53.3442 77.0418 53.1294C77.8797 52.9038 78.7605 52.4634 79.6843 51.8081ZM88.0149 41.9146C88.0149 41.1948 87.9773 40.5933 87.9021 40.1099C87.8377 39.6265 87.7141 39.2397 87.5315 38.9497C87.3596 38.6597 87.1179 38.4556 86.8064 38.3374C86.4949 38.2192 85.9524 38.1655 85.179 38.1763L85.1145 37.8862C86.8655 37.3599 88.4929 37.0967 89.9968 37.0967C90.2224 37.666 90.3352 38.2783 90.3352 38.9336V40.9155L90.3997 40.98C90.8508 40.3569 91.2805 39.8037 91.6887 39.3203C92.1077 38.8369 92.532 38.4341 92.9617 38.1118C93.3914 37.7896 93.8425 37.5479 94.3152 37.3867C94.7879 37.2148 95.3142 37.1289 95.8943 37.1289C96.2595 37.1289 96.6624 37.1611 97.1028 37.2256L96.1682 41.1572L95.572 40.98C95.572 40.8188 95.5613 40.5986 95.5398 40.3193C95.5183 40.04 95.4861 39.7661 95.4431 39.4976C95.4109 39.2183 95.3626 38.9819 95.2981 38.7886C95.2444 38.5845 95.18 38.4824 95.1048 38.4824C94.7932 38.4824 94.4763 38.5522 94.1541 38.6919C93.8425 38.8208 93.4988 39.0356 93.1228 39.3364C92.7468 39.6372 92.3333 40.0293 91.8821 40.5127C91.4309 40.9961 90.9153 41.5815 90.3352 42.269V51.647C90.3352 51.9907 90.3621 52.27 90.4158 52.4849C90.4695 52.689 90.5823 52.8608 90.7542 53.0005C90.926 53.1401 91.1677 53.2637 91.4793 53.3711C91.7908 53.4785 92.199 53.5967 92.7039 53.7256L92.575 54.1123C91.9519 54.0264 91.4202 53.9619 90.9798 53.9189C90.5501 53.876 90.2009 53.8545 89.9324 53.8545C89.3201 53.8545 88.6057 53.9404 87.7893 54.1123L87.6926 53.9512C87.9075 53.6396 88.0149 53.0703 88.0149 52.2432V41.9146ZM99.407 46.0073C99.407 44.8687 99.595 43.7676 99.971 42.7041C100.347 41.6299 100.884 40.6792 101.582 39.8521C102.281 39.0142 103.124 38.3481 104.112 37.854C105.111 37.3491 106.228 37.0967 107.464 37.0967C108.237 37.0967 108.968 37.231 109.655 37.4995C110.343 37.7573 110.939 38.1655 111.444 38.7241C111.959 39.272 112.362 39.981 112.652 40.8511C112.953 41.7104 113.103 42.7363 113.103 43.9287L112.475 44.5088H101.953C101.931 44.6914 101.921 44.8687 101.921 45.0405C101.921 45.2124 101.921 45.3843 101.921 45.5562C101.921 46.7271 102.055 47.7905 102.324 48.7466C102.603 49.7026 102.973 50.5244 103.435 51.2119C103.908 51.8887 104.461 52.415 105.095 52.791C105.729 53.167 106.4 53.355 107.109 53.355C107.56 53.355 108.017 53.3228 108.479 53.2583C108.951 53.1831 109.408 53.0703 109.848 52.9199C110.3 52.7695 110.735 52.5762 111.154 52.3398C111.573 52.1035 111.959 51.8188 112.314 51.4858L112.974 52.1787C112.126 53.0166 111.202 53.6128 110.203 53.9673C109.204 54.3325 108.049 54.5151 106.739 54.5151C105.707 54.5151 104.74 54.3164 103.838 53.9189C102.947 53.5215 102.173 52.9521 101.518 52.2109C100.863 51.4697 100.347 50.5781 99.971 49.5361C99.595 48.4834 99.407 47.3071 99.407 46.0073ZM107.109 38.2085C105.444 38.2085 104.225 38.6436 103.451 39.5137C102.678 40.373 102.211 41.6138 102.05 43.2358H111.025C110.939 41.4741 110.541 40.1958 109.832 39.4009C109.134 38.606 108.226 38.2085 107.109 38.2085ZM116.423 46.0073C116.423 44.8687 116.611 43.7676 116.987 42.7041C117.363 41.6299 117.9 40.6792 118.598 39.8521C119.296 39.0142 120.139 38.3481 121.128 37.854C122.127 37.3491 123.244 37.0967 124.479 37.0967C125.253 37.0967 125.983 37.231 126.671 37.4995C127.358 37.7573 127.954 38.1655 128.459 38.7241C128.975 39.272 129.378 39.981 129.668 40.8511C129.969 41.7104 130.119 42.7363 130.119 43.9287L129.49 44.5088H118.969C118.947 44.6914 118.936 44.8687 118.936 45.0405C118.936 45.2124 118.936 45.3843 118.936 45.5562C118.936 46.7271 119.071 47.7905 119.339 48.7466C119.618 49.7026 119.989 50.5244 120.451 51.2119C120.924 51.8887 121.477 52.415 122.111 52.791C122.744 53.167 123.416 53.355 124.125 53.355C124.576 53.355 125.032 53.3228 125.494 53.2583C125.967 53.1831 126.424 53.0703 126.864 52.9199C127.315 52.7695 127.75 52.5762 128.169 52.3398C128.588 52.1035 128.975 51.8188 129.329 51.4858L129.99 52.1787C129.141 53.0166 128.218 53.6128 127.219 53.9673C126.22 54.3325 125.065 54.5151 123.754 54.5151C122.723 54.5151 121.756 54.3164 120.854 53.9189C119.962 53.5215 119.189 52.9521 118.533 52.2109C117.878 51.4697 117.363 50.5781 116.987 49.5361C116.611 48.4834 116.423 47.3071 116.423 46.0073ZM124.125 38.2085C122.46 38.2085 121.24 38.6436 120.467 39.5137C119.694 40.373 119.226 41.6138 119.065 43.2358H128.04C127.954 41.4741 127.557 40.1958 126.848 39.4009C126.15 38.606 125.242 38.2085 124.125 38.2085ZM135.517 41.9146C135.517 41.1948 135.479 40.5933 135.404 40.1099C135.34 39.6265 135.216 39.2397 135.033 38.9497C134.862 38.6597 134.62 38.4556 134.308 38.3374C133.997 38.2192 133.664 38.1602 133.309 38.1602C132.966 38.1602 132.756 38.1655 132.681 38.1763L132.616 37.8862C134.367 37.3599 135.995 37.0967 137.499 37.0967C137.724 37.666 137.837 38.2783 137.837 38.9336V39.4009C138.46 38.9819 139.035 38.6167 139.561 38.3052C140.088 37.9937 140.603 37.7305 141.108 37.5156C141.624 37.3008 142.15 37.1396 142.687 37.0322C143.224 36.9248 143.815 36.8711 144.46 36.8711C145.04 36.8711 145.615 36.9463 146.184 37.0967C146.764 37.2471 147.28 37.5156 147.731 37.9023C148.193 38.2891 148.563 38.8154 148.843 39.4814C149.133 40.1475 149.278 40.9907 149.278 42.0112V52.0337C149.278 52.2915 149.337 52.5063 149.455 52.6782C149.584 52.8501 149.745 52.9951 149.938 53.1133C150.142 53.2314 150.373 53.3335 150.631 53.4194C150.889 53.4946 151.157 53.5752 151.437 53.6611L151.292 54.0479C150.69 53.9189 149.89 53.8545 148.891 53.8545C148.279 53.8545 147.564 53.9404 146.748 54.1123L146.651 53.9512C146.866 53.6396 146.973 53.0703 146.973 52.2432V42.6074C146.973 41.7051 146.887 40.9692 146.716 40.3999C146.544 39.8198 146.307 39.3687 146.007 39.0464C145.717 38.7134 145.373 38.4824 144.975 38.3535C144.589 38.2246 144.175 38.1602 143.735 38.1602C143.198 38.1602 142.693 38.2085 142.22 38.3052C141.758 38.4019 141.291 38.5522 140.818 38.7563C140.356 38.9497 139.884 39.1968 139.4 39.4976C138.917 39.7876 138.396 40.1313 137.837 40.5288V51.647C137.837 51.9907 137.864 52.27 137.918 52.4849C137.971 52.689 138.084 52.8608 138.256 53.0005C138.428 53.1401 138.67 53.2637 138.981 53.3711C139.293 53.4785 139.701 53.5967 140.206 53.7256L140.077 54.1123C139.454 54.0264 138.922 53.9619 138.482 53.9189C138.052 53.876 137.703 53.8545 137.434 53.8545C136.822 53.8545 136.108 53.9404 135.291 54.1123L135.195 53.9512C135.409 53.6396 135.517 53.0703 135.517 52.2432V41.9146Z" fill="white"/>
<path d="M74.9526 239.547C74.9526 238.123 75.9403 237.268 77.251 237.268C78.5426 237.268 79.5494 238.123 79.5494 239.547C79.5494 240.972 78.5426 241.827 77.251 241.827C75.9403 241.827 74.9526 240.972 74.9526 239.547ZM81.9808 239.547C81.9808 236.964 79.9103 235.102 77.251 235.102C74.5727 235.102 72.5022 236.964 72.5022 239.547C72.5022 242.112 74.5727 243.992 77.251 243.992C79.9103 243.992 81.9808 242.112 81.9808 239.547ZM77.365 245.398H74.8576V251.172H86.7675V249.178H77.365V245.398ZM86.1407 238.996V233.982H83.6333V246.708H86.1407V241.048H88.4581V238.996H86.1407ZM99.3408 238.199V240.231H101.962V244.391H104.469V233.982H101.962V238.199H99.3408ZM100.386 241.96C97.7262 241.086 96.5105 239.034 96.4345 237.04H99.8347V235.026H90.4321V237.04H93.8702C93.7942 239.224 92.5216 241.447 89.7483 242.416L91.0209 244.391C93.0534 243.707 94.4401 242.283 95.1999 240.516C95.9597 242.055 97.2703 243.289 99.1698 243.916L100.386 241.96ZM98.562 249.596C96.2636 249.596 95.0669 249.121 95.0669 248.133C95.0669 247.145 96.2636 246.67 98.562 246.67C100.841 246.67 102.038 247.145 102.038 248.133C102.038 249.121 100.841 249.596 98.562 249.596ZM98.562 244.771C94.839 244.771 92.5595 246.006 92.5595 248.133C92.5595 250.261 94.839 251.495 98.562 251.495C102.266 251.495 104.545 250.261 104.545 248.133C104.545 246.006 102.266 244.771 98.562 244.771ZM117.86 241.96C115.162 241.048 113.947 238.939 113.909 236.945H117.309V234.95H107.906V236.945H111.344C111.306 239.11 110.034 241.333 107.222 242.283L108.495 244.258C110.527 243.593 111.895 242.188 112.674 240.478C113.415 242.036 114.725 243.289 116.644 243.916L117.86 241.96ZM110.015 247.164H119.436V251.495H121.943V245.17H110.015V247.164ZM119.436 234.001V238.161H116.853V240.174H119.436V244.391H121.943V234.001H119.436ZM139.322 234.001H136.796V246.556H139.322V234.001ZM127.489 239.547C127.489 238.104 128.514 237.268 129.806 237.268C131.117 237.268 132.104 238.104 132.104 239.547C132.104 240.953 131.117 241.808 129.806 241.808C128.514 241.808 127.489 240.953 127.489 239.547ZM134.555 239.547C134.555 236.964 132.484 235.102 129.806 235.102C127.128 235.102 125.038 236.964 125.038 239.547C125.038 242.093 127.128 243.973 129.806 243.973C132.484 243.973 134.555 242.093 134.555 239.547ZM130.186 249.178V245.322H127.679V251.172H139.759V249.178H130.186Z" fill="white"/>
<path d="M7.24023 206.843L205.155 206.843" stroke="white" stroke-width="1.58292" stroke-linecap="round" stroke-linejoin="round"/>
<path d="M130.09 104.438C122.843 100.692 103.813 103.143 94.8902 122.225C87.3996 138.243 84.2505 162.167 87.5879 167.001C86.6292 164.219 89.232 152.036 93.2073 143.535C98.0691 133.138 106.396 130.849 109.317 132.41C113.769 134.789 111.475 137.789 100.96 150.469C93.8107 159.089 91.8983 164.9 88.7816 167.317C88.5336 167.51 88.3214 167.594 88.1437 167.582C88.705 167.981 89.3977 167.981 90.2286 167.493C96.9714 163.533 100.066 152.674 114.797 137.605C136.465 115.439 141.135 110.146 130.09 104.438Z" fill="white"/>
</svg>
