<svg width="213" height="277" viewBox="0 0 213 277" fill="none" xmlns="http://www.w3.org/2000/svg">
<rect width="213" height="277" fill="#FCE6AE"/>
<path d="M64.4067 54.1768L63.1177 53.8545C62.0649 50.4814 60.9209 47.2856 59.6855 44.2671C58.4609 41.2378 56.9785 37.8325 55.2383 34.0513C54.9053 33.3101 54.5615 32.7783 54.207 32.4561C53.8525 32.1338 53.4819 31.9727 53.0952 31.9727C52.7192 31.9727 52.2681 31.9941 51.7417 32.0371L51.5806 31.7148C53.3853 30.8125 54.9429 30.3613 56.2534 30.3613C56.8335 31.5 57.3867 32.644 57.9131 33.7935C58.4395 34.9321 58.9927 36.2104 59.5728 37.6284C60.1636 39.0464 60.6094 40.1313 60.9102 40.8833C61.2109 41.6245 61.7104 42.8975 62.4087 44.7021C63.1177 46.5068 63.5635 47.6455 63.7461 48.1182C64.0791 48.9023 64.2886 49.7671 64.3745 50.7124H64.6484C64.6807 50.6372 64.7988 50.2612 65.0029 49.5845C65.207 48.9077 65.4487 48.231 65.728 47.5542L71.7383 32.3433C71.8027 31.9351 71.6201 31.6504 71.1904 31.4893C70.7715 31.3281 70.0947 31.2905 69.1602 31.3765L69.0635 31.0864C70.4492 30.689 71.9316 30.4902 73.5107 30.4902C73.5967 30.4902 73.6558 30.5278 73.688 30.603C73.731 30.6675 73.7417 30.7373 73.7202 30.8125C73.6021 31.21 73.4731 31.6182 73.3335 32.0371C73.2046 32.4561 70.229 39.8359 64.4067 54.1768ZM87.9966 52.0337C87.9966 52.2163 88.0342 52.3882 88.1094 52.5493C88.1953 52.6997 88.292 52.8286 88.3994 52.936C88.5176 53.0327 88.6841 53.1294 88.8989 53.2261C89.1138 53.3228 89.3018 53.3979 89.4629 53.4517C89.624 53.5054 89.8496 53.5752 90.1396 53.6611L90.0107 54.0479C89.3232 53.9189 88.6411 53.8545 87.9644 53.8545C87.1157 53.8545 86.2778 53.9404 85.4507 54.1123L85.354 53.9512C85.5796 53.6396 85.6924 53.0703 85.6924 52.2432V51.1797C85.1553 52.1787 84.3174 52.9844 83.1787 53.5967C82.0508 54.209 80.9067 54.5151 79.7466 54.5151C78.5112 54.5151 77.5122 54.1982 76.7495 53.5645C75.9976 52.9199 75.6216 51.9692 75.6216 50.7124C75.6216 49.896 75.7881 49.1709 76.1211 48.5371C76.4648 47.8926 76.916 47.3501 77.4746 46.9097C78.0439 46.4585 78.769 46.061 79.6499 45.7173C80.5415 45.3735 81.4546 45.0942 82.3892 44.8794C83.3345 44.6646 84.4355 44.4658 85.6924 44.2832V42.8008C85.6924 39.8467 84.5269 38.3696 82.1958 38.3696C81.4438 38.3696 80.52 38.5576 79.4243 38.9336C78.3394 39.2988 77.4263 39.7822 76.6851 40.3838L76.0244 39.6265C76.959 38.8853 78.0654 38.2729 79.3438 37.7896C80.6328 37.3062 81.8359 37.0645 82.9531 37.0645C83.4473 37.0645 83.9146 37.1128 84.355 37.2095C84.8062 37.2954 85.2573 37.4619 85.7085 37.709C86.1704 37.9453 86.5625 38.2515 86.8848 38.6274C87.2178 38.9927 87.4863 39.4868 87.6904 40.1099C87.8945 40.7222 87.9966 41.4204 87.9966 42.2046V52.0337ZM80.5039 53.2905C81.4385 53.2905 82.416 52.9844 83.4365 52.3721C84.457 51.749 85.209 50.9756 85.6924 50.0518V45.1372C82.9424 45.5347 80.9766 46.147 79.7949 46.9741C78.624 47.7905 78.0386 48.9829 78.0386 50.5513C78.0386 51.5073 78.2427 52.2056 78.6509 52.646C79.0591 53.0757 79.6768 53.2905 80.5039 53.2905ZM95.3604 41.9146C95.3604 41.1948 95.3228 40.5933 95.2476 40.1099C95.1831 39.6265 95.0596 39.2397 94.877 38.9497C94.7051 38.6597 94.4634 38.4556 94.1519 38.3374C93.8403 38.2192 93.5073 38.1602 93.1528 38.1602C92.8091 38.1602 92.5996 38.1655 92.5244 38.1763L92.46 37.8862C94.2109 37.3599 95.8384 37.0967 97.3423 37.0967C97.5679 37.666 97.6807 38.2783 97.6807 38.9336V39.4009C98.3037 38.9819 98.8784 38.6167 99.4048 38.3052C99.9312 37.9937 100.447 37.7305 100.952 37.5156C101.467 37.3008 101.994 37.1396 102.531 37.0322C103.068 36.9248 103.659 36.8711 104.303 36.8711C104.883 36.8711 105.458 36.9463 106.027 37.0967C106.607 37.2471 107.123 37.5156 107.574 37.9023C108.036 38.2891 108.407 38.8154 108.686 39.4814C108.976 40.1475 109.121 40.9907 109.121 42.0112V52.0337C109.121 52.2915 109.18 52.5063 109.298 52.6782C109.427 52.8501 109.588 52.9951 109.782 53.1133C109.986 53.2314 110.217 53.3335 110.475 53.4194C110.732 53.4946 111.001 53.5752 111.28 53.6611L111.135 54.0479C110.534 53.9189 109.733 53.8545 108.734 53.8545C108.122 53.8545 107.408 53.9404 106.591 54.1123L106.495 53.9512C106.709 53.6396 106.817 53.0703 106.817 52.2432V42.6074C106.817 41.7051 106.731 40.9692 106.559 40.3999C106.387 39.8198 106.151 39.3687 105.85 39.0464C105.56 38.7134 105.216 38.4824 104.819 38.3535C104.432 38.2246 104.019 38.1602 103.578 38.1602C103.041 38.1602 102.536 38.2085 102.063 38.3052C101.602 38.4019 101.134 38.5522 100.662 38.7563C100.2 38.9497 99.7271 39.1968 99.2437 39.4976C98.7603 39.7876 98.2393 40.1313 97.6807 40.5288V51.647C97.6807 51.9907 97.7075 52.27 97.7612 52.4849C97.8149 52.689 97.9277 52.8608 98.0996 53.0005C98.2715 53.1401 98.5132 53.2637 98.8247 53.3711C99.1362 53.4785 99.5444 53.5967 100.049 53.7256L99.9204 54.1123C99.2974 54.0264 98.7656 53.9619 98.3252 53.9189C97.8955 53.876 97.5464 53.8545 97.2778 53.8545C96.6655 53.8545 95.9512 53.9404 95.1348 54.1123L95.0381 53.9512C95.2529 53.6396 95.3604 53.0703 95.3604 52.2432V41.9146ZM116.501 41.9146C116.501 40.3892 116.318 39.3687 115.953 38.853C115.599 38.3267 114.836 38.1011 113.665 38.1763L113.601 37.8862C115.373 37.3599 117 37.0967 118.483 37.0967C118.708 37.6553 118.821 38.2676 118.821 38.9336V50.9541C118.821 51.8027 119.02 52.4312 119.417 52.8394C119.815 53.2476 120.519 53.543 121.528 53.7256L121.399 54.1123C120.164 53.9404 119.208 53.8545 118.531 53.8545C117.865 53.8545 117.113 53.9404 116.275 54.1123L116.179 53.9512C116.394 53.6396 116.501 53.0703 116.501 52.2432V41.9146ZM114.857 31.1187C115.878 30.5278 117.033 30.0337 118.322 29.6362C118.322 30.5278 118.467 31.4087 118.757 32.2788L118.547 32.5688C117.527 32.6333 116.463 32.918 115.357 33.4229C115.088 32.6816 114.922 31.9136 114.857 31.1187ZM128.393 50.9541C128.393 51.8027 128.591 52.4312 128.989 52.8394C129.386 53.2476 130.09 53.543 131.1 53.7256L130.971 54.1123C129.735 53.9404 128.779 53.8545 128.103 53.8545C127.437 53.8545 126.685 53.9404 125.847 54.1123L125.75 53.9512C125.965 53.6396 126.072 53.0703 126.072 52.2432V32.9395C126.072 31.4141 125.89 30.3936 125.524 29.8779C125.17 29.3516 124.407 29.126 123.236 29.2012L123.172 28.9111C124.944 28.3848 126.572 28.1216 128.054 28.1216C128.28 28.6802 128.393 29.2925 128.393 29.9585V50.9541ZM138.286 50.9541C138.286 51.8027 138.485 52.4312 138.882 52.8394C139.28 53.2476 139.983 53.543 140.993 53.7256L140.864 54.1123C139.629 53.9404 138.673 53.8545 137.996 53.8545C137.33 53.8545 136.578 53.9404 135.74 54.1123L135.644 53.9512C135.858 53.6396 135.966 53.0703 135.966 52.2432V32.9395C135.966 31.4141 135.783 30.3936 135.418 29.8779C135.063 29.3516 134.301 29.126 133.13 29.2012L133.065 28.9111C134.838 28.3848 136.465 28.1216 137.948 28.1216C138.173 28.6802 138.286 29.2925 138.286 29.9585V50.9541ZM155.995 52.0337C155.995 52.2163 156.032 52.3882 156.107 52.5493C156.193 52.6997 156.29 52.8286 156.397 52.936C156.516 53.0327 156.682 53.1294 156.897 53.2261C157.112 53.3228 157.3 53.3979 157.461 53.4517C157.622 53.5054 157.848 53.5752 158.138 53.6611L158.009 54.0479C157.321 53.9189 156.639 53.8545 155.962 53.8545C155.114 53.8545 154.276 53.9404 153.449 54.1123L153.352 53.9512C153.578 53.6396 153.69 53.0703 153.69 52.2432V51.1797C153.153 52.1787 152.315 52.9844 151.177 53.5967C150.049 54.209 148.905 54.5151 147.745 54.5151C146.509 54.5151 145.51 54.1982 144.748 53.5645C143.996 52.9199 143.62 51.9692 143.62 50.7124C143.62 49.896 143.786 49.1709 144.119 48.5371C144.463 47.8926 144.914 47.3501 145.473 46.9097C146.042 46.4585 146.767 46.061 147.648 45.7173C148.54 45.3735 149.453 45.0942 150.387 44.8794C151.333 44.6646 152.434 44.4658 153.69 44.2832V42.8008C153.69 39.8467 152.525 38.3696 150.194 38.3696C149.442 38.3696 148.518 38.5576 147.422 38.9336C146.337 39.2988 145.424 39.7822 144.683 40.3838L144.022 39.6265C144.957 38.8853 146.063 38.2729 147.342 37.7896C148.631 37.3062 149.834 37.0645 150.951 37.0645C151.445 37.0645 151.913 37.1128 152.353 37.2095C152.804 37.2954 153.255 37.4619 153.707 37.709C154.168 37.9453 154.561 38.2515 154.883 38.6274C155.216 38.9927 155.484 39.4868 155.688 40.1099C155.893 40.7222 155.995 41.4204 155.995 42.2046V52.0337ZM148.502 53.2905C149.437 53.2905 150.414 52.9844 151.435 52.3721C152.455 51.749 153.207 50.9756 153.69 50.0518V45.1372C150.94 45.5347 148.975 46.147 147.793 46.9741C146.622 47.7905 146.037 48.9829 146.037 50.5513C146.037 51.5073 146.241 52.2056 146.649 52.646C147.057 53.0757 147.675 53.2905 148.502 53.2905Z" fill="white"/>
<path d="M83.9175 237.724H85.95V235.729H81.4482V247.202H82.3409C83.7276 247.202 84.8483 247.183 86.2349 246.898L86.045 244.866C85.2852 244.999 84.6013 245.075 83.9175 245.113V237.724ZM89.3311 237.724H91.5725V235.729H86.8618V247.202H87.7925C89.882 247.202 90.8127 247.164 91.9714 246.86L91.7815 244.847C91.0217 245.018 90.3379 245.094 89.3311 245.113V237.724ZM97.2331 240.516H95.1626V233.944H92.6553V251.495H95.1626V242.587H97.2331V240.516ZM112.998 238.958H109.483V236.774H112.922V234.799H106.995V240.934H112.998V238.958ZM106.178 238.598C104.944 238.825 103.842 238.92 102.55 238.958V236.774H106.102V234.799H100.062V240.934H101.107C103.177 240.934 104.659 240.896 106.406 240.573L106.178 238.598ZM107.793 245.075H105.248V245.398C105.248 247.221 103.538 249.007 99.663 249.463L100.556 251.4C103.443 251.02 105.456 249.9 106.52 248.304C107.584 249.9 109.597 251.02 112.466 251.4L113.377 249.463C109.502 249.007 107.793 247.221 107.793 245.398V245.075ZM98.5612 242.055V244.087H114.384V242.055H98.5612ZM126.369 235.824H122.456V233.963H119.929V235.824H116.054V237.781H126.35L126.369 235.824ZM119.302 241.77C119.302 240.82 120.081 240.307 121.202 240.307C122.304 240.307 123.101 240.82 123.101 241.77C123.101 242.738 122.304 243.251 121.202 243.251C120.081 243.251 119.302 242.738 119.302 241.77ZM125.495 241.77C125.495 239.794 123.709 238.408 121.202 238.408C118.695 238.408 116.909 239.794 116.909 241.77C116.909 243.783 118.695 245.151 121.202 245.151C123.709 245.151 125.495 243.783 125.495 241.77ZM121.05 246.101H118.543V251.172H130.453V249.178H121.05V246.101ZM129.826 239.319V233.982H127.318V247.069H129.826V241.39H132.143V239.319H129.826Z" fill="white"/>
<path d="M7.24023 206.843L205.155 206.843" stroke="white" stroke-width="1.58292" stroke-linecap="round" stroke-linejoin="round"/>
<path d="M58.7495 116.529C72.0412 120.17 91.243 123.235 96.4341 132.416C102.939 143.919 94.4859 162.123 87.8821 177.169C98.8687 157.672 120.509 146.755 142.358 149.105C130.023 146.056 115.749 142.66 111.384 134.94C105.297 124.175 112.312 107.538 118.649 93.1152C105.777 112.626 81.7179 122.264 58.7495 116.529Z" fill="white"/>
</svg>
