<svg width="213" height="277" viewBox="0 0 213 277" fill="none" xmlns="http://www.w3.org/2000/svg">
<rect width="213" height="277" fill="#393939"/>
<path d="M77.0444 30.7324C77.646 30.7754 78.0542 30.8989 78.269 31.103L83.5864 47.9253C83.9194 49.0103 84.1074 49.8911 84.1504 50.5679H84.3438L89.6934 32.4888C89.7578 32.0806 89.5752 31.7959 89.1455 31.6348C88.7266 31.4736 88.0498 31.436 87.1152 31.522L87.0186 31.2319C88.4043 30.8345 89.833 30.6357 91.3047 30.6357C91.3799 30.6357 91.4336 30.6733 91.4658 30.7485C91.5088 30.813 91.5195 30.8828 91.498 30.958C90.6387 33.998 88.2002 41.7861 84.1826 54.3223L83.0547 54L77.1411 35.228V35.2925H76.9478L70.9053 54.3223L69.7935 54L63.7188 34.3257C63.4932 33.5952 63.2085 33.0635 62.8647 32.7305C62.5317 32.3975 62.1665 32.231 61.769 32.231C61.3823 32.231 61.0386 32.2471 60.7378 32.2793C60.4478 32.3008 60.2759 32.3115 60.2222 32.3115L60.061 31.9893C61.8657 31.0869 63.4824 30.6357 64.9111 30.6357L69.8579 46.7329C70.2446 48.0435 70.4541 49.2251 70.4863 50.2778H70.6797L77.0444 30.7324ZM106.5 42.7529C106.5 41.8506 106.414 41.1147 106.242 40.5454C106.07 39.9653 105.833 39.5142 105.533 39.1919C105.243 38.8589 104.899 38.6279 104.501 38.499C104.115 38.3701 103.701 38.3057 103.261 38.3057C102.724 38.3057 102.219 38.354 101.746 38.4507C101.284 38.5474 100.817 38.6978 100.344 38.9019C99.8823 39.0952 99.4097 39.3423 98.9263 39.6431C98.4429 39.9331 97.9219 40.2769 97.3633 40.6743V51.7925C97.3633 52.1362 97.3901 52.4155 97.4438 52.6304C97.4976 52.8345 97.6104 53.0063 97.7822 53.146C97.9541 53.2856 98.1958 53.4092 98.5073 53.5166C98.8188 53.624 99.2271 53.7422 99.7319 53.8711L99.603 54.2578C98.98 54.1719 98.4482 54.1074 98.0078 54.0645C97.5781 54.0215 97.1431 54 96.7026 54C96.2622 54 95.6338 54.0859 94.8174 54.2578L94.7207 54.0967C94.9355 53.7852 95.043 53.2158 95.043 52.3887V33.085C95.043 32.3652 95.0054 31.7637 94.9302 31.2803C94.8657 30.7969 94.7422 30.4102 94.5596 30.1201C94.3877 29.8301 94.146 29.626 93.8345 29.5078C93.5229 29.3896 93.1899 29.3306 92.8354 29.3306C92.4917 29.3306 92.2822 29.3359 92.207 29.3467L92.1426 29.0566C93.8936 28.5303 95.521 28.2671 97.0249 28.2671C97.2505 28.8364 97.3633 29.4487 97.3633 30.104V39.5464C98.1045 39.0415 98.7759 38.6279 99.3774 38.3057C99.9897 37.9727 100.559 37.7095 101.085 37.5161C101.623 37.3228 102.127 37.1885 102.6 37.1133C103.083 37.0381 103.572 37.0005 104.066 37.0005C104.743 37.0005 105.361 37.0918 105.919 37.2744C106.489 37.4463 106.978 37.7363 107.386 38.1445C107.794 38.542 108.122 39.0684 108.369 39.7236C108.616 40.3789 108.761 41.1899 108.804 42.1567V52.1792C108.804 52.437 108.863 52.6519 108.981 52.8237C109.11 52.9956 109.271 53.1406 109.464 53.2588C109.668 53.377 109.899 53.479 110.157 53.5649C110.415 53.6401 110.684 53.7207 110.963 53.8066L110.818 54.1934C110.216 54.0645 109.513 54 108.707 54C107.901 54 107.09 54.0859 106.274 54.2578L106.177 54.0967C106.392 53.7852 106.5 53.2158 106.5 52.3887V42.7529ZM116.184 42.0601C116.184 40.5347 116.001 39.5142 115.636 38.9985C115.281 38.4722 114.519 38.2466 113.348 38.3218L113.283 38.0317C115.056 37.5054 116.683 37.2422 118.166 37.2422C118.391 37.8008 118.504 38.4131 118.504 39.0791V51.0996C118.504 51.9482 118.703 52.5767 119.1 52.9849C119.498 53.3931 120.201 53.6885 121.211 53.8711L121.082 54.2578C119.847 54.0859 118.891 54 118.214 54C117.548 54 116.796 54.0859 115.958 54.2578L115.861 54.0967C116.076 53.7852 116.184 53.2158 116.184 52.3887V42.0601ZM114.54 31.2642C115.561 30.6733 116.715 30.1792 118.004 29.7817C118.004 30.6733 118.149 31.5542 118.439 32.4243L118.23 32.7144C117.209 32.7788 116.146 33.0635 115.04 33.5684C114.771 32.8271 114.604 32.0591 114.54 31.2642ZM128.236 49.5527C128.236 51.0137 128.397 52.0234 128.72 52.582C129.042 53.1299 129.563 53.4038 130.283 53.4038C131.067 53.4038 132.023 53.1084 133.151 52.5176L133.65 53.2104C131.878 54.1772 130.428 54.6606 129.3 54.6606C128.698 54.6606 128.209 54.6069 127.833 54.4995C127.458 54.3921 127.114 54.1826 126.802 53.8711C126.491 53.5596 126.265 53.103 126.125 52.5015C125.997 51.8892 125.932 51.0996 125.932 50.1328V39.208L123.515 39.353V38.3218C124.364 38.1392 125.169 38.021 125.932 37.9673V35.6792C126.845 35.1636 127.592 34.4277 128.172 33.4717L128.671 33.665C128.489 34.0947 128.371 34.5835 128.317 35.1313C128.263 35.6685 128.236 36.5815 128.236 37.8706H133.779V38.4346C133.328 38.6172 132.872 38.7729 132.41 38.9019C131.948 39.02 131.47 39.0791 130.976 39.0791H128.236V49.5527ZM136.245 46.1528C136.245 45.0142 136.433 43.9131 136.809 42.8496C137.185 41.7754 137.722 40.8247 138.42 39.9976C139.118 39.1597 139.961 38.4937 140.95 37.9995C141.949 37.4946 143.066 37.2422 144.301 37.2422C145.075 37.2422 145.805 37.3765 146.493 37.645C147.18 37.9028 147.776 38.311 148.281 38.8696C148.797 39.4175 149.2 40.1265 149.49 40.9966C149.791 41.856 149.941 42.8818 149.941 44.0742L149.312 44.6543H138.791C138.769 44.8369 138.758 45.0142 138.758 45.186C138.758 45.3579 138.758 45.5298 138.758 45.7017C138.758 46.8726 138.893 47.936 139.161 48.8921C139.44 49.8481 139.811 50.6699 140.273 51.3574C140.746 52.0342 141.299 52.5605 141.933 52.9365C142.566 53.3125 143.238 53.5005 143.947 53.5005C144.398 53.5005 144.854 53.4683 145.316 53.4038C145.789 53.3286 146.246 53.2158 146.686 53.0654C147.137 52.915 147.572 52.7217 147.991 52.4854C148.41 52.249 148.797 51.9644 149.151 51.6313L149.812 52.3242C148.963 53.1621 148.04 53.7583 147.041 54.1128C146.042 54.478 144.887 54.6606 143.576 54.6606C142.545 54.6606 141.578 54.4619 140.676 54.0645C139.784 53.667 139.011 53.0977 138.355 52.3564C137.7 51.6152 137.185 50.7236 136.809 49.6816C136.433 48.6289 136.245 47.4526 136.245 46.1528ZM143.947 38.354C142.282 38.354 141.062 38.7891 140.289 39.6592C139.516 40.5186 139.048 41.7593 138.887 43.3813H147.862C147.776 41.6196 147.379 40.3413 146.67 39.5464C145.972 38.7515 145.064 38.354 143.947 38.354Z" fill="white"/>
<path d="M96.1309 239.623C92.2749 239.091 90.2994 236.907 90.2994 234.988V234.438H87.716V234.988C87.716 236.964 85.7596 239.129 81.9035 239.661L82.8343 241.637C85.7785 241.162 87.925 239.813 89.0267 238.028C90.1284 239.794 92.2559 241.124 95.1811 241.58L96.1309 239.623ZM85.4366 246.063H82.9293V251.172H95.1811V249.178H85.4366V246.063ZM81.0868 242.587V244.562H87.982V247.544H90.4893V244.562H96.9477V242.587H81.0868ZM113.833 240.193C109.863 239.642 107.849 237.363 107.849 235.33V234.495H105.171V235.33C105.171 237.382 103.177 239.642 99.1876 240.193L100.137 242.207C103.196 241.751 105.399 240.326 106.52 238.446C107.64 240.326 109.825 241.751 112.883 242.207L113.833 240.193ZM114.403 243.498H98.5988V245.531H105.19V251.495H107.697V245.531H114.403V243.498ZM126.368 235.824H122.455V233.963H119.929V235.824H116.054V237.781H126.349L126.368 235.824ZM119.302 241.77C119.302 240.82 120.081 240.307 121.201 240.307C122.303 240.307 123.101 240.82 123.101 241.77C123.101 242.738 122.303 243.251 121.201 243.251C120.081 243.251 119.302 242.738 119.302 241.77ZM125.494 241.77C125.494 239.794 123.709 238.408 121.201 238.408C118.694 238.408 116.909 239.794 116.909 241.77C116.909 243.783 118.694 245.151 121.201 245.151C123.709 245.151 125.494 243.783 125.494 241.77ZM121.049 246.101H118.542V251.172H130.452V249.178H121.049V246.101ZM129.825 239.319V233.982H127.318V247.069H129.825V241.39H132.143V239.319H129.825Z" fill="white"/>
<path d="M7.24023 206.843L205.155 206.843" stroke="white" stroke-width="1.58292" stroke-linecap="round" stroke-linejoin="round"/>
<g filter="url(#filter0_d)">
<path d="M106.273 157.042C124.649 157.042 139.546 141.81 139.546 123.021C139.546 104.232 124.649 89 106.273 89C87.8968 89 73 104.232 73 123.021C73 141.81 87.8968 157.042 106.273 157.042Z" fill="white"/>
</g>
<defs>
<filter id="filter0_d" x="67.5835" y="83.5835" width="77.379" height="78.8753" filterUnits="userSpaceOnUse" color-interpolation-filters="sRGB">
<feFlood flood-opacity="0" result="BackgroundImageFix"/>
<feColorMatrix in="SourceAlpha" type="matrix" values="0 0 0 0 0 0 0 0 0 0 0 0 0 0 0 0 0 0 127 0"/>
<feOffset/>
<feGaussianBlur stdDeviation="2.70826"/>
<feColorMatrix type="matrix" values="0 0 0 0 0 0 0 0 0 0 0 0 0 0 0 0 0 0 0.07 0"/>
<feBlend mode="normal" in2="BackgroundImageFix" result="effect1_dropShadow"/>
<feBlend mode="normal" in="SourceGraphic" in2="effect1_dropShadow" result="shape"/>
</filter>
</defs>
</svg>
