<svg width="213" height="277" viewBox="0 0 213 277" fill="none" xmlns="http://www.w3.org/2000/svg">
<rect width="213" height="277" fill="#FFB8BC"/>
<path d="M79.4453 32.811V51.0996C79.4453 51.9697 79.6226 52.6035 79.9771 53.001C80.3315 53.3984 81.0029 53.6885 81.9912 53.8711L81.8462 54.2578C80.6216 54.0859 79.6548 54 78.9458 54C78.312 54 77.5762 54.0859 76.7383 54.2578L76.6416 54.0967C76.8564 53.7852 76.9639 53.2158 76.9639 52.3887V35.4536C76.9639 33.9282 76.7866 32.9292 76.4321 32.4565C76.0884 31.9731 75.3203 31.7314 74.1279 31.7314L74.0635 31.2642C77.0498 30.8237 79.4507 30.6035 81.2661 30.6035C82.5122 30.6035 83.6133 30.6948 84.5693 30.8774C85.5361 31.0601 86.4062 31.3662 87.1797 31.7959C87.9531 32.2148 88.5439 32.8003 88.9521 33.5522C89.3711 34.3042 89.5806 35.2119 89.5806 36.2754C89.5806 37.4463 89.1992 38.5151 88.4365 39.4819C87.6846 40.438 86.7446 41.1685 85.6167 41.6733C84.4995 42.1675 83.3555 42.4146 82.1846 42.4146C81.7227 42.4146 81.3789 42.3931 81.1533 42.3501V41.7861C81.9697 41.7861 82.7217 41.6787 83.4092 41.4639C84.1074 41.249 84.7251 40.9268 85.2622 40.4971C85.8101 40.0674 86.2344 39.5034 86.5352 38.8052C86.8467 38.0962 87.0024 37.2852 87.0024 36.3721C87.0024 34.9004 86.6318 33.7349 85.8906 32.8755C85.1494 32.0161 83.9893 31.5864 82.4102 31.5864C81.25 31.5864 80.2295 31.6562 79.3486 31.7959C79.4131 32.1182 79.4453 32.4565 79.4453 32.811ZM94.7852 42.0601C94.7852 40.5347 94.6025 39.5142 94.2373 38.9985C93.8828 38.4722 93.1201 38.2466 91.9492 38.3218L91.8848 38.0317C93.6572 37.5054 95.2847 37.2422 96.7671 37.2422C96.9927 37.8008 97.1055 38.4131 97.1055 39.0791V51.0996C97.1055 51.9482 97.3042 52.5767 97.7017 52.9849C98.0991 53.3931 98.8027 53.6885 99.8125 53.8711L99.6836 54.2578C98.4482 54.0859 97.4922 54 96.8154 54C96.1494 54 95.3975 54.0859 94.5596 54.2578L94.4629 54.0967C94.6777 53.7852 94.7852 53.2158 94.7852 52.3887V42.0601ZM93.1416 31.2642C94.1621 30.6733 95.3169 30.1792 96.606 29.7817C96.606 30.6733 96.751 31.5542 97.041 32.4243L96.8315 32.7144C95.811 32.7788 94.7476 33.0635 93.6411 33.5684C93.3726 32.8271 93.2061 32.0591 93.1416 31.2642ZM104.356 42.0601C104.356 41.3403 104.319 40.7388 104.244 40.2554C104.179 39.772 104.056 39.3853 103.873 39.0952C103.701 38.8052 103.459 38.6011 103.148 38.4829C102.836 38.3647 102.503 38.3057 102.149 38.3057C101.805 38.3057 101.596 38.311 101.521 38.3218L101.456 38.0317C103.207 37.5054 104.834 37.2422 106.338 37.2422C106.564 37.8115 106.677 38.4238 106.677 39.0791V39.5464C107.3 39.1274 107.875 38.7622 108.401 38.4507C108.927 38.1392 109.443 37.876 109.948 37.6611C110.463 37.4463 110.99 37.2852 111.527 37.1777C112.064 37.0703 112.655 37.0166 113.299 37.0166C113.879 37.0166 114.454 37.0918 115.023 37.2422C115.604 37.3926 116.119 37.6611 116.57 38.0479C117.032 38.4346 117.403 38.9609 117.682 39.627C117.972 40.293 118.117 41.1362 118.117 42.1567V52.1792C118.117 52.437 118.176 52.6519 118.294 52.8237C118.423 52.9956 118.584 53.1406 118.778 53.2588C118.982 53.377 119.213 53.479 119.471 53.5649C119.729 53.6401 119.997 53.7207 120.276 53.8066L120.131 54.1934C119.53 54.0645 118.729 54 117.73 54C117.118 54 116.404 54.0859 115.587 54.2578L115.491 54.0967C115.706 53.7852 115.813 53.2158 115.813 52.3887V42.7529C115.813 41.8506 115.727 41.1147 115.555 40.5454C115.383 39.9653 115.147 39.5142 114.846 39.1919C114.556 38.8589 114.212 38.6279 113.815 38.499C113.428 38.3701 113.015 38.3057 112.574 38.3057C112.037 38.3057 111.532 38.354 111.06 38.4507C110.598 38.5474 110.13 38.6978 109.658 38.9019C109.196 39.0952 108.723 39.3423 108.24 39.6431C107.756 39.9331 107.235 40.2769 106.677 40.6743V51.7925C106.677 52.1362 106.704 52.4155 106.757 52.6304C106.811 52.8345 106.924 53.0063 107.096 53.146C107.268 53.2856 107.509 53.4092 107.821 53.5166C108.132 53.624 108.541 53.7422 109.045 53.8711L108.917 54.2578C108.293 54.1719 107.762 54.1074 107.321 54.0645C106.892 54.0215 106.542 54 106.274 54C105.662 54 104.947 54.0859 104.131 54.2578L104.034 54.0967C104.249 53.7852 104.356 53.2158 104.356 52.3887V42.0601ZM125.497 33.085C125.497 31.5596 125.314 30.5391 124.949 30.0234C124.595 29.4971 123.832 29.2715 122.661 29.3467L122.597 29.0566C124.369 28.5303 125.997 28.2671 127.479 28.2671C127.705 28.8257 127.817 29.438 127.817 30.104V51.0996C127.817 51.9482 128.016 52.5767 128.414 52.9849C128.811 53.3931 129.515 53.6885 130.524 53.8711L130.396 54.2578C129.16 54.0859 128.167 54 127.415 54C126.824 54 126.109 54.0859 125.271 54.2578L125.175 54.0967C125.39 53.7852 125.497 53.2158 125.497 52.3887V33.085ZM135.068 53.2427L129.106 45.3955V45.0249L135.068 39.0146C135.369 38.6816 135.256 38.4292 134.73 38.2573C134.257 38.0962 133.581 38.0532 132.7 38.1284L132.603 37.7256C133.978 37.4463 135.573 37.2852 137.389 37.2422L137.646 37.7256L130.943 44.4287C135.111 49.6602 137.437 52.4531 137.92 52.8076C138.404 53.1514 139.005 53.4038 139.725 53.5649L139.693 54.0645C137.931 53.9355 136.599 54 135.697 54.2578L135.471 54.1289C135.493 53.8926 135.358 53.5972 135.068 53.2427Z" fill="white"/>
<path d="M53.9219 239.756C51.9274 240.174 50.1039 240.307 47.1026 240.326V236.85H52.4403V234.894H44.6143V242.302H46.0769C49.8 242.302 51.9084 242.207 54.1688 241.713L53.9219 239.756ZM48.7362 248.209H57.7779V243.384H46.2289V245.36H55.3085V246.386H46.2479V251.267H58.2908V249.311H48.7362V248.209ZM57.7779 237.287V233.963H55.2705V242.663H57.7779V239.319H60.0953V237.287H57.7779ZM62.8101 237.648L63.095 239.68L72.8775 239.262C72.8015 239.851 72.7255 240.459 72.6116 241.143L75.1189 241.314C75.5368 239.072 75.5368 237.344 75.5368 235.862V234.4H63.266V236.375H73.0105C73.0105 236.717 73.0105 237.059 72.9915 237.42L62.8101 237.648ZM65.7923 247.202H72.9155V249.311H65.7923V247.202ZM63.323 251.267H75.3849V245.246H63.323V251.267ZM69.8763 242.055V240.231H67.3689V242.055H61.5184V244.049H77.2654V242.055H69.8763ZM84.0071 245.854C82.8295 245.854 81.9557 245.056 81.9557 243.726C81.9557 242.397 82.8295 241.58 84.0071 241.58C85.1848 241.58 86.0396 242.397 86.0396 243.707C86.0396 245.056 85.1848 245.854 84.0071 245.854ZM84.0071 239.547C81.4618 239.547 79.5623 241.276 79.5623 243.707C79.5623 246.177 81.4618 247.905 84.0071 247.905C86.5335 247.905 88.414 246.177 88.414 243.707C88.414 241.276 86.5335 239.547 84.0071 239.547ZM85.2418 234.286H82.7345V236.565H78.8595V238.56H89.0408V236.565H85.2418V234.286ZM95.1953 240.82H92.6879V233.982H90.1806V251.476H92.6879V242.89H95.1953V240.82ZM110.048 245.531C110.751 241.808 110.751 239.338 110.751 237.154V235.482H98.043V237.477H108.243C108.243 239.509 108.205 241.941 107.541 245.246L110.048 245.531ZM104.539 247.354V241.333H102.032V247.354H96.4475V249.368H112.27V247.354H104.539ZM129.603 241.523C128.938 241.599 128.235 241.675 127.533 241.713C127.97 239.243 127.97 237.42 127.97 236.166V235.178H119.536V237.173H125.481C125.462 238.351 125.367 239.889 124.987 241.865C122.613 241.979 120.22 241.998 118.111 241.998L118.434 244.03C119.688 244.03 121.055 244.011 122.48 243.973V250.545H124.987V243.84C126.564 243.745 128.197 243.612 129.774 243.365L129.603 241.523ZM130.591 233.963V251.457H133.098V233.963H130.591ZM144.874 242.985C144.95 242.511 144.988 241.979 144.988 241.428C144.988 240.763 144.931 240.136 144.817 239.566H147.856V242.985H144.874ZM140.467 245.417C139.194 245.417 138.32 244.03 138.32 241.428C138.32 238.844 139.194 237.458 140.467 237.458C141.758 237.458 142.632 238.844 142.632 241.428C142.632 244.03 141.758 245.417 140.467 245.417ZM147.856 233.963V237.553H144.133C143.354 236.052 142.043 235.197 140.467 235.197C137.864 235.197 135.946 237.591 135.946 241.428C135.946 245.284 137.864 247.696 140.467 247.696C142.157 247.715 143.506 246.727 144.285 245.018H147.856V251.514H150.363V233.963H147.856ZM161.056 236.299C163.278 236.299 164.646 236.85 164.646 237.933C164.646 239.015 163.278 239.566 161.056 239.566C158.872 239.566 157.485 239.015 157.485 237.933C157.485 236.85 158.872 236.299 161.056 236.299ZM161.056 241.561C164.836 241.561 167.343 240.155 167.343 237.933C167.343 235.729 164.836 234.305 161.056 234.305C157.295 234.305 154.769 235.729 154.769 237.933C154.769 240.155 157.295 241.561 161.056 241.561ZM157.542 245.93H154.997V251.172H167.267V249.178H157.542V245.93ZM153.154 242.473V244.467H159.935V247.468H162.5V244.467H168.996V242.473H153.154Z" fill="white"/>
<path d="M7.24023 206.843L205.155 206.843" stroke="white" stroke-width="1.58292" stroke-linecap="round" stroke-linejoin="round"/>
<path d="M130.297 134.287C139.643 126.322 144.424 117.018 141.169 112.126C138.593 108.256 131.66 108.153 123.589 111.232C122.161 107.3 119.238 102.775 115.171 98.617C107.151 90.4167 97.7323 86.7507 94.1342 90.4298C92.2089 92.3984 92.3425 96.072 94.1103 100.316C81.9932 99.1902 72.1792 102.311 71.0978 108.125C69.8503 114.829 80.6869 122.569 95.3029 125.412C97.5311 125.847 99.7819 126.15 102.044 126.319C96.8605 132.297 94.4599 138.312 96.1428 142.204C97.142 146.979 105.91 150.713 116.582 150.713C127.925 150.713 137.119 146.495 137.119 141.293C137.118 138.512 134.483 136.011 130.297 134.287Z" fill="white"/>
</svg>
