<svg width="214" height="277" viewBox="0 0 214 277" fill="none" xmlns="http://www.w3.org/2000/svg">
<rect x="0.44043" width="213" height="277" fill="#FAAA6B"/>
<path d="M63.2106 29.7651C66.7985 29.7651 69.5592 30.8984 71.4928 33.165C73.4264 35.4316 74.3932 38.5684 74.3932 42.5752C74.3932 44.2725 74.0924 45.8677 73.4908 47.3608C72.8893 48.854 72.0782 50.1216 71.0577 51.1636C70.0372 52.2056 68.8341 53.0273 67.4484 53.6289C66.0734 54.2197 64.6285 54.5151 63.1139 54.5151C61.524 54.5151 60.047 54.2358 58.6827 53.6772C57.3185 53.1079 56.1315 52.3022 55.1217 51.2603C54.1227 50.2183 53.3385 48.9077 52.7692 47.3286C52.1998 45.7388 51.9152 43.9771 51.9152 42.0435C51.9152 40.3354 52.2159 38.7188 52.8175 37.1934C53.4298 35.668 54.2408 34.3682 55.2506 33.2939C56.2711 32.209 57.4742 31.3496 58.86 30.7158C60.2457 30.082 61.6959 29.7651 63.2106 29.7651ZM54.6222 41.8823C54.6222 43.4614 54.7887 44.9116 55.1217 46.2329C55.4655 47.5435 55.922 48.6499 56.4913 49.5522C57.0607 50.4546 57.7267 51.2173 58.4894 51.8403C59.2628 52.4634 60.0738 52.9199 60.9225 53.21C61.7711 53.4893 62.652 53.6289 63.5651 53.6289C64.8863 53.6289 66.068 53.3389 67.11 52.7588C68.1627 52.1787 69.0167 51.3892 69.672 50.3901C70.3273 49.3804 70.8268 48.2256 71.1705 46.9258C71.5143 45.626 71.6862 44.2295 71.6862 42.7363C71.6862 40.792 71.4391 39.041 70.9449 37.4834C70.4615 35.9258 69.8063 34.6689 68.9791 33.7129C68.152 32.7461 67.212 32.0103 66.1593 31.5054C65.1173 31.0005 64.0109 30.748 62.84 30.748C61.5187 30.748 60.3263 31.0542 59.2628 31.6665C58.2101 32.2681 57.3507 33.0845 56.6847 34.1157C56.0187 35.147 55.5084 36.3286 55.1539 37.6606C54.7994 38.9819 54.6222 40.3892 54.6222 41.8823ZM80.4357 41.9146C80.4357 41.1948 80.3981 40.5933 80.3229 40.1099C80.2584 39.6265 80.1349 39.2397 79.9523 38.9497C79.7804 38.6597 79.5387 38.4556 79.2272 38.3374C78.9156 38.2192 78.3732 38.1655 77.5997 38.1763L77.5353 37.8862C79.2863 37.3599 80.9137 37.0967 82.4176 37.0967C82.6432 37.666 82.756 38.2783 82.756 38.9336V40.9155L82.8204 40.98C83.2716 40.3569 83.7013 39.8037 84.1095 39.3203C84.5284 38.8369 84.9528 38.4341 85.3824 38.1118C85.8121 37.7896 86.2633 37.5479 86.736 37.3867C87.2086 37.2148 87.735 37.1289 88.3151 37.1289C88.6803 37.1289 89.0831 37.1611 89.5236 37.2256L88.589 41.1572L87.9928 40.98C87.9928 40.8188 87.9821 40.5986 87.9606 40.3193C87.9391 40.04 87.9069 39.7661 87.8639 39.4976C87.8317 39.2183 87.7833 38.9819 87.7189 38.7886C87.6652 38.5845 87.6007 38.4824 87.5255 38.4824C87.214 38.4824 86.8971 38.5522 86.5748 38.6919C86.2633 38.8208 85.9196 39.0356 85.5436 39.3364C85.1676 39.6372 84.754 40.0293 84.3029 40.5127C83.8517 40.9961 83.3361 41.5815 82.756 42.269V51.647C82.756 51.9907 82.7828 52.27 82.8365 52.4849C82.8903 52.689 83.003 52.8608 83.1749 53.0005C83.3468 53.1401 83.5885 53.2637 83.9 53.3711C84.2115 53.4785 84.6197 53.5967 85.1246 53.7256L84.9957 54.1123C84.3727 54.0264 83.8409 53.9619 83.4005 53.9189C82.9708 53.876 82.6217 53.8545 82.3531 53.8545C81.7408 53.8545 81.0265 53.9404 80.2101 54.1123L80.1134 53.9512C80.3282 53.6396 80.4357 53.0703 80.4357 52.2432V41.9146ZM104.042 52.0337C104.042 52.2163 104.079 52.3882 104.154 52.5493C104.24 52.6997 104.337 52.8286 104.444 52.936C104.563 53.0327 104.729 53.1294 104.944 53.2261C105.159 53.3228 105.347 53.3979 105.508 53.4517C105.669 53.5054 105.895 53.5752 106.185 53.6611L106.056 54.0479C105.368 53.9189 104.686 53.8545 104.009 53.8545C103.161 53.8545 102.323 53.9404 101.496 54.1123L101.399 53.9512C101.625 53.6396 101.737 53.0703 101.737 52.2432V51.1797C101.2 52.1787 100.362 52.9844 99.2238 53.5967C98.0958 54.209 96.9518 54.5151 95.7916 54.5151C94.5563 54.5151 93.5572 54.1982 92.7946 53.5645C92.0426 52.9199 91.6666 51.9692 91.6666 50.7124C91.6666 49.896 91.8331 49.1709 92.1661 48.5371C92.5099 47.8926 92.9611 47.3501 93.5196 46.9097C94.089 46.4585 94.8141 46.061 95.6949 45.7173C96.5865 45.3735 97.4996 45.0942 98.4342 44.8794C99.3795 44.6646 100.481 44.4658 101.737 44.2832V42.8008C101.737 39.8467 100.572 38.3696 98.2408 38.3696C97.4889 38.3696 96.5651 38.5576 95.4694 38.9336C94.3844 39.2988 93.4713 39.7822 92.7301 40.3838L92.0695 39.6265C93.004 38.8853 94.1105 38.2729 95.3888 37.7896C96.6779 37.3062 97.881 37.0645 98.9982 37.0645C99.4923 37.0645 99.9596 37.1128 100.4 37.2095C100.851 37.2954 101.302 37.4619 101.754 37.709C102.215 37.9453 102.608 38.2515 102.93 38.6274C103.263 38.9927 103.531 39.4868 103.735 40.1099C103.94 40.7222 104.042 41.4204 104.042 42.2046V52.0337ZM96.5489 53.2905C97.4835 53.2905 98.4611 52.9844 99.4816 52.3721C100.502 51.749 101.254 50.9756 101.737 50.0518V45.1372C98.9874 45.5347 97.0216 46.147 95.84 46.9741C94.6691 47.7905 94.0836 48.9829 94.0836 50.5513C94.0836 51.5073 94.2877 52.2056 94.6959 52.646C95.1041 53.0757 95.7218 53.2905 96.5489 53.2905ZM111.405 41.9146C111.405 41.1948 111.368 40.5933 111.293 40.1099C111.228 39.6265 111.105 39.2397 110.922 38.9497C110.75 38.6597 110.508 38.4556 110.197 38.3374C109.885 38.2192 109.552 38.1602 109.198 38.1602C108.854 38.1602 108.645 38.1655 108.569 38.1763L108.505 37.8862C110.256 37.3599 111.883 37.0967 113.387 37.0967C113.613 37.666 113.726 38.2783 113.726 38.9336V39.4009C114.349 38.9819 114.923 38.6167 115.45 38.3052C115.976 37.9937 116.492 37.7305 116.997 37.5156C117.512 37.3008 118.039 37.1396 118.576 37.0322C119.113 36.9248 119.704 36.8711 120.348 36.8711C120.928 36.8711 121.503 36.9463 122.072 37.0967C122.652 37.2471 123.168 37.5156 123.619 37.9023C124.081 38.2891 124.452 38.8154 124.731 39.4814C125.021 40.1475 125.166 40.9907 125.166 42.0112V52.0337C125.166 52.2915 125.225 52.5063 125.343 52.6782C125.472 52.8501 125.633 52.9951 125.827 53.1133C126.031 53.2314 126.262 53.3335 126.52 53.4194C126.777 53.4946 127.046 53.5752 127.325 53.6611L127.18 54.0479C126.579 53.9189 125.778 53.8545 124.779 53.8545C124.167 53.8545 123.453 53.9404 122.636 54.1123L122.54 53.9512C122.755 53.6396 122.862 53.0703 122.862 52.2432V42.6074C122.862 41.7051 122.776 40.9692 122.604 40.3999C122.432 39.8198 122.196 39.3687 121.895 39.0464C121.605 38.7134 121.261 38.4824 120.864 38.3535C120.477 38.2246 120.064 38.1602 119.623 38.1602C119.086 38.1602 118.581 38.2085 118.109 38.3052C117.647 38.4019 117.179 38.5522 116.707 38.7563C116.245 38.9497 115.772 39.1968 115.289 39.4976C114.805 39.7876 114.284 40.1313 113.726 40.5288V51.647C113.726 51.9907 113.753 52.27 113.806 52.4849C113.86 52.689 113.973 52.8608 114.145 53.0005C114.317 53.1401 114.558 53.2637 114.87 53.3711C115.181 53.4785 115.589 53.5967 116.094 53.7256L115.965 54.1123C115.342 54.0264 114.811 53.9619 114.37 53.9189C113.941 53.876 113.591 53.8545 113.323 53.8545C112.711 53.8545 111.996 53.9404 111.18 54.1123L111.083 53.9512C111.298 53.6396 111.405 53.0703 111.405 52.2432V41.9146ZM145.227 57.9473C145.227 59.0215 144.824 59.9722 144.019 60.7993C143.224 61.6372 142.193 62.2656 140.925 62.6846C139.657 63.1143 138.288 63.3291 136.816 63.3291C135.688 63.3291 134.673 63.1787 133.771 62.8779C132.868 62.5771 132.122 62.0776 131.531 61.3794C130.94 60.6812 130.645 59.8325 130.645 58.8335C130.645 57.7915 131.101 56.8247 132.014 55.9331C132.927 55.0415 134.13 54.2842 135.624 53.6611C134.27 53.3604 133.298 53.0327 132.707 52.6782C132.116 52.313 131.821 51.749 131.821 50.9863C131.821 50.3096 132.03 49.7671 132.449 49.3589C132.868 48.9399 133.583 48.6016 134.592 48.3438C133.411 47.9785 132.487 47.3501 131.821 46.4585C131.166 45.5669 130.838 44.4121 130.838 42.9941C130.838 41.9629 131.139 40.9907 131.74 40.0776C132.353 39.1646 133.153 38.4395 134.141 37.9023C135.14 37.3652 136.182 37.0967 137.267 37.0967C138.513 37.0967 139.614 37.29 140.57 37.6768L145.856 37.0967L145.984 37.6445L144.824 38.8369L141.956 38.5791C143.063 39.5674 143.616 40.9961 143.616 42.8652C143.616 43.8105 143.331 44.729 142.762 45.6206C142.193 46.5122 141.408 47.2427 140.409 47.812C139.41 48.3813 138.341 48.666 137.203 48.666C135.656 48.9346 134.662 49.1709 134.222 49.375C133.792 49.5791 133.577 49.9067 133.577 50.3579C133.577 50.6265 133.873 50.8896 134.464 51.1475C135.054 51.3945 136.22 51.7383 137.96 52.1787C138.755 52.3721 139.426 52.5493 139.974 52.7104C140.522 52.8608 141.07 53.0381 141.618 53.2422C142.166 53.4355 142.611 53.6343 142.955 53.8384C143.31 54.0425 143.643 54.2788 143.954 54.5474C144.276 54.8267 144.518 55.1274 144.679 55.4497C144.851 55.7827 144.985 56.1533 145.082 56.5615C145.179 56.9697 145.227 57.4316 145.227 57.9473ZM137.799 54.0801L137.138 53.9189C135.785 54.4238 134.716 55.106 133.932 55.9653C133.148 56.8247 132.755 57.6948 132.755 58.5757C132.755 59.1987 132.922 59.7466 133.255 60.2192C133.599 60.7026 134.055 61.0786 134.625 61.3472C135.194 61.6157 135.801 61.8145 136.445 61.9434C137.09 62.0723 137.761 62.1367 138.46 62.1367C141.607 62.1367 143.181 60.9067 143.181 58.4468C143.181 57.2544 142.73 56.3252 141.827 55.6592C140.936 54.9932 139.593 54.4668 137.799 54.0801ZM136.607 38.2407C135.253 38.2407 134.313 38.5898 133.787 39.2881C133.271 39.9756 133.013 41.125 133.013 42.7363C133.013 43.4883 133.131 44.1597 133.368 44.7505C133.615 45.3306 133.921 45.7925 134.286 46.1362C134.651 46.4692 135.076 46.7485 135.559 46.9741C136.053 47.189 136.51 47.334 136.929 47.4092C137.359 47.4844 137.783 47.522 138.202 47.522C139.297 47.522 140.109 47.1299 140.635 46.3457C141.161 45.5615 141.424 44.4873 141.424 43.123C141.424 42.3389 141.301 41.646 141.054 41.0444C140.818 40.4321 140.522 39.9595 140.168 39.6265C139.824 39.2827 139.421 39.0034 138.959 38.7886C138.497 38.563 138.078 38.418 137.702 38.3535C137.326 38.2783 136.961 38.2407 136.607 38.2407ZM148.45 46.0073C148.45 44.8687 148.638 43.7676 149.014 42.7041C149.39 41.6299 149.927 40.6792 150.625 39.8521C151.323 39.0142 152.167 38.3481 153.155 37.854C154.154 37.3491 155.271 37.0967 156.506 37.0967C157.28 37.0967 158.01 37.231 158.698 37.4995C159.385 37.7573 159.982 38.1655 160.486 38.7241C161.002 39.272 161.405 39.981 161.695 40.8511C161.996 41.7104 162.146 42.7363 162.146 43.9287L161.518 44.5088H150.996C150.974 44.6914 150.964 44.8687 150.964 45.0405C150.964 45.2124 150.964 45.3843 150.964 45.5562C150.964 46.7271 151.098 47.7905 151.366 48.7466C151.646 49.7026 152.016 50.5244 152.478 51.2119C152.951 51.8887 153.504 52.415 154.138 52.791C154.772 53.167 155.443 53.355 156.152 53.355C156.603 53.355 157.06 53.3228 157.522 53.2583C157.994 53.1831 158.451 53.0703 158.891 52.9199C159.342 52.7695 159.777 52.5762 160.196 52.3398C160.615 52.1035 161.002 51.8188 161.357 51.4858L162.017 52.1787C161.169 53.0166 160.245 53.6128 159.246 53.9673C158.247 54.3325 157.092 54.5151 155.781 54.5151C154.75 54.5151 153.783 54.3164 152.881 53.9189C151.989 53.5215 151.216 52.9521 150.561 52.2109C149.905 51.4697 149.39 50.5781 149.014 49.5361C148.638 48.4834 148.45 47.3071 148.45 46.0073ZM156.152 38.2085C154.487 38.2085 153.268 38.6436 152.494 39.5137C151.721 40.373 151.254 41.6138 151.092 43.2358H160.068C159.982 41.4741 159.584 40.1958 158.875 39.4009C158.177 38.606 157.269 38.2085 156.152 38.2085Z" fill="white"/>
<path d="M70.5125 235.33H67.9861V237.876C67.9861 241.124 66.6565 244.467 63.7123 245.854L65.2129 247.886C67.1884 246.917 68.499 245.075 69.2588 242.852C69.9806 244.942 71.2153 246.632 73.0388 247.563L74.5585 245.588C71.7472 244.201 70.5125 241.029 70.5125 237.876V235.33ZM80.314 240.706H77.7686V233.982H75.2613V251.476H77.7686V242.795H80.314V240.706ZM82.174 238.408V243.802H83.6746C87.1697 243.802 89.3921 243.726 91.8235 243.27L91.6146 241.257C89.4301 241.656 87.5116 241.77 84.6624 241.789V240.269H90.1329V235.007H82.155V237.021H87.6636V238.408H82.174ZM89.5631 249.577C87.2837 249.577 86.106 249.14 86.106 248.171C86.106 247.202 87.2837 246.765 89.5631 246.765C91.8425 246.765 93.0202 247.202 93.0202 248.171C93.0202 249.14 91.8425 249.577 89.5631 249.577ZM89.5631 244.847C85.916 244.847 83.6366 246.063 83.6366 248.171C83.6366 250.261 85.916 251.495 89.5631 251.495C93.2102 251.495 95.4896 250.261 95.4896 248.171C95.4896 246.063 93.2102 244.847 89.5631 244.847ZM95.3186 238.066V234.001H92.8113V244.486H95.3186V240.117H97.636V238.066H95.3186ZM114.312 242.207C110.361 241.542 108.196 238.825 108.196 236.261V235.007H105.517V236.261C105.517 238.769 103.333 241.542 99.4011 242.207L100.465 244.315C103.504 243.726 105.726 242.017 106.847 239.794C107.968 242.017 110.209 243.707 113.248 244.315L114.312 242.207ZM99.0212 247.316V249.349H114.863V247.316H99.0212ZM119.572 242.017H124.948V235.463H117.065V237.458H122.46V240.06H117.103V247.468H118.547C121.453 247.468 123.77 247.373 126.373 246.955L126.145 244.923C123.941 245.284 121.947 245.398 119.572 245.417V242.017ZM128.614 233.963V240.269H125.879V242.302H128.614V251.514H131.14V233.963H128.614ZM141.871 236.299C144.094 236.299 145.461 236.85 145.461 237.933C145.461 239.015 144.094 239.566 141.871 239.566C139.687 239.566 138.3 239.015 138.3 237.933C138.3 236.85 139.687 236.299 141.871 236.299ZM141.871 241.561C145.651 241.561 148.159 240.155 148.159 237.933C148.159 235.729 145.651 234.305 141.871 234.305C138.11 234.305 135.584 235.729 135.584 237.933C135.584 240.155 138.11 241.561 141.871 241.561ZM138.357 245.93H135.812V251.172H148.083V249.178H138.357V245.93ZM133.969 242.473V244.467H140.75V247.468H143.315V244.467H149.811V242.473H133.969Z" fill="white"/>
<path d="M7.68115 206.843L205.596 206.843" stroke="white" stroke-width="1.58292" stroke-linecap="round" stroke-linejoin="round"/>
<path d="M131.84 123.532C127.642 119.312 121.076 118.924 116.442 122.368C124.383 113.097 123.988 99.0943 115.243 90.3028C106.221 81.2315 91.6866 81.0934 82.4884 89.8804C82.3391 90.0165 82.1897 90.1576 82.0464 90.3028C77.4234 94.9511 77.4234 102.488 82.0464 107.137C86.2442 111.357 92.8106 111.745 97.4441 108.3C89.5033 117.572 89.8985 131.574 98.6433 140.366C107.665 149.437 122.2 149.576 131.398 140.788C131.548 140.652 131.695 140.511 131.84 140.366C136.466 135.719 136.466 128.182 131.84 123.532ZM98.7911 107.137L115.1 123.532L98.7911 107.137Z" fill="white"/>
</svg>
