<svg width="213" height="277" viewBox="0 0 213 277" fill="none" xmlns="http://www.w3.org/2000/svg">
<rect width="213" height="277" fill="#FFB8BC"/>
<path d="M79.4453 32.811V51.0996C79.4453 51.9697 79.6226 52.6035 79.9771 53.001C80.3315 53.3984 81.0029 53.6885 81.9912 53.8711L81.8462 54.2578C80.6216 54.0859 79.6548 54 78.9458 54C78.312 54 77.5762 54.0859 76.7383 54.2578L76.6416 54.0967C76.8564 53.7852 76.9639 53.2158 76.9639 52.3887V35.4536C76.9639 33.9282 76.7866 32.9292 76.4321 32.4565C76.0884 31.9731 75.3203 31.7314 74.1279 31.7314L74.0635 31.2642C77.0498 30.8237 79.4507 30.6035 81.2661 30.6035C82.5122 30.6035 83.6133 30.6948 84.5693 30.8774C85.5361 31.0601 86.4062 31.3662 87.1797 31.7959C87.9531 32.2148 88.5439 32.8003 88.9521 33.5522C89.3711 34.3042 89.5806 35.2119 89.5806 36.2754C89.5806 37.4463 89.1992 38.5151 88.4365 39.4819C87.6846 40.438 86.7446 41.1685 85.6167 41.6733C84.4995 42.1675 83.3555 42.4146 82.1846 42.4146C81.7227 42.4146 81.3789 42.3931 81.1533 42.3501V41.7861C81.9697 41.7861 82.7217 41.6787 83.4092 41.4639C84.1074 41.249 84.7251 40.9268 85.2622 40.4971C85.8101 40.0674 86.2344 39.5034 86.5352 38.8052C86.8467 38.0962 87.0024 37.2852 87.0024 36.3721C87.0024 34.9004 86.6318 33.7349 85.8906 32.8755C85.1494 32.0161 83.9893 31.5864 82.4102 31.5864C81.25 31.5864 80.2295 31.6562 79.3486 31.7959C79.4131 32.1182 79.4453 32.4565 79.4453 32.811ZM94.7852 42.0601C94.7852 40.5347 94.6025 39.5142 94.2373 38.9985C93.8828 38.4722 93.1201 38.2466 91.9492 38.3218L91.8848 38.0317C93.6572 37.5054 95.2847 37.2422 96.7671 37.2422C96.9927 37.8008 97.1055 38.4131 97.1055 39.0791V51.0996C97.1055 51.9482 97.3042 52.5767 97.7017 52.9849C98.0991 53.3931 98.8027 53.6885 99.8125 53.8711L99.6836 54.2578C98.4482 54.0859 97.4922 54 96.8154 54C96.1494 54 95.3975 54.0859 94.5596 54.2578L94.4629 54.0967C94.6777 53.7852 94.7852 53.2158 94.7852 52.3887V42.0601ZM93.1416 31.2642C94.1621 30.6733 95.3169 30.1792 96.606 29.7817C96.606 30.6733 96.751 31.5542 97.041 32.4243L96.8315 32.7144C95.811 32.7788 94.7476 33.0635 93.6411 33.5684C93.3726 32.8271 93.2061 32.0591 93.1416 31.2642ZM104.356 42.0601C104.356 41.3403 104.319 40.7388 104.244 40.2554C104.179 39.772 104.056 39.3853 103.873 39.0952C103.701 38.8052 103.459 38.6011 103.148 38.4829C102.836 38.3647 102.503 38.3057 102.149 38.3057C101.805 38.3057 101.596 38.311 101.521 38.3218L101.456 38.0317C103.207 37.5054 104.834 37.2422 106.338 37.2422C106.564 37.8115 106.677 38.4238 106.677 39.0791V39.5464C107.3 39.1274 107.875 38.7622 108.401 38.4507C108.927 38.1392 109.443 37.876 109.948 37.6611C110.463 37.4463 110.99 37.2852 111.527 37.1777C112.064 37.0703 112.655 37.0166 113.299 37.0166C113.879 37.0166 114.454 37.0918 115.023 37.2422C115.604 37.3926 116.119 37.6611 116.57 38.0479C117.032 38.4346 117.403 38.9609 117.682 39.627C117.972 40.293 118.117 41.1362 118.117 42.1567V52.1792C118.117 52.437 118.176 52.6519 118.294 52.8237C118.423 52.9956 118.584 53.1406 118.778 53.2588C118.982 53.377 119.213 53.479 119.471 53.5649C119.729 53.6401 119.997 53.7207 120.276 53.8066L120.131 54.1934C119.53 54.0645 118.729 54 117.73 54C117.118 54 116.404 54.0859 115.587 54.2578L115.491 54.0967C115.706 53.7852 115.813 53.2158 115.813 52.3887V42.7529C115.813 41.8506 115.727 41.1147 115.555 40.5454C115.383 39.9653 115.147 39.5142 114.846 39.1919C114.556 38.8589 114.212 38.6279 113.815 38.499C113.428 38.3701 113.015 38.3057 112.574 38.3057C112.037 38.3057 111.532 38.354 111.06 38.4507C110.598 38.5474 110.13 38.6978 109.658 38.9019C109.196 39.0952 108.723 39.3423 108.24 39.6431C107.756 39.9331 107.235 40.2769 106.677 40.6743V51.7925C106.677 52.1362 106.704 52.4155 106.757 52.6304C106.811 52.8345 106.924 53.0063 107.096 53.146C107.268 53.2856 107.509 53.4092 107.821 53.5166C108.132 53.624 108.541 53.7422 109.045 53.8711L108.917 54.2578C108.293 54.1719 107.762 54.1074 107.321 54.0645C106.892 54.0215 106.542 54 106.274 54C105.662 54 104.947 54.0859 104.131 54.2578L104.034 54.0967C104.249 53.7852 104.356 53.2158 104.356 52.3887V42.0601ZM125.497 33.085C125.497 31.5596 125.314 30.5391 124.949 30.0234C124.595 29.4971 123.832 29.2715 122.661 29.3467L122.597 29.0566C124.369 28.5303 125.997 28.2671 127.479 28.2671C127.705 28.8257 127.817 29.438 127.817 30.104V51.0996C127.817 51.9482 128.016 52.5767 128.414 52.9849C128.811 53.3931 129.515 53.6885 130.524 53.8711L130.396 54.2578C129.16 54.0859 128.167 54 127.415 54C126.824 54 126.109 54.0859 125.271 54.2578L125.175 54.0967C125.39 53.7852 125.497 53.2158 125.497 52.3887V33.085ZM135.068 53.2427L129.106 45.3955V45.0249L135.068 39.0146C135.369 38.6816 135.256 38.4292 134.73 38.2573C134.257 38.0962 133.581 38.0532 132.7 38.1284L132.603 37.7256C133.978 37.4463 135.573 37.2852 137.389 37.2422L137.646 37.7256L130.943 44.4287C135.111 49.6602 137.437 52.4531 137.92 52.8076C138.404 53.1514 139.005 53.4038 139.725 53.5649L139.693 54.0645C137.931 53.9355 136.599 54 135.697 54.2578L135.471 54.1289C135.493 53.8926 135.358 53.5972 135.068 53.2427Z" fill="white"/>
<path d="M70.0716 235.33H67.5452V237.876C67.5452 241.124 66.2156 244.467 63.2713 245.854L64.7719 247.886C66.7474 246.917 68.0581 245.075 68.8179 242.852C69.5397 244.942 70.7744 246.632 72.5979 247.563L74.1175 245.588C71.3063 244.201 70.0716 241.029 70.0716 237.876V235.33ZM79.873 240.706H77.3277V233.982H74.8204V251.476H77.3277V242.795H79.873V240.706ZM81.7331 238.408V243.802H83.2337C86.7288 243.802 88.9512 243.726 91.3826 243.27L91.1736 241.257C88.9892 241.656 87.0707 241.77 84.2214 241.789V240.269H89.692V235.007H81.7141V237.021H87.2227V238.408H81.7331ZM89.1222 249.577C86.8428 249.577 85.6651 249.14 85.6651 248.171C85.6651 247.202 86.8428 246.765 89.1222 246.765C91.4016 246.765 92.5793 247.202 92.5793 248.171C92.5793 249.14 91.4016 249.577 89.1222 249.577ZM89.1222 244.847C85.4751 244.847 83.1957 246.063 83.1957 248.171C83.1957 250.261 85.4751 251.495 89.1222 251.495C92.7692 251.495 95.0486 250.261 95.0486 248.171C95.0486 246.063 92.7692 244.847 89.1222 244.847ZM94.8777 238.066V234.001H92.3703V244.486H94.8777V240.117H97.1951V238.066H94.8777ZM113.871 242.207C109.92 241.542 107.755 238.825 107.755 236.261V235.007H105.077V236.261C105.077 238.769 102.892 241.542 98.9601 242.207L100.024 244.315C103.063 243.726 105.286 242.017 106.406 239.794C107.527 242.017 109.768 243.707 112.808 244.315L113.871 242.207ZM98.5802 247.316V249.349H114.422V247.316H98.5802ZM119.131 242.017H124.507V235.463H116.624V237.458H122.019V240.06H116.662V247.468H118.106C121.012 247.468 123.329 247.373 125.932 246.955L125.704 244.923C123.5 245.284 121.506 245.398 119.131 245.417V242.017ZM128.173 233.963V240.269H125.438V242.302H128.173V251.514H130.699V233.963H128.173ZM141.43 236.299C143.653 236.299 145.02 236.85 145.02 237.933C145.02 239.015 143.653 239.566 141.43 239.566C139.246 239.566 137.859 239.015 137.859 237.933C137.859 236.85 139.246 236.299 141.43 236.299ZM141.43 241.561C145.21 241.561 147.718 240.155 147.718 237.933C147.718 235.729 145.21 234.305 141.43 234.305C137.669 234.305 135.143 235.729 135.143 237.933C135.143 240.155 137.669 241.561 141.43 241.561ZM137.916 245.93H135.371V251.172H147.642V249.178H137.916V245.93ZM133.528 242.473V244.467H140.31V247.468H142.874V244.467H149.37V242.473H133.528Z" fill="white"/>
<path d="M7.24023 206.843L205.155 206.843" stroke="white" stroke-width="1.58292" stroke-linecap="round" stroke-linejoin="round"/>
<path d="M130.297 134.287C139.643 126.322 144.424 117.018 141.169 112.126C138.593 108.256 131.66 108.153 123.589 111.232C122.161 107.3 119.238 102.775 115.171 98.617C107.151 90.4167 97.7323 86.7507 94.1342 90.4298C92.2089 92.3984 92.3425 96.072 94.1103 100.316C81.9932 99.1902 72.1792 102.311 71.0978 108.125C69.8503 114.829 80.6869 122.569 95.3029 125.412C97.5311 125.847 99.7819 126.15 102.044 126.319C96.8605 132.297 94.4599 138.312 96.1428 142.204C97.142 146.979 105.91 150.713 116.582 150.713C127.925 150.713 137.119 146.495 137.119 141.293C137.118 138.512 134.483 136.011 130.297 134.287Z" fill="white"/>
</svg>
