<svg width="213" height="277" viewBox="0 0 213 277" fill="none" xmlns="http://www.w3.org/2000/svg">
<rect width="213" height="277" fill="#87698F"/>
<path d="M63.1709 32.811V51.0996C63.1709 51.9697 63.3481 52.6035 63.7026 53.001C64.0571 53.3984 64.7285 53.6885 65.7168 53.8711L65.5718 54.2578C64.3472 54.0859 63.3804 54 62.6714 54C62.0376 54 61.3018 54.0859 60.4639 54.2578L60.3672 54.0967C60.582 53.7852 60.6895 53.2158 60.6895 52.3887V35.4536C60.6895 33.9282 60.5122 32.9292 60.1577 32.4565C59.814 31.9731 59.0459 31.7314 57.8535 31.7314L57.7891 31.2642C60.7754 30.8237 63.1763 30.6035 64.9917 30.6035C66.2378 30.6035 67.3389 30.6948 68.2949 30.8774C69.2617 31.0601 70.1318 31.3662 70.9053 31.7959C71.6787 32.2148 72.2695 32.8003 72.6777 33.5522C73.0967 34.3042 73.3062 35.2119 73.3062 36.2754C73.3062 37.4463 72.9248 38.5151 72.1621 39.4819C71.4102 40.438 70.4702 41.1685 69.3423 41.6733C68.2251 42.1675 67.0811 42.4146 65.9102 42.4146C65.4482 42.4146 65.1045 42.3931 64.8789 42.3501V41.7861C65.6953 41.7861 66.4473 41.6787 67.1348 41.4639C67.833 41.249 68.4507 40.9268 68.9878 40.4971C69.5356 40.0674 69.96 39.5034 70.2607 38.8052C70.5723 38.0962 70.728 37.2852 70.728 36.3721C70.728 34.9004 70.3574 33.7349 69.6162 32.8755C68.875 32.0161 67.7148 31.5864 66.1357 31.5864C64.9756 31.5864 63.9551 31.6562 63.0742 31.7959C63.1387 32.1182 63.1709 32.4565 63.1709 32.811ZM91.5142 49.5044C91.5142 50.2241 91.5464 50.8257 91.6108 51.3091C91.686 51.7817 91.8096 52.1631 91.9814 52.4531C92.1641 52.7432 92.4111 52.9526 92.7227 53.0815C93.0342 53.1997 93.3618 53.2588 93.7056 53.2588C94.0493 53.2588 94.2642 53.2534 94.3501 53.2427L94.4307 53.5327C92.6582 54.0591 91.0254 54.3223 89.5322 54.3223C89.3174 53.7422 89.21 53.1299 89.21 52.4854V51.728C88.6406 52.2329 88.1089 52.668 87.6147 53.0332C87.1313 53.3984 86.6533 53.7046 86.1807 53.9517C85.708 54.188 85.2246 54.3652 84.7305 54.4834C84.2363 54.6016 83.7046 54.6606 83.1353 54.6606C82.4907 54.6606 81.8462 54.5854 81.2017 54.4351C80.5679 54.2847 79.9932 54.0161 79.4775 53.6294C78.9619 53.2427 78.543 52.7163 78.2207 52.0503C77.9092 51.3843 77.7534 50.5356 77.7534 49.5044V39.5464C77.7534 39.1167 77.5708 38.7891 77.2056 38.5635C76.8511 38.3379 76.3193 38.1284 75.6104 37.9351L75.7393 37.5322C76.3623 37.6611 77.168 37.7256 78.1562 37.7256C78.7686 37.7256 79.4829 37.6396 80.2993 37.4678L80.396 37.6289C80.1812 37.9619 80.0737 38.5366 80.0737 39.353V48.9243C80.0737 49.8159 80.1758 50.5518 80.3799 51.1318C80.584 51.7012 80.8579 52.1523 81.2017 52.4854C81.5454 52.8184 81.9482 53.0493 82.4102 53.1782C82.8721 53.2964 83.3608 53.3555 83.8765 53.3555C84.3599 53.3555 84.8057 53.3071 85.2139 53.2104C85.6328 53.103 86.0518 52.9419 86.4707 52.7271C86.8896 52.5015 87.3193 52.2168 87.7598 51.873C88.2002 51.5186 88.6836 51.0942 89.21 50.6001V39.9492C89.21 39.6162 89.1777 39.3477 89.1133 39.1436C89.0596 38.9287 88.9468 38.7515 88.7749 38.6118C88.6138 38.4614 88.3774 38.3325 88.0659 38.2251C87.7544 38.1177 87.3462 37.9995 86.8413 37.8706L86.9702 37.4678C87.5825 37.5537 88.1089 37.6182 88.5493 37.6611C88.9897 37.7041 89.3442 37.7256 89.6128 37.7256C90.2251 37.7256 90.9395 37.6396 91.7559 37.4678L91.8525 37.6289C91.627 37.9512 91.5142 38.5259 91.5142 39.353V49.5044ZM99.6514 42.0601C99.6514 41.3403 99.6138 40.7388 99.5386 40.2554C99.4741 39.772 99.3506 39.3853 99.168 39.0952C98.9961 38.8052 98.7544 38.6011 98.4429 38.4829C98.1313 38.3647 97.5889 38.311 96.8154 38.3218L96.751 38.0317C98.502 37.5054 100.129 37.2422 101.633 37.2422C101.859 37.8115 101.972 38.4238 101.972 39.0791V41.061L102.036 41.1255C102.487 40.5024 102.917 39.9492 103.325 39.4658C103.744 38.9824 104.168 38.5796 104.598 38.2573C105.028 37.9351 105.479 37.6934 105.952 37.5322C106.424 37.3604 106.951 37.2744 107.531 37.2744C107.896 37.2744 108.299 37.3066 108.739 37.3711L107.805 41.3027L107.208 41.1255C107.208 40.9644 107.198 40.7441 107.176 40.4648C107.155 40.1855 107.123 39.9116 107.08 39.6431C107.047 39.3638 106.999 39.1274 106.935 38.9341C106.881 38.73 106.816 38.6279 106.741 38.6279C106.43 38.6279 106.113 38.6978 105.791 38.8374C105.479 38.9663 105.135 39.1812 104.759 39.4819C104.383 39.7827 103.97 40.1748 103.519 40.6582C103.067 41.1416 102.552 41.7271 101.972 42.4146V51.7925C101.972 52.1362 101.999 52.4155 102.052 52.6304C102.106 52.8345 102.219 53.0063 102.391 53.146C102.562 53.2856 102.804 53.4092 103.116 53.5166C103.427 53.624 103.835 53.7422 104.34 53.8711L104.211 54.2578C103.588 54.1719 103.057 54.1074 102.616 54.0645C102.187 54.0215 101.837 54 101.569 54C100.957 54 100.242 54.0859 99.4258 54.2578L99.3291 54.0967C99.5439 53.7852 99.6514 53.2158 99.6514 52.3887V42.0601ZM115.442 60.2681C115.442 61.1274 115.641 61.7559 116.039 62.1533C116.436 62.5615 117.14 62.8569 118.149 63.0396L118.021 63.4424C116.828 63.2598 115.834 63.1685 115.04 63.1685C114.427 63.1685 113.713 63.2598 112.896 63.4424L112.8 63.2651C113.015 62.9536 113.122 62.3843 113.122 61.5571V42.0601C113.122 40.5347 112.939 39.5142 112.574 38.9985C112.22 38.4722 111.457 38.2466 110.286 38.3218L110.222 38.0317C111.994 37.5054 113.622 37.2422 115.104 37.2422C115.33 37.8008 115.442 38.4131 115.442 39.0791V40.0137C116.388 39.0469 117.338 38.3433 118.294 37.9028C119.25 37.4624 120.303 37.2422 121.453 37.2422C122.419 37.2422 123.306 37.4678 124.111 37.9189C124.928 38.3594 125.599 38.9448 126.125 39.6753C126.652 40.4058 127.06 41.2329 127.35 42.1567C127.64 43.0698 127.785 44.0151 127.785 44.9927C127.785 47.8931 127.017 50.2295 125.481 52.002C123.956 53.7744 121.764 54.6606 118.907 54.6606C117.607 54.6606 116.452 54.5479 115.442 54.3223V60.2681ZM115.442 41.3027V52.4854C115.947 52.7646 116.629 52.9956 117.489 53.1782C118.348 53.3501 119.208 53.436 120.067 53.436C120.905 53.436 121.63 53.3125 122.242 53.0654C122.865 52.8076 123.365 52.4692 123.741 52.0503C124.117 51.6206 124.417 51.0728 124.643 50.4067C124.879 49.7407 125.035 49.0532 125.11 48.3442C125.196 47.6245 125.239 46.792 125.239 45.8467C125.239 43.3975 124.826 41.5444 123.999 40.2876C123.171 39.02 122.076 38.3862 120.711 38.3862C119.863 38.3862 118.977 38.6387 118.053 39.1436C117.14 39.6377 116.27 40.3574 115.442 41.3027ZM135.487 51.0996C135.487 51.9482 135.686 52.5767 136.083 52.9849C136.481 53.3931 137.185 53.6885 138.194 53.8711L138.065 54.2578C136.83 54.0859 135.874 54 135.197 54C134.531 54 133.779 54.0859 132.941 54.2578L132.845 54.0967C133.06 53.7852 133.167 53.2158 133.167 52.3887V33.085C133.167 31.5596 132.984 30.5391 132.619 30.0234C132.265 29.4971 131.502 29.2715 130.331 29.3467L130.267 29.0566C132.039 28.5303 133.667 28.2671 135.149 28.2671C135.375 28.8257 135.487 29.438 135.487 30.104V51.0996ZM140.982 46.1528C140.982 45.0142 141.17 43.9131 141.546 42.8496C141.922 41.7754 142.459 40.8247 143.157 39.9976C143.855 39.1597 144.699 38.4937 145.687 37.9995C146.686 37.4946 147.803 37.2422 149.039 37.2422C149.812 37.2422 150.542 37.3765 151.23 37.645C151.917 37.9028 152.514 38.311 153.019 38.8696C153.534 39.4175 153.937 40.1265 154.227 40.9966C154.528 41.856 154.678 42.8818 154.678 44.0742L154.05 44.6543H143.528C143.506 44.8369 143.496 45.0142 143.496 45.186C143.496 45.3579 143.496 45.5298 143.496 45.7017C143.496 46.8726 143.63 47.936 143.898 48.8921C144.178 49.8481 144.548 50.6699 145.01 51.3574C145.483 52.0342 146.036 52.5605 146.67 52.9365C147.304 53.3125 147.975 53.5005 148.684 53.5005C149.135 53.5005 149.592 53.4683 150.054 53.4038C150.526 53.3286 150.983 53.2158 151.423 53.0654C151.875 52.915 152.31 52.7217 152.729 52.4854C153.147 52.249 153.534 51.9644 153.889 51.6313L154.549 52.3242C153.701 53.1621 152.777 53.7583 151.778 54.1128C150.779 54.478 149.624 54.6606 148.313 54.6606C147.282 54.6606 146.315 54.4619 145.413 54.0645C144.521 53.667 143.748 53.0977 143.093 52.3564C142.438 51.6152 141.922 50.7236 141.546 49.6816C141.17 48.6289 140.982 47.4526 140.982 46.1528ZM148.684 38.354C147.019 38.354 145.8 38.7891 145.026 39.6592C144.253 40.5186 143.786 41.7593 143.625 43.3813H152.6C152.514 41.6196 152.116 40.3413 151.407 39.5464C150.709 38.7515 149.801 38.354 148.684 38.354Z" fill="white"/>
<path d="M42.652 236.722C44.9314 236.722 46.394 237.406 46.394 238.66C46.394 239.933 44.9314 240.616 42.652 240.616C40.3535 240.616 38.8909 239.933 38.8909 238.66C38.8909 237.406 40.3535 236.722 42.652 236.722ZM42.652 242.611C46.375 242.611 48.9773 241.072 48.9773 238.66C48.9773 236.286 46.375 234.728 42.652 234.728C38.9099 234.728 36.3266 236.286 36.3266 238.66C36.3266 241.072 38.9099 242.611 42.652 242.611ZM50.6109 243.922H34.769V245.935H41.3793V251.653H43.8866V245.935H50.6109V243.922ZM56.9348 245.574C55.6241 245.574 54.7503 244.188 54.7503 241.585C54.7503 239.002 55.6241 237.615 56.9348 237.615C58.2264 237.615 59.1192 239.002 59.1192 241.585C59.1192 244.188 58.2264 245.574 56.9348 245.574ZM56.9348 235.355C54.2755 235.355 52.338 237.748 52.338 241.585C52.338 245.441 54.2755 247.854 56.9348 247.854C59.5751 247.854 61.5316 245.441 61.5316 241.585C61.5316 237.748 59.5751 235.355 56.9348 235.355ZM68.4838 240.73H65.9385V234.139H63.4311V251.634H65.9385V242.801H68.4838V240.73ZM74.7697 246.011C73.592 246.011 72.7182 245.213 72.7182 243.884C72.7182 242.554 73.592 241.737 74.7697 241.737C75.9474 241.737 76.8022 242.554 76.8022 243.865C76.8022 245.213 75.9474 246.011 74.7697 246.011ZM74.7697 239.705C72.2243 239.705 70.3248 241.433 70.3248 243.865C70.3248 246.334 72.2243 248.063 74.7697 248.063C77.296 248.063 79.1766 246.334 79.1766 243.865C79.1766 241.433 77.296 239.705 74.7697 239.705ZM76.0044 234.443H73.497V236.722H69.622V238.717H79.8034V236.722H76.0044V234.443ZM85.9578 240.977H83.4505V234.139H80.9431V251.634H83.4505V243.048H85.9578V240.977ZM100.81 245.688C101.513 241.965 101.513 239.496 101.513 237.311V235.64H88.8056V237.634H99.0059C99.0059 239.667 98.968 242.098 98.3031 245.403L100.81 245.688ZM95.3019 247.512V241.49H92.7946V247.512H87.21V249.525H103.033V247.512H95.3019ZM122.588 245.688C123.291 241.965 123.291 239.496 123.291 237.311V235.64H110.583V237.634H120.784C120.784 239.667 120.746 242.098 120.081 245.403L122.588 245.688ZM117.079 247.512V241.49H114.572V247.512H108.988V249.525H124.81V247.512H117.079ZM141.43 235.45H135.598V233.987H133.091V235.45H127.183V237.33H141.43V235.45ZM128.171 248.651H137.783V251.653H140.29V246.752H128.171V248.651ZM131.058 240.35C131.058 239.762 132.084 239.496 134.345 239.496C136.624 239.496 137.65 239.762 137.65 240.35C137.65 240.958 136.624 241.205 134.345 241.205C132.084 241.205 131.058 240.958 131.058 240.35ZM135.598 243.846V242.877C138.561 242.687 140.214 241.832 140.214 240.35C140.214 238.66 138.087 237.786 134.345 237.786C130.622 237.786 128.494 238.66 128.494 240.35C128.494 241.832 130.128 242.687 133.091 242.877V243.846H126.424V245.783H142.265V243.846H135.598ZM154.459 242.117C151.762 241.205 150.546 239.097 150.508 237.102H153.908V235.108H144.505V237.102H147.944C147.906 239.268 146.633 241.49 143.822 242.44L145.094 244.415C147.127 243.751 148.494 242.345 149.273 240.635C150.014 242.193 151.325 243.447 153.243 244.074L154.459 242.117ZM146.614 247.322H156.035V251.653H158.543V245.327H146.614V247.322ZM156.035 234.158V238.318H153.452V240.331H156.035V244.548H158.543V234.158H156.035ZM175.922 234.158H173.395V246.714H175.922V234.158ZM164.088 239.705C164.088 238.261 165.114 237.425 166.405 237.425C167.716 237.425 168.704 238.261 168.704 239.705C168.704 241.11 167.716 241.965 166.405 241.965C165.114 241.965 164.088 241.11 164.088 239.705ZM171.154 239.705C171.154 237.121 169.084 235.26 166.405 235.26C163.727 235.26 161.638 237.121 161.638 239.705C161.638 242.25 163.727 244.131 166.405 244.131C169.084 244.131 171.154 242.25 171.154 239.705ZM166.785 249.335V245.479H164.278V251.33H176.359V249.335H166.785Z" fill="white"/>
<path d="M7.24023 206.843L205.155 206.843" stroke="white" stroke-width="1.58292" stroke-linecap="round" stroke-linejoin="round"/>
<path d="M137.129 88H76C84.4973 96.7394 84.4973 110.908 76 119.648C84.4973 128.386 84.4973 142.556 76 151.295H137.129C128.632 142.556 128.632 128.386 137.129 119.648C128.632 110.908 128.632 96.7394 137.129 88Z" fill="white"/>
</svg>
