<svg width="214" height="277" viewBox="0 0 214 277" fill="none" xmlns="http://www.w3.org/2000/svg">
<rect x="0.321777" width="213" height="277" fill="#8CA65F"/>
<path d="M80.0061 51.8081V49.1655C80.0061 47.6509 79.8235 46.6357 79.4583 46.1201C79.093 45.5938 78.325 45.3682 77.1541 45.4434L77.0896 45.1372C78.8621 44.6108 80.5486 44.3477 82.1492 44.3477C82.364 44.9385 82.4715 45.5562 82.4715 46.2007V50.8252C82.4715 51.835 82.5735 52.4795 82.7776 52.7588L82.6809 52.936C81.8323 52.936 80.9138 53.0703 79.9256 53.3389C78.9373 53.5967 77.8792 53.8545 76.7512 54.1123C75.6233 54.3809 74.4739 54.5151 73.303 54.5151C71.6809 54.5151 70.1716 54.2197 68.7752 53.6289C67.3787 53.0273 66.1756 52.1948 65.1658 51.1313C64.1668 50.0679 63.3772 48.7573 62.7971 47.1997C62.2278 45.6421 61.9431 43.9448 61.9431 42.1079C61.9431 40.4214 62.1687 38.8906 62.6199 37.5156C63.0818 36.1299 63.7049 34.9644 64.489 34.019C65.284 33.0737 66.2346 32.2788 67.3411 31.6343C68.4475 30.979 69.6345 30.5063 70.9021 30.2163C72.1804 29.9155 73.5393 29.7651 74.9788 29.7651C77.4387 29.7651 79.7483 30.27 81.9075 31.2798C81.5315 32.6226 80.9944 34.0405 80.2962 35.5337L79.8611 35.3726C80.033 34.0942 80.0706 33.0415 79.9739 32.2144C79.5012 31.9458 79.034 31.7256 78.572 31.5537C78.1101 31.3711 77.6214 31.2314 77.1057 31.1348C76.5901 31.0273 76.0315 30.9575 75.43 30.9253C74.8391 30.8823 74.1731 30.8608 73.4319 30.8608C72.4436 30.8608 71.5198 30.9897 70.6604 31.2476C69.8118 31.4946 69.0169 31.9082 68.2757 32.4883C67.5344 33.0684 66.9007 33.7988 66.3743 34.6797C65.8479 35.5498 65.4343 36.6401 65.1336 37.9507C64.8328 39.2505 64.6824 40.7222 64.6824 42.3657C64.6824 43.9448 64.9509 45.4326 65.4881 46.8291C66.0252 48.2256 66.7341 49.4019 67.615 50.3579C68.5066 51.314 69.5325 52.0713 70.6926 52.6299C71.8528 53.1777 73.0506 53.4517 74.2859 53.4517C75.5105 53.4517 76.5364 53.3442 77.3635 53.1294C78.2014 52.9038 79.0823 52.4634 80.0061 51.8081ZM88.3367 41.9146C88.3367 41.1948 88.2991 40.5933 88.2239 40.1099C88.1594 39.6265 88.0359 39.2397 87.8533 38.9497C87.6814 38.6597 87.4397 38.4556 87.1282 38.3374C86.8167 38.2192 86.2742 38.1655 85.5008 38.1763L85.4363 37.8862C87.1873 37.3599 88.8147 37.0967 90.3186 37.0967C90.5442 37.666 90.657 38.2783 90.657 38.9336V40.9155L90.7215 40.98C91.1726 40.3569 91.6023 39.8037 92.0105 39.3203C92.4295 38.8369 92.8538 38.4341 93.2835 38.1118C93.7132 37.7896 94.1643 37.5479 94.637 37.3867C95.1096 37.2148 95.636 37.1289 96.2161 37.1289C96.5813 37.1289 96.9841 37.1611 97.4246 37.2256L96.49 41.1572L95.8938 40.98C95.8938 40.8188 95.8831 40.5986 95.8616 40.3193C95.8401 40.04 95.8079 39.7661 95.7649 39.4976C95.7327 39.2183 95.6843 38.9819 95.6199 38.7886C95.5662 38.5845 95.5017 38.4824 95.4265 38.4824C95.115 38.4824 94.7981 38.5522 94.4758 38.6919C94.1643 38.8208 93.8206 39.0356 93.4446 39.3364C93.0686 39.6372 92.655 40.0293 92.2039 40.5127C91.7527 40.9961 91.2371 41.5815 90.657 42.269V51.647C90.657 51.9907 90.6839 52.27 90.7376 52.4849C90.7913 52.689 90.9041 52.8608 91.0759 53.0005C91.2478 53.1401 91.4895 53.2637 91.801 53.3711C92.1126 53.4785 92.5208 53.5967 93.0257 53.7256L92.8967 54.1123C92.2737 54.0264 91.742 53.9619 91.3015 53.9189C90.8718 53.876 90.5227 53.8545 90.2542 53.8545C89.6419 53.8545 88.9275 53.9404 88.1111 54.1123L88.0144 53.9512C88.2293 53.6396 88.3367 53.0703 88.3367 52.2432V41.9146ZM99.7288 46.0073C99.7288 44.8687 99.9168 43.7676 100.293 42.7041C100.669 41.6299 101.206 40.6792 101.904 39.8521C102.602 39.0142 103.446 38.3481 104.434 37.854C105.433 37.3491 106.55 37.0967 107.785 37.0967C108.559 37.0967 109.289 37.231 109.977 37.4995C110.664 37.7573 111.261 38.1655 111.765 38.7241C112.281 39.272 112.684 39.981 112.974 40.8511C113.275 41.7104 113.425 42.7363 113.425 43.9287L112.797 44.5088H102.275C102.253 44.6914 102.242 44.8687 102.242 45.0405C102.242 45.2124 102.242 45.3843 102.242 45.5562C102.242 46.7271 102.377 47.7905 102.645 48.7466C102.925 49.7026 103.295 50.5244 103.757 51.2119C104.23 51.8887 104.783 52.415 105.417 52.791C106.051 53.167 106.722 53.355 107.431 53.355C107.882 53.355 108.339 53.3228 108.801 53.2583C109.273 53.1831 109.73 53.0703 110.17 52.9199C110.621 52.7695 111.056 52.5762 111.475 52.3398C111.894 52.1035 112.281 51.8188 112.636 51.4858L113.296 52.1787C112.448 53.0166 111.524 53.6128 110.525 53.9673C109.526 54.3325 108.371 54.5151 107.06 54.5151C106.029 54.5151 105.062 54.3164 104.16 53.9189C103.268 53.5215 102.495 52.9521 101.84 52.2109C101.184 51.4697 100.669 50.5781 100.293 49.5361C99.9168 48.4834 99.7288 47.3071 99.7288 46.0073ZM107.431 38.2085C105.766 38.2085 104.547 38.6436 103.773 39.5137C103 40.373 102.532 41.6138 102.371 43.2358H111.346C111.261 41.4741 110.863 40.1958 110.154 39.4009C109.456 38.606 108.548 38.2085 107.431 38.2085ZM116.744 46.0073C116.744 44.8687 116.932 43.7676 117.308 42.7041C117.684 41.6299 118.221 40.6792 118.92 39.8521C119.618 39.0142 120.461 38.3481 121.449 37.854C122.449 37.3491 123.566 37.0967 124.801 37.0967C125.574 37.0967 126.305 37.231 126.992 37.4995C127.68 37.7573 128.276 38.1655 128.781 38.7241C129.297 39.272 129.699 39.981 129.99 40.8511C130.29 41.7104 130.441 42.7363 130.441 43.9287L129.812 44.5088H119.29C119.269 44.6914 119.258 44.8687 119.258 45.0405C119.258 45.2124 119.258 45.3843 119.258 45.5562C119.258 46.7271 119.392 47.7905 119.661 48.7466C119.94 49.7026 120.311 50.5244 120.773 51.2119C121.245 51.8887 121.799 52.415 122.432 52.791C123.066 53.167 123.738 53.355 124.447 53.355C124.898 53.355 125.354 53.3228 125.816 53.2583C126.289 53.1831 126.745 53.0703 127.186 52.9199C127.637 52.7695 128.072 52.5762 128.491 52.3398C128.91 52.1035 129.297 51.8188 129.651 51.4858L130.312 52.1787C129.463 53.0166 128.539 53.6128 127.54 53.9673C126.541 54.3325 125.386 54.5151 124.076 54.5151C123.045 54.5151 122.078 54.3164 121.176 53.9189C120.284 53.5215 119.511 52.9521 118.855 52.2109C118.2 51.4697 117.684 50.5781 117.308 49.5361C116.932 48.4834 116.744 47.3071 116.744 46.0073ZM124.447 38.2085C122.782 38.2085 121.562 38.6436 120.789 39.5137C120.015 40.373 119.548 41.6138 119.387 43.2358H128.362C128.276 41.4741 127.879 40.1958 127.17 39.4009C126.471 38.606 125.564 38.2085 124.447 38.2085ZM135.839 41.9146C135.839 41.1948 135.801 40.5933 135.726 40.1099C135.661 39.6265 135.538 39.2397 135.355 38.9497C135.183 38.6597 134.942 38.4556 134.63 38.3374C134.319 38.2192 133.986 38.1602 133.631 38.1602C133.287 38.1602 133.078 38.1655 133.003 38.1763L132.938 37.8862C134.689 37.3599 136.317 37.0967 137.821 37.0967C138.046 37.666 138.159 38.2783 138.159 38.9336V39.4009C138.782 38.9819 139.357 38.6167 139.883 38.3052C140.409 37.9937 140.925 37.7305 141.43 37.5156C141.946 37.3008 142.472 37.1396 143.009 37.0322C143.546 36.9248 144.137 36.8711 144.782 36.8711C145.362 36.8711 145.936 36.9463 146.506 37.0967C147.086 37.2471 147.601 37.5156 148.053 37.9023C148.514 38.2891 148.885 38.8154 149.164 39.4814C149.454 40.1475 149.599 40.9907 149.599 42.0112V52.0337C149.599 52.2915 149.658 52.5063 149.777 52.6782C149.906 52.8501 150.067 52.9951 150.26 53.1133C150.464 53.2314 150.695 53.3335 150.953 53.4194C151.211 53.4946 151.479 53.5752 151.759 53.6611L151.614 54.0479C151.012 53.9189 150.212 53.8545 149.213 53.8545C148.6 53.8545 147.886 53.9404 147.07 54.1123L146.973 53.9512C147.188 53.6396 147.295 53.0703 147.295 52.2432V42.6074C147.295 41.7051 147.209 40.9692 147.037 40.3999C146.865 39.8198 146.629 39.3687 146.328 39.0464C146.038 38.7134 145.695 38.4824 145.297 38.3535C144.91 38.2246 144.497 38.1602 144.056 38.1602C143.519 38.1602 143.014 38.2085 142.542 38.3052C142.08 38.4019 141.613 38.5522 141.14 38.7563C140.678 38.9497 140.205 39.1968 139.722 39.4976C139.239 39.7876 138.718 40.1313 138.159 40.5288V51.647C138.159 51.9907 138.186 52.27 138.24 52.4849C138.293 52.689 138.406 52.8608 138.578 53.0005C138.75 53.1401 138.991 53.2637 139.303 53.3711C139.615 53.4785 140.023 53.5967 140.528 53.7256L140.399 54.1123C139.776 54.0264 139.244 53.9619 138.803 53.9189C138.374 53.876 138.025 53.8545 137.756 53.8545C137.144 53.8545 136.429 53.9404 135.613 54.1123L135.516 53.9512C135.731 53.6396 135.839 53.0703 135.839 52.2432V41.9146Z" fill="white"/>
<path d="M58.8595 233.982H56.3331V244.315H58.8595V233.982ZM55.0415 241.523C52.2112 240.668 50.9765 238.579 50.9765 236.413V234.742H48.4312V236.413C48.4312 238.674 47.1775 241.01 44.2522 241.96L45.5059 243.935C47.5574 243.251 48.963 241.865 49.7418 240.117C50.5396 241.675 51.8693 242.89 53.8448 243.498L55.0415 241.523ZM52.971 249.482C50.6916 249.482 49.4759 249.026 49.4759 248.019C49.4759 247.031 50.6916 246.556 52.971 246.556C55.2504 246.556 56.4661 247.031 56.4661 248.019C56.4661 249.026 55.2504 249.482 52.971 249.482ZM52.971 244.619C49.2859 244.619 46.9875 245.873 46.9875 248.019C46.9875 250.185 49.2859 251.438 52.971 251.438C56.656 251.438 58.9544 250.185 58.9544 248.019C58.9544 245.873 56.656 244.619 52.971 244.619ZM73.1803 237.667C73.1803 240.041 73.1803 242.53 72.5535 245.873L75.0418 246.101C75.6876 242.511 75.6876 240.117 75.6876 237.667V235.596H63.4358V237.591H73.1803V237.667ZM61.8022 247.145V249.197H77.6251V247.145H61.8022ZM89.0397 240.915C86.8933 241.257 85.0317 241.333 82.4294 241.352V239.889H87.805V234.628H79.9221V236.622H85.3357V238.028H79.9411V243.365H81.3847C84.5759 243.365 86.7603 243.308 89.2107 242.928L89.0397 240.915ZM91.4331 249.273H84.6898V247.848H91.4331V249.273ZM91.4331 245.93H84.6898V244.41H82.2015V251.267H93.9025V244.41H91.4331V245.93ZM91.3951 233.982V237.363H88.6788V239.357H91.3951V243.688H93.9025V233.982H91.3951ZM110.37 245.531C111.073 241.808 111.073 239.338 111.073 237.154V235.482H98.3648V237.477H108.565C108.565 239.509 108.527 241.941 107.862 245.246L110.37 245.531ZM104.861 247.354V241.333H102.354V247.354H96.7692V249.368H112.592V247.354H104.861ZM128.215 238.939H124.625V236.375H128.215V238.939ZM122.137 238.939H120.028V240.934H132.793V238.939H130.704V236.375H132.926V234.4H119.914V236.375H122.137V238.939ZM127.683 246.272H125.1V246.575C125.1 247.848 123.353 249.292 119.554 249.577L120.313 251.419C123.258 251.172 125.309 250.223 126.373 248.912C127.418 250.261 129.488 251.153 132.451 251.419L133.23 249.577C129.374 249.292 127.683 247.924 127.683 246.575V246.272ZM118.528 242.055V244.049H125.138V245.664H127.645V244.049H134.351V242.055H118.528ZM145.689 238.939H142.099V236.375H145.689V238.939ZM139.611 238.939H137.502V240.934H150.267V238.939H148.178V236.375H150.4V234.4H137.388V236.375H139.611V238.939ZM145.157 246.272H142.574V246.575C142.574 247.848 140.827 249.292 137.028 249.577L137.787 251.419C140.732 251.172 142.783 250.223 143.847 248.912C144.892 250.261 146.962 251.153 149.925 251.419L150.704 249.577C146.848 249.292 145.157 247.924 145.157 246.575V246.272ZM136.002 242.055V244.049H142.612V245.664H145.119V244.049H151.825V242.055H136.002ZM163.79 235.824H159.877V233.963H157.351V235.824H153.476V237.781H163.771L163.79 235.824ZM156.724 241.77C156.724 240.82 157.503 240.307 158.623 240.307C159.725 240.307 160.523 240.82 160.523 241.77C160.523 242.738 159.725 243.251 158.623 243.251C157.503 243.251 156.724 242.738 156.724 241.77ZM162.916 241.77C162.916 239.794 161.131 238.408 158.623 238.408C156.116 238.408 154.331 239.794 154.331 241.77C154.331 243.783 156.116 245.151 158.623 245.151C161.131 245.151 162.916 243.783 162.916 241.77ZM158.472 246.101H155.964V251.172H167.874V249.178H158.472V246.101ZM167.247 239.319V233.982H164.74V247.069H167.247V241.39H169.565V239.319H167.247Z" fill="white"/>
<path d="M7.56201 206.843L205.477 206.843" stroke="white" stroke-width="1.58292" stroke-linecap="round" stroke-linejoin="round"/>
<path d="M130.412 84.4375C123.165 80.6915 104.135 83.1428 95.2119 102.225C87.7214 118.243 84.5723 142.167 87.9097 147.001C86.951 144.219 89.5538 132.036 93.5291 123.535C98.3908 113.138 106.717 110.849 109.639 112.41C114.091 114.789 111.797 117.789 101.281 130.469C94.1325 139.089 92.2201 144.9 89.1034 147.317C88.8554 147.51 88.6432 147.594 88.4655 147.582C89.0268 147.981 89.7195 147.981 90.5504 147.493C97.2932 143.533 100.388 132.674 115.119 117.605C136.787 95.4392 141.457 90.1461 130.412 84.4375Z" fill="white"/>
</svg>
