<svg width="213" height="277" viewBox="0 0 213 277" fill="none" xmlns="http://www.w3.org/2000/svg">
<rect width="213" height="277" fill="#96BCD2"/>
<path d="M84.1155 52.6299C85.2971 53.2314 86.4627 53.5322 87.6121 53.5322C88.3103 53.5322 88.9549 53.4302 89.5457 53.2261C90.1472 53.0112 90.6629 52.6943 91.0925 52.2754C91.533 51.8564 91.8767 51.3408 92.1238 50.7285C92.3709 50.1055 92.4944 49.3857 92.4944 48.5693C92.4944 47.957 92.43 47.4253 92.301 46.9741C92.1721 46.5122 91.9251 46.0664 91.5598 45.6367C91.1946 45.1963 90.6843 44.729 90.0291 44.2349C89.3738 43.7407 88.5144 43.1499 87.4509 42.4624C85.7537 41.356 84.513 40.2925 83.7288 39.272C82.9553 38.2515 82.5686 37.2148 82.5686 36.1621C82.5686 35.1309 82.7835 34.2285 83.2132 33.4551C83.6428 32.6709 84.2068 32.021 84.905 31.5054C85.614 30.979 86.409 30.5869 87.2898 30.3291C88.1814 30.0605 89.0838 29.9263 89.9968 29.9263C91.6404 29.9263 93.1121 30.3022 94.4119 31.0542C94.1111 32.7192 93.5847 34.3359 92.8328 35.9043L92.3977 35.6787C92.4622 35.2705 92.5105 34.8838 92.5427 34.5186C92.5857 34.1426 92.6072 33.7935 92.6072 33.4712C92.6072 33.1382 92.5911 32.8374 92.5589 32.5688C92.5266 32.2896 92.4837 32.0264 92.43 31.7793C91.5706 31.2744 90.6467 31.022 89.6585 31.022C89.0354 31.022 88.4392 31.1187 87.8699 31.312C87.3113 31.4946 86.8172 31.7686 86.3875 32.1338C85.9578 32.499 85.614 32.9502 85.3562 33.4873C85.0984 34.0137 84.9695 34.6206 84.9695 35.3081C84.9695 35.7915 85.0554 36.2427 85.2273 36.6616C85.3992 37.0806 85.6624 37.4995 86.0169 37.9185C86.3821 38.3374 86.8333 38.7725 87.3704 39.2236C87.9182 39.6748 88.5628 40.1743 89.304 40.7222C89.7444 41.0444 90.158 41.3398 90.5447 41.6084C90.9314 41.8662 91.2913 42.1133 91.6243 42.3496C91.9573 42.5859 92.2634 42.8169 92.5427 43.0425C92.8328 43.2681 93.1013 43.5098 93.3484 43.7676C94.5408 45.0244 95.137 46.4854 95.137 48.1504C95.137 49.2676 94.9383 50.229 94.5408 51.0347C94.1541 51.8403 93.6223 52.501 92.9456 53.0166C92.2688 53.5322 91.4793 53.9082 90.5769 54.1445C89.6746 54.3916 88.7185 54.5151 87.7088 54.5151C85.8933 54.5151 84.0349 54.1499 82.1336 53.4194C82.4666 51.6899 82.9929 50.0732 83.7127 48.5693L84.1477 48.811C84.0188 49.4126 83.9544 50.1484 83.9544 51.0186C83.9544 51.8887 84.0081 52.4258 84.1155 52.6299ZM101.647 32.9395C101.647 31.4141 101.464 30.3936 101.099 29.8779C100.744 29.3516 99.9817 29.126 98.8108 29.2012L98.7464 28.9111C100.519 28.3848 102.146 28.1216 103.629 28.1216C103.854 28.6802 103.967 29.2925 103.967 29.9585V50.9541C103.967 51.8027 104.166 52.4312 104.563 52.8394C104.961 53.2476 105.664 53.543 106.674 53.7256L106.545 54.1123C105.31 53.9404 104.316 53.8545 103.564 53.8545C102.973 53.8545 102.259 53.9404 101.421 54.1123L101.324 53.9512C101.539 53.6396 101.647 53.0703 101.647 52.2432V32.9395ZM111.218 53.0972L105.256 45.25V44.8794L111.218 38.8691C111.519 38.5361 111.406 38.2837 110.88 38.1118C110.407 37.9507 109.73 37.9077 108.849 37.9829L108.753 37.5801C110.128 37.3008 111.723 37.1396 113.538 37.0967L113.796 37.5801L107.093 44.2832C111.261 49.5146 113.587 52.3076 114.07 52.6621C114.553 53.0059 115.155 53.2583 115.875 53.4194L115.843 53.9189C114.081 53.79 112.749 53.8545 111.846 54.1123L111.621 53.9834C111.642 53.7471 111.508 53.4517 111.218 53.0972ZM132.923 37.5801L126.058 55.3691C125.768 56.1318 125.516 56.7603 125.301 57.2544C125.097 57.7485 124.855 58.2588 124.576 58.7852C124.297 59.3223 124.023 59.7573 123.754 60.0903C123.496 60.4233 123.19 60.7241 122.836 60.9927C122.492 61.272 122.116 61.4868 121.708 61.6372C120 61.7017 118.501 61.1216 117.212 59.897C117.792 59.188 118.598 58.5811 119.629 58.0762L119.823 58.2695C120.252 59.2686 120.945 59.9883 121.901 60.4287C122.363 60.0527 122.836 59.4297 123.319 58.5596C123.813 57.7002 124.42 56.2983 125.14 54.354L119.404 40.7866C119.103 40.0239 118.764 39.4761 118.388 39.1431C118.023 38.8101 117.642 38.6489 117.244 38.6597C116.858 38.6704 116.412 38.708 115.907 38.7725L115.73 38.4502C117.534 37.5479 119.119 37.0967 120.483 37.0967L125.333 48.9077C125.548 49.4233 125.801 50.4116 126.091 51.8726H126.365C126.88 50.1646 127.143 49.2944 127.154 49.2622L130.747 38.9658C130.887 38.5791 130.726 38.3052 130.264 38.144C129.802 37.9722 129.104 37.9292 128.169 38.0151L128.073 37.6123C128.986 37.4297 130.538 37.3115 132.729 37.2578L132.923 37.5801Z" fill="white"/>
<path d="M78.7896 237.724H82.2657V235.653H72.6542V237.724H76.2822V238.693C76.2822 241.58 74.8576 244.866 71.9893 246.196L73.395 248.19C75.3895 247.24 76.7951 245.322 77.5739 243.042C78.3527 245.113 79.7203 246.86 81.6578 247.753L83.0445 245.778C80.1762 244.448 78.7896 241.352 78.7896 238.693V237.724ZM88.61 240.649H86.0647V233.982H83.5574V251.476H86.0647V242.719H88.61V240.649ZM97.7262 236.565C100.006 236.565 101.468 237.249 101.468 238.484C101.468 239.737 100.006 240.402 97.7262 240.402C95.4278 240.402 93.9652 239.737 93.9652 238.484C93.9652 237.249 95.4278 236.565 97.7262 236.565ZM97.7262 242.397C101.449 242.397 104.052 240.877 104.052 238.484C104.052 236.109 101.449 234.571 97.7262 234.571C93.9842 234.571 91.4008 236.109 91.4008 238.484C91.4008 240.877 93.9842 242.397 97.7262 242.397ZM105.685 243.707H89.8432V245.74H93.4333V251.457H95.9597V245.74H99.4738V251.457H102.019V245.74H105.685V243.707ZM116.473 247.506V244.904H121.773V242.89H111.629V240.934H121.374V235.102H109.122V237.097H118.904V238.977H109.141V244.904H113.966V247.506H107.317V249.558H123.159V247.506H116.473ZM132.693 236.299C134.916 236.299 136.283 236.85 136.283 237.933C136.283 239.015 134.916 239.566 132.693 239.566C130.509 239.566 129.122 239.015 129.122 237.933C129.122 236.85 130.509 236.299 132.693 236.299ZM132.693 241.561C136.473 241.561 138.981 240.155 138.981 237.933C138.981 235.729 136.473 234.305 132.693 234.305C128.932 234.305 126.406 235.729 126.406 237.933C126.406 240.155 128.932 241.561 132.693 241.561ZM129.179 245.93H126.634V251.172H138.905V249.178H129.179V245.93ZM124.791 242.473V244.467H131.572V247.468H134.137V244.467H140.633V242.473H124.791Z" fill="white"/>
<path d="M7.24023 206.843L205.155 206.843" stroke="white" stroke-width="1.58292" stroke-linecap="round" stroke-linejoin="round"/>
<path d="M75 137.905V82L107.112 145.214L139.225 82V137.905L107.112 157.954L75 137.905Z" fill="white"/>
</svg>
