<svg width="213" height="277" viewBox="0 0 213 277" fill="none" xmlns="http://www.w3.org/2000/svg">
<rect width="213" height="277" fill="#FF6E65"/>
<path d="M84.3694 41.9141V41.3823C85.4436 41.2642 86.3621 41.0493 87.1248 40.7378C87.8875 40.4263 88.5159 40.0288 89.01 39.5454C89.5042 39.062 89.864 38.4927 90.0896 37.8374C90.3259 37.1821 90.4441 36.4517 90.4441 35.646C90.4119 35.0015 90.3152 34.459 90.1541 34.0186C90.0037 33.5781 89.7459 33.2236 89.3806 32.9551C89.0154 32.6758 88.5266 32.4771 87.9143 32.3589C87.3127 32.23 86.5447 32.1655 85.6101 32.1655C85.2664 32.1655 84.9011 32.1763 84.5144 32.1978C84.1384 32.2085 83.7302 32.2246 83.2898 32.2461C83.3543 32.5039 83.3865 32.7778 83.3865 33.0679V51.5498C83.3865 51.9902 83.4241 52.3662 83.4993 52.6777C83.5852 52.9893 83.7249 53.2524 83.9182 53.4673C84.1116 53.6821 84.3694 53.8594 84.6917 53.999C85.0247 54.1279 85.4382 54.2354 85.9324 54.3213L85.7874 54.708C85.1321 54.6221 84.5681 54.5576 84.0955 54.5146C83.6228 54.4717 83.2307 54.4502 82.9192 54.4502C82.6292 54.4502 82.2961 54.4717 81.9202 54.5146C81.5442 54.5576 81.1306 54.6221 80.6794 54.708L80.5828 54.5469C80.7976 54.2354 80.905 53.666 80.905 52.8389V35.9038C80.905 35.1948 80.8728 34.604 80.8084 34.1313C80.7439 33.6479 80.6257 33.2612 80.4539 32.9712C80.282 32.6812 80.0403 32.4771 79.7288 32.3589C79.4172 32.23 78.864 32.1709 78.0691 32.1816L78.0046 31.7144C78.7244 31.6177 79.3582 31.5317 79.906 31.4565C80.4646 31.3813 80.991 31.3169 81.4851 31.2632C81.99 31.1987 82.4841 31.145 82.9675 31.1021C83.4617 31.0591 83.9343 31.0269 84.3855 31.0054C84.8367 30.9731 85.1965 30.9517 85.4651 30.9409C85.7444 30.9302 86.0076 30.9248 86.2546 30.9248C87.2322 30.9248 88.1345 31 88.9617 31.1504C89.7996 31.29 90.5193 31.5425 91.1209 31.9077C91.7332 32.2622 92.2058 32.7456 92.5388 33.3579C92.8826 33.9702 93.0544 34.7437 93.0544 35.6782C93.0544 36.3765 92.8987 37.0371 92.5872 37.6602C92.2864 38.2832 91.8728 38.8525 91.3464 39.3682C90.8308 39.8838 90.2239 40.3403 89.5256 40.7378C88.8381 41.1245 88.1023 41.436 87.3181 41.6724V41.8496L93.8762 51.2114C94.4456 52.0386 95.1814 52.6777 96.0837 53.1289C96.9646 53.5049 97.4963 53.7251 97.679 53.7896C97.8723 53.854 98.0925 53.9292 98.3396 54.0151V54.3213C96.4382 54.3213 94.843 54.52 93.554 54.9175L93.3123 54.7725C93.3123 54.6221 93.221 54.4019 93.0383 54.1118C92.8557 53.811 92.6301 53.478 92.3616 53.1128C92.1038 52.7368 91.6365 52.0654 90.9597 51.0986C90.283 50.1211 88.0862 47.0596 84.3694 41.9141ZM100.515 46.603C100.515 45.4644 100.703 44.3633 101.079 43.2998C101.455 42.2256 101.992 41.2749 102.69 40.4478C103.388 39.6099 104.232 38.9438 105.22 38.4497C106.219 37.9448 107.336 37.6924 108.572 37.6924C109.345 37.6924 110.075 37.8267 110.763 38.0952C111.45 38.353 112.047 38.7612 112.552 39.3198C113.067 39.8677 113.47 40.5767 113.76 41.4468C114.061 42.3062 114.211 43.332 114.211 44.5244L113.583 45.1045H103.061C103.039 45.2871 103.029 45.4644 103.029 45.6362C103.029 45.8081 103.029 45.98 103.029 46.1519C103.029 47.3228 103.163 48.3862 103.431 49.3423C103.711 50.2983 104.081 51.1201 104.543 51.8076C105.016 52.4844 105.569 53.0107 106.203 53.3867C106.837 53.7627 107.508 53.9507 108.217 53.9507C108.668 53.9507 109.125 53.9185 109.587 53.854C110.059 53.7788 110.516 53.666 110.956 53.5156C111.407 53.3652 111.843 53.1719 112.261 52.9355C112.68 52.6992 113.067 52.4146 113.422 52.0815L114.082 52.7744C113.234 53.6123 112.31 54.2085 111.311 54.563C110.312 54.9282 109.157 55.1108 107.846 55.1108C106.815 55.1108 105.848 54.9121 104.946 54.5146C104.054 54.1172 103.281 53.5479 102.626 52.8066C101.97 52.0654 101.455 51.1738 101.079 50.1318C100.703 49.0791 100.515 47.9028 100.515 46.603ZM108.217 38.8042C106.552 38.8042 105.333 39.2393 104.559 40.1094C103.786 40.9688 103.319 42.2095 103.157 43.8315H112.133C112.047 42.0698 111.649 40.7915 110.94 39.9966C110.242 39.2017 109.334 38.8042 108.217 38.8042ZM129.519 33.5352C129.519 32.8047 129.487 32.2246 129.422 31.7949C129.358 31.3652 129.223 30.9893 129.019 30.667C128.826 30.3447 128.541 30.1191 128.165 29.9902C127.789 29.8613 127.295 29.7969 126.683 29.7969L126.618 29.5068C128.391 28.9805 130.018 28.7173 131.501 28.7173C131.716 29.2866 131.823 29.8989 131.823 30.5542V51.5498C131.823 52.3984 132.022 53.0269 132.419 53.4351C132.817 53.8433 133.52 54.1387 134.53 54.3213L134.401 54.708C133.166 54.5361 132.177 54.4502 131.436 54.4502C130.856 54.4502 130.136 54.5361 129.277 54.708L129.18 54.5469C129.406 54.2354 129.519 53.666 129.519 52.8389V52.6938C127.94 54.3052 126.291 55.1108 124.572 55.1108C123.659 55.1108 122.778 54.9175 121.929 54.5308C121.092 54.144 120.345 53.6123 119.69 52.9355C119.034 52.248 118.508 51.394 118.111 50.3735C117.724 49.3423 117.531 48.2251 117.531 47.022C117.531 44.1431 118.288 41.8711 119.802 40.2061C121.328 38.5303 123.53 37.6924 126.409 37.6924C127.311 37.6924 128.348 37.7783 129.519 37.9502V33.5352ZM129.519 39.7388C128.294 39.1802 126.865 38.9009 125.233 38.9009C124.395 38.9009 123.67 39.019 123.057 39.2554C122.445 39.481 121.946 39.7925 121.559 40.1899C121.183 40.5874 120.882 41.103 120.657 41.7368C120.431 42.3599 120.275 43.0205 120.189 43.7188C120.114 44.417 120.076 45.2334 120.076 46.168C120.076 48.6279 120.533 50.5024 121.446 51.7915C122.359 53.0806 123.541 53.7251 124.991 53.7251C126.57 53.7251 128.079 52.9893 129.519 51.5176V39.7388Z" fill="white"/>
<path d="M75.2 237.743H77.4414V245.151H75.2V237.743ZM72.8636 247.107H79.7588V235.767H72.8636V247.107ZM85.0015 233.963V240.649H83.5388V234.248H81.2024V250.678H83.5388V242.663H85.0015V251.457H87.3759V233.963H85.0015ZM104.831 235.292H98.9994V233.83H96.492V235.292H90.5845V237.173H104.831V235.292ZM91.5723 248.494H101.184V251.495H103.691V246.594H91.5723V248.494ZM94.4595 240.193C94.4595 239.604 95.4853 239.338 97.7457 239.338C100.025 239.338 101.051 239.604 101.051 240.193C101.051 240.801 100.025 241.048 97.7457 241.048C95.4853 241.048 94.4595 240.801 94.4595 240.193ZM98.9994 243.688V242.719C101.963 242.53 103.615 241.675 103.615 240.193C103.615 238.503 101.488 237.629 97.7457 237.629C94.0227 237.629 91.8952 238.503 91.8952 240.193C91.8952 241.675 93.5288 242.53 96.492 242.719V243.688H89.8247V245.626H105.667V243.688H98.9994ZM117.86 241.96C115.163 241.048 113.947 238.939 113.909 236.945H117.309V234.95H107.907V236.945H111.345C111.307 239.11 110.034 241.333 107.223 242.283L108.495 244.258C110.528 243.593 111.896 242.188 112.674 240.478C113.415 242.036 114.726 243.289 116.644 243.916L117.86 241.96ZM110.015 247.164H119.437V251.495H121.944V245.17H110.015V247.164ZM119.437 234.001V238.161H116.853V240.174H119.437V244.391H121.944V234.001H119.437ZM139.323 234.001H136.797V246.556H139.323V234.001ZM127.489 239.547C127.489 238.104 128.515 237.268 129.806 237.268C131.117 237.268 132.105 238.104 132.105 239.547C132.105 240.953 131.117 241.808 129.806 241.808C128.515 241.808 127.489 240.953 127.489 239.547ZM134.555 239.547C134.555 236.964 132.485 235.102 129.806 235.102C127.128 235.102 125.039 236.964 125.039 239.547C125.039 242.093 127.128 243.973 129.806 243.973C132.485 243.973 134.555 242.093 134.555 239.547ZM130.186 249.178V245.322H127.679V251.172H139.76V249.178H130.186Z" fill="white"/>
<path d="M7.24072 206.843L205.156 206.843" stroke="white" stroke-width="1.58292" stroke-linecap="round" stroke-linejoin="round"/>
<path fill-rule="evenodd" clip-rule="evenodd" d="M110.861 107.71L134.01 130.058L133.936 130.036C136.887 133.176 150.281 147.923 146.941 153.585C146.941 153.585 145.577 158.895 125.021 153.517C129.716 148.684 133.264 141.263 133.369 129.873L88.7617 117.047C88.2478 116.905 87.7451 116.769 87.2534 116.639C96.7108 106.904 110.861 107.71 110.861 107.71ZM78.9433 140.398L123.518 153.114C124.03 153.255 124.531 153.389 125.021 153.517C115.564 163.252 101.452 162.484 101.452 162.484L78.4203 140.249L78.4793 140.265C75.7406 137.365 61.9012 122.253 65.2764 116.516C65.2764 116.516 66.63 111.197 87.2534 116.639C82.5476 121.483 79.0038 128.937 78.9433 140.398Z" fill="white"/>
</svg>
