<svg width="214" height="277" viewBox="0 0 214 277" fill="none" xmlns="http://www.w3.org/2000/svg">
<rect x="0.881348" width="213" height="277" fill="#FDD782"/>
<path d="M59.5535 30.5225C59.9509 30.4795 60.2786 30.7104 60.5364 31.2153L66.3533 41.9468C69.7478 36.6509 71.6599 33.4497 72.0896 32.3433C72.2293 31.9458 72.1057 31.6343 71.719 31.4087C71.3323 31.1724 70.6877 31.0112 69.7854 30.9253L69.721 30.6191C71.6545 30.4365 73.094 30.4902 74.0393 30.7803C74.2112 30.8662 74.2542 31.0005 74.1682 31.1831C73.9856 31.5483 73.7869 31.9297 73.572 32.3271C73.3572 32.7139 71.1926 36.2051 67.0784 42.8008V50.9541C67.0784 51.8242 67.2502 52.458 67.594 52.8555C67.9485 53.2529 68.6199 53.543 69.6082 53.7256L69.4793 54.1123C68.2869 53.9512 67.3792 53.8652 66.7561 53.8545C66.1331 53.8438 65.3381 53.9297 64.3713 54.1123L64.2747 53.9512C64.4895 53.6396 64.5969 53.0703 64.5969 52.2432V43.4292L59.489 34.1802C59.0593 33.4604 58.678 32.9448 58.345 32.6333C58.012 32.3218 57.6628 32.1445 57.2976 32.1016C56.9324 32.0479 56.4973 32.0586 55.9924 32.1338L55.7507 31.8438C57.3298 31.0488 58.5974 30.6084 59.5535 30.5225ZM75.3606 46.0073C75.3606 44.8687 75.5486 43.7676 75.9246 42.7041C76.3005 41.6299 76.8377 40.6792 77.5359 39.8521C78.2341 39.0142 79.0774 38.3481 80.0657 37.854C81.0647 37.3491 82.1819 37.0967 83.4172 37.0967C84.1907 37.0967 84.9211 37.231 85.6086 37.4995C86.2961 37.7573 86.8923 38.1655 87.3972 38.7241C87.9128 39.272 88.3157 39.981 88.6057 40.8511C88.9065 41.7104 89.0569 42.7363 89.0569 43.9287L88.4285 44.5088H77.9065C77.885 44.6914 77.8743 44.8687 77.8743 45.0405C77.8743 45.2124 77.8743 45.3843 77.8743 45.5562C77.8743 46.7271 78.0085 47.7905 78.2771 48.7466C78.5564 49.7026 78.927 50.5244 79.3889 51.2119C79.8616 51.8887 80.4148 52.415 81.0486 52.791C81.6824 53.167 82.3538 53.355 83.0627 53.355C83.5139 53.355 83.9705 53.3228 84.4324 53.2583C84.905 53.1831 85.3616 53.0703 85.802 52.9199C86.2532 52.7695 86.6882 52.5762 87.1072 52.3398C87.5261 52.1035 87.9128 51.8188 88.2673 51.4858L88.928 52.1787C88.0793 53.0166 87.1555 53.6128 86.1565 53.9673C85.1575 54.3325 84.0027 54.5151 82.6921 54.5151C81.6609 54.5151 80.6941 54.3164 79.7918 53.9189C78.9002 53.5215 78.1267 52.9521 77.4714 52.2109C76.8162 51.4697 76.3005 50.5781 75.9246 49.5361C75.5486 48.4834 75.3606 47.3071 75.3606 46.0073ZM83.0627 38.2085C81.3977 38.2085 80.1785 38.6436 79.405 39.5137C78.6316 40.373 78.1643 41.6138 78.0032 43.2358H86.9783C86.8923 41.4741 86.4949 40.1958 85.7859 39.4009C85.0877 38.606 84.1799 38.2085 83.0627 38.2085ZM96.7752 50.9541C96.7752 51.8027 96.9739 52.4312 97.3713 52.8394C97.7688 53.2476 98.4724 53.543 99.4822 53.7256L99.3533 54.1123C98.1179 53.9404 97.1619 53.8545 96.4851 53.8545C95.8191 53.8545 95.0671 53.9404 94.2293 54.1123L94.1326 53.9512C94.3474 53.6396 94.4548 53.0703 94.4548 52.2432V32.9395C94.4548 31.4141 94.2722 30.3936 93.907 29.8779C93.5525 29.3516 92.7898 29.126 91.6189 29.2012L91.5544 28.9111C93.3269 28.3848 94.9543 28.1216 96.4368 28.1216C96.6624 28.6802 96.7752 29.2925 96.7752 29.9585V50.9541ZM106.669 50.9541C106.669 51.8027 106.867 52.4312 107.265 52.8394C107.662 53.2476 108.366 53.543 109.376 53.7256L109.247 54.1123C108.011 53.9404 107.055 53.8545 106.379 53.8545C105.713 53.8545 104.961 53.9404 104.123 54.1123L104.026 53.9512C104.241 53.6396 104.348 53.0703 104.348 52.2432V32.9395C104.348 31.4141 104.166 30.3936 103.801 29.8779C103.446 29.3516 102.683 29.126 101.512 29.2012L101.448 28.9111C103.22 28.3848 104.848 28.1216 106.33 28.1216C106.556 28.6802 106.669 29.2925 106.669 29.9585V50.9541ZM120.188 37.0967C122.658 37.0967 124.597 37.854 126.005 39.3687C127.412 40.8833 128.115 42.9941 128.115 45.7012C128.115 47.2695 127.756 48.7305 127.036 50.084C126.316 51.4375 125.339 52.5171 124.103 53.3228C122.868 54.1177 121.531 54.5151 120.091 54.5151C117.61 54.5151 115.665 53.7686 114.258 52.2754C112.862 50.7715 112.163 48.6445 112.163 45.8945C112.163 44.2617 112.523 42.7739 113.243 41.4312C113.963 40.0776 114.935 39.0195 116.159 38.2568C117.395 37.4834 118.738 37.0967 120.188 37.0967ZM119.865 38.2085C119.017 38.2085 118.281 38.332 117.658 38.5791C117.035 38.8262 116.535 39.1592 116.159 39.5781C115.783 39.9971 115.483 40.5288 115.257 41.1733C115.031 41.8179 114.876 42.4785 114.79 43.1553C114.715 43.832 114.677 44.6162 114.677 45.5078C114.677 46.9258 114.844 48.1665 115.177 49.23C115.52 50.2827 115.977 51.1045 116.546 51.6953C117.115 52.2754 117.722 52.7051 118.367 52.9844C119.011 53.2529 119.694 53.3872 120.413 53.3872C121.251 53.3872 121.982 53.2583 122.605 53.0005C123.239 52.7319 123.743 52.3882 124.119 51.9692C124.495 51.5396 124.796 51.0024 125.022 50.3579C125.247 49.7026 125.398 49.042 125.473 48.376C125.559 47.71 125.602 46.9526 125.602 46.104C125.602 44.9116 125.489 43.8481 125.263 42.9136C125.038 41.979 124.737 41.2217 124.361 40.6416C123.996 40.0615 123.555 39.5835 123.04 39.2075C122.535 38.8315 122.025 38.5737 121.509 38.4341C120.993 38.2837 120.446 38.2085 119.865 38.2085ZM149.917 54.6763L148.805 54.354L144.906 41.5439L139.83 54.6763L138.702 54.354L133.916 40.7866C133.744 40.228 133.54 39.7876 133.304 39.4653C133.068 39.1431 132.815 38.9336 132.547 38.8369C132.289 38.7402 131.999 38.6865 131.677 38.6758C131.365 38.6543 130.946 38.6865 130.42 38.7725L130.259 38.4502C132.063 37.5479 133.658 37.0967 135.044 37.0967L139.105 48.376C139.33 49.1387 139.572 50.127 139.83 51.3408H140.088C140.485 50.0303 140.77 49.1655 140.942 48.7466L144.342 39.9648C144.213 39.6104 144.035 39.3418 143.81 39.1592C143.584 38.9766 143.385 38.8423 143.214 38.7563C143.117 38.7026 142.972 38.6704 142.779 38.6597C142.596 38.6382 142.403 38.6328 142.198 38.6436C142.005 38.6436 141.812 38.6597 141.618 38.6919C141.436 38.7134 141.291 38.7402 141.183 38.7725L141.006 38.4502C142.811 37.5479 144.395 37.0967 145.76 37.0967L149.288 48.3115C149.546 49.1387 149.788 50.127 150.013 51.2764H150.287C150.62 50.1807 150.905 49.3105 151.141 48.666L154.944 39.1431C155.052 38.8853 155.025 38.6758 154.864 38.5146C154.702 38.3535 154.418 38.2461 154.01 38.1924C153.601 38.1279 153.096 38.1226 152.495 38.1763L152.398 37.7896C153.773 37.4888 155.282 37.3223 156.926 37.29L157.119 37.6123L149.917 54.6763Z" fill="white"/>
<path d="M55.3541 242.283C52.5238 241.371 51.3461 239.167 51.3461 236.945V235.045H48.8008V236.926C48.8008 239.319 47.5661 241.656 44.6219 242.606L45.9515 244.562C47.946 243.897 49.3326 242.53 50.1114 240.782C50.8713 242.359 52.1629 243.612 54.0624 244.239L55.3541 242.283ZM49.9025 245.569H47.3951V251.172H59.2671V249.178H49.9025V245.569ZM58.6592 239.053V233.982H56.1519V246.784H58.6592V241.124H60.9766V239.053H58.6592ZM76.7791 238.958H73.265V236.774H76.7031V234.799H70.7766V240.934H76.7791V238.958ZM69.9598 238.598C68.7252 238.825 67.6234 238.92 66.3318 238.958V236.774H69.8839V234.799H63.8434V240.934H64.8881C66.9586 240.934 68.4402 240.896 70.1878 240.573L69.9598 238.598ZM71.5744 245.075H69.0291V245.398C69.0291 247.221 67.3195 249.007 63.4445 249.463L64.3373 251.4C67.2245 251.02 69.238 249.9 70.3017 248.304C71.3655 249.9 73.379 251.02 76.2472 251.4L77.159 249.463C73.284 249.007 71.5744 247.221 71.5744 245.398V245.075ZM62.3428 242.055V244.087H78.1657V242.055H62.3428ZM84.8885 245.854C83.7108 245.854 82.837 245.056 82.837 243.726C82.837 242.397 83.7108 241.58 84.8885 241.58C86.0662 241.58 86.921 242.397 86.921 243.707C86.921 245.056 86.0662 245.854 84.8885 245.854ZM84.8885 239.547C82.3432 239.547 80.4436 241.276 80.4436 243.707C80.4436 246.177 82.3432 247.905 84.8885 247.905C87.4148 247.905 89.2954 246.177 89.2954 243.707C89.2954 241.276 87.4148 239.547 84.8885 239.547ZM86.1232 234.286H83.6158V236.565H79.7408V238.56H89.9222V236.565H86.1232V234.286ZM96.0766 240.82H93.5693V233.982H91.0619V251.476H93.5693V242.89H96.0766V240.82ZM110.929 245.531C111.632 241.808 111.632 239.338 111.632 237.154V235.482H98.9244V237.477H109.125C109.125 239.509 109.087 241.941 108.422 245.246L110.929 245.531ZM105.421 247.354V241.333H102.913V247.354H97.3288V249.368H113.152V247.354H105.421ZM129.402 241.732C126.647 240.877 125.47 238.825 125.47 236.717V234.932H122.924V236.508C122.924 238.882 121.747 241.219 118.821 242.188L120.132 244.163C122.127 243.46 123.475 242.112 124.235 240.402C124.976 241.884 126.249 243.061 128.091 243.669L129.402 241.732ZM127.141 249.539C124.9 249.539 123.703 249.083 123.703 248.095C123.703 247.126 124.9 246.67 127.141 246.67C129.364 246.67 130.56 247.126 130.56 248.095C130.56 249.083 129.364 249.539 127.141 249.539ZM127.141 244.733C123.494 244.733 121.215 245.987 121.215 248.095C121.215 250.223 123.494 251.476 127.141 251.476C130.769 251.476 133.049 250.223 133.049 248.095C133.049 245.987 130.769 244.733 127.141 244.733ZM132.859 238.047V234.001H130.351V244.334H132.859V240.117H135.176V238.047H132.859ZM140.892 247.145H148.015V249.311H140.892V247.145ZM138.423 251.267H150.466V245.17H138.423V251.267ZM150.124 241.751C150.542 239.471 150.542 237.743 150.542 236.147V234.571H138.518V236.565H148.072C148.072 237.021 148.072 237.496 148.053 237.99L138.024 238.199L138.309 240.212L147.901 239.813C147.825 240.421 147.749 241.048 147.598 241.751H136.561V243.764H152.384V241.751H150.124ZM164.35 235.824H160.437V233.963H157.91V235.824H154.035V237.781H164.331L164.35 235.824ZM157.284 241.77C157.284 240.82 158.062 240.307 159.183 240.307C160.285 240.307 161.083 240.82 161.083 241.77C161.083 242.738 160.285 243.251 159.183 243.251C158.062 243.251 157.284 242.738 157.284 241.77ZM163.476 241.77C163.476 239.794 161.69 238.408 159.183 238.408C156.676 238.408 154.89 239.794 154.89 241.77C154.89 243.783 156.676 245.151 159.183 245.151C161.69 245.151 163.476 243.783 163.476 241.77ZM159.031 246.101H156.524V251.172H168.434V249.178H159.031V246.101ZM167.807 239.319V233.982H165.299V247.069H167.807V241.39H170.124V239.319H167.807Z" fill="white"/>
<path d="M8.12158 206.843L206.037 206.843" stroke="white" stroke-width="1.58292" stroke-linecap="round" stroke-linejoin="round"/>
<path d="M59.6309 96.5289C72.9225 100.17 92.1244 103.235 97.3155 112.416C103.82 123.919 95.3673 142.123 88.7635 157.169C99.7501 137.672 121.391 126.755 143.24 129.105C130.905 126.056 116.631 122.66 112.266 114.94C106.178 104.175 113.193 87.5381 119.531 73.1152C106.658 92.6261 82.5993 102.264 59.6309 96.5289Z" fill="white"/>
</svg>
