<svg width="213" height="277" viewBox="0 0 213 277" fill="none" xmlns="http://www.w3.org/2000/svg">
<rect width="213" height="277" fill="url(#paint0_linear)"/>
<path d="M84.3694 41.9141V41.3823C85.4436 41.2642 86.3621 41.0493 87.1248 40.7378C87.8875 40.4263 88.5159 40.0288 89.01 39.5454C89.5042 39.062 89.864 38.4927 90.0896 37.8374C90.3259 37.1821 90.4441 36.4517 90.4441 35.646C90.4119 35.0015 90.3152 34.459 90.1541 34.0186C90.0037 33.5781 89.7459 33.2236 89.3806 32.9551C89.0154 32.6758 88.5266 32.4771 87.9143 32.3589C87.3127 32.23 86.5447 32.1655 85.6101 32.1655C85.2664 32.1655 84.9011 32.1763 84.5144 32.1978C84.1384 32.2085 83.7302 32.2246 83.2898 32.2461C83.3543 32.5039 83.3865 32.7778 83.3865 33.0679V51.5498C83.3865 51.9902 83.4241 52.3662 83.4993 52.6777C83.5852 52.9893 83.7249 53.2524 83.9182 53.4673C84.1116 53.6821 84.3694 53.8594 84.6917 53.999C85.0247 54.1279 85.4382 54.2354 85.9324 54.3213L85.7874 54.708C85.1321 54.6221 84.5681 54.5576 84.0955 54.5146C83.6228 54.4717 83.2307 54.4502 82.9192 54.4502C82.6292 54.4502 82.2961 54.4717 81.9202 54.5146C81.5442 54.5576 81.1306 54.6221 80.6794 54.708L80.5828 54.5469C80.7976 54.2354 80.905 53.666 80.905 52.8389V35.9038C80.905 35.1948 80.8728 34.604 80.8084 34.1313C80.7439 33.6479 80.6257 33.2612 80.4539 32.9712C80.282 32.6812 80.0403 32.4771 79.7288 32.3589C79.4172 32.23 78.864 32.1709 78.0691 32.1816L78.0046 31.7144C78.7244 31.6177 79.3582 31.5317 79.906 31.4565C80.4646 31.3813 80.991 31.3169 81.4851 31.2632C81.99 31.1987 82.4841 31.145 82.9675 31.1021C83.4617 31.0591 83.9343 31.0269 84.3855 31.0054C84.8367 30.9731 85.1965 30.9517 85.4651 30.9409C85.7444 30.9302 86.0076 30.9248 86.2546 30.9248C87.2322 30.9248 88.1345 31 88.9617 31.1504C89.7996 31.29 90.5193 31.5425 91.1209 31.9077C91.7332 32.2622 92.2058 32.7456 92.5388 33.3579C92.8826 33.9702 93.0544 34.7437 93.0544 35.6782C93.0544 36.3765 92.8987 37.0371 92.5872 37.6602C92.2864 38.2832 91.8728 38.8525 91.3464 39.3682C90.8308 39.8838 90.2239 40.3403 89.5256 40.7378C88.8381 41.1245 88.1023 41.436 87.3181 41.6724V41.8496L93.8762 51.2114C94.4456 52.0386 95.1814 52.6777 96.0837 53.1289C96.9646 53.5049 97.4963 53.7251 97.679 53.7896C97.8723 53.854 98.0925 53.9292 98.3396 54.0151V54.3213C96.4382 54.3213 94.843 54.52 93.554 54.9175L93.3123 54.7725C93.3123 54.6221 93.221 54.4019 93.0383 54.1118C92.8557 53.811 92.6301 53.478 92.3616 53.1128C92.1038 52.7368 91.6365 52.0654 90.9597 51.0986C90.283 50.1211 88.0862 47.0596 84.3694 41.9141ZM100.515 46.603C100.515 45.4644 100.703 44.3633 101.079 43.2998C101.455 42.2256 101.992 41.2749 102.69 40.4478C103.388 39.6099 104.232 38.9438 105.22 38.4497C106.219 37.9448 107.336 37.6924 108.572 37.6924C109.345 37.6924 110.075 37.8267 110.763 38.0952C111.45 38.353 112.047 38.7612 112.552 39.3198C113.067 39.8677 113.47 40.5767 113.76 41.4468C114.061 42.3062 114.211 43.332 114.211 44.5244L113.583 45.1045H103.061C103.039 45.2871 103.029 45.4644 103.029 45.6362C103.029 45.8081 103.029 45.98 103.029 46.1519C103.029 47.3228 103.163 48.3862 103.431 49.3423C103.711 50.2983 104.081 51.1201 104.543 51.8076C105.016 52.4844 105.569 53.0107 106.203 53.3867C106.837 53.7627 107.508 53.9507 108.217 53.9507C108.668 53.9507 109.125 53.9185 109.587 53.854C110.059 53.7788 110.516 53.666 110.956 53.5156C111.407 53.3652 111.843 53.1719 112.261 52.9355C112.68 52.6992 113.067 52.4146 113.422 52.0815L114.082 52.7744C113.234 53.6123 112.31 54.2085 111.311 54.563C110.312 54.9282 109.157 55.1108 107.846 55.1108C106.815 55.1108 105.848 54.9121 104.946 54.5146C104.054 54.1172 103.281 53.5479 102.626 52.8066C101.97 52.0654 101.455 51.1738 101.079 50.1318C100.703 49.0791 100.515 47.9028 100.515 46.603ZM108.217 38.8042C106.552 38.8042 105.333 39.2393 104.559 40.1094C103.786 40.9688 103.319 42.2095 103.157 43.8315H112.133C112.047 42.0698 111.649 40.7915 110.94 39.9966C110.242 39.2017 109.334 38.8042 108.217 38.8042ZM129.519 33.5352C129.519 32.8047 129.487 32.2246 129.422 31.7949C129.358 31.3652 129.223 30.9893 129.019 30.667C128.826 30.3447 128.541 30.1191 128.165 29.9902C127.789 29.8613 127.295 29.7969 126.683 29.7969L126.618 29.5068C128.391 28.9805 130.018 28.7173 131.501 28.7173C131.716 29.2866 131.823 29.8989 131.823 30.5542V51.5498C131.823 52.3984 132.022 53.0269 132.419 53.4351C132.817 53.8433 133.52 54.1387 134.53 54.3213L134.401 54.708C133.166 54.5361 132.177 54.4502 131.436 54.4502C130.856 54.4502 130.136 54.5361 129.277 54.708L129.18 54.5469C129.406 54.2354 129.519 53.666 129.519 52.8389V52.6938C127.94 54.3052 126.291 55.1108 124.572 55.1108C123.659 55.1108 122.778 54.9175 121.929 54.5308C121.092 54.144 120.345 53.6123 119.69 52.9355C119.034 52.248 118.508 51.394 118.111 50.3735C117.724 49.3423 117.531 48.2251 117.531 47.022C117.531 44.1431 118.288 41.8711 119.802 40.2061C121.328 38.5303 123.53 37.6924 126.409 37.6924C127.311 37.6924 128.348 37.7783 129.519 37.9502V33.5352ZM129.519 39.7388C128.294 39.1802 126.865 38.9009 125.233 38.9009C124.395 38.9009 123.67 39.019 123.057 39.2554C122.445 39.481 121.946 39.7925 121.559 40.1899C121.183 40.5874 120.882 41.103 120.657 41.7368C120.431 42.3599 120.275 43.0205 120.189 43.7188C120.114 44.417 120.076 45.2334 120.076 46.168C120.076 48.6279 120.533 50.5024 121.446 51.7915C122.359 53.0806 123.541 53.7251 124.991 53.7251C126.57 53.7251 128.079 52.9893 129.519 51.5176V39.7388Z" fill="white"/>
<path d="M58.6901 242.112H54.8721V237.629H58.6142V235.634H52.3838V244.106H58.6901V242.112ZM51.586 241.732C50.3133 241.979 49.1736 242.055 47.825 242.074V237.629H51.529V235.634H45.3176V244.106H46.4003C48.5088 244.106 50.0094 244.068 51.7569 243.726L51.586 241.732ZM44.0069 247.297V249.33H59.8299V247.297H44.0069ZM62.5447 234.969V236.964H67.8443C67.5024 239.205 65.6219 241.01 61.6329 241.96L62.5827 243.897C67.8823 242.568 70.5416 239.642 70.5416 234.969H62.5447ZM73.6188 249.292H66.9895V247.791H73.6188V249.292ZM73.6188 245.854H66.9895V244.22H64.5202V251.286H76.1072V244.22H73.6188V245.854ZM73.5998 233.982V237.99H70.5606V240.022H73.5998V243.441H76.1072V233.982H73.5998ZM92.5744 245.531C93.2772 241.808 93.2772 239.338 93.2772 237.154V235.482H80.5695V237.477H90.7699C90.7699 239.509 90.7319 241.941 90.0671 245.246L92.5744 245.531ZM87.0658 247.354V241.333H84.5585V247.354H78.9739V249.368H94.7969V247.354H87.0658ZM110.23 238.199V240.231H112.851V244.391H115.359V233.982H112.851V238.199H110.23ZM111.275 241.96C108.615 241.086 107.4 239.034 107.324 237.04H110.724V235.026H101.321V237.04H104.759C104.684 239.224 103.411 241.447 100.638 242.416L101.91 244.391C103.943 243.707 105.329 242.283 106.089 240.516C106.849 242.055 108.16 243.289 110.059 243.916L111.275 241.96ZM109.451 249.596C107.153 249.596 105.956 249.121 105.956 248.133C105.956 247.145 107.153 246.67 109.451 246.67C111.731 246.67 112.927 247.145 112.927 248.133C112.927 249.121 111.731 249.596 109.451 249.596ZM109.451 244.771C105.728 244.771 103.449 246.006 103.449 248.133C103.449 250.261 105.728 251.495 109.451 251.495C113.155 251.495 115.435 250.261 115.435 248.133C115.435 246.006 113.155 244.771 109.451 244.771ZM120.809 238.522C120.809 237.23 121.721 236.489 123.031 236.489C124.342 236.489 125.273 237.23 125.273 238.522C125.273 239.775 124.342 240.535 123.031 240.535C121.721 240.535 120.809 239.775 120.809 238.522ZM130.325 239.3H127.571C127.628 239.053 127.647 238.788 127.647 238.522C127.647 238.218 127.609 237.952 127.552 237.686H130.325V239.3ZM130.325 241.238V242.738H132.833V233.982H130.325V235.748H126.507C125.672 234.932 124.456 234.438 123.031 234.438C120.41 234.438 118.434 236.147 118.434 238.522C118.434 240.877 120.41 242.568 123.031 242.568C124.475 242.568 125.691 242.074 126.526 241.238H130.325ZM123.791 249.33V248.228H132.833V243.479H121.284V245.398H130.344V246.424H121.322V251.267H133.327V249.33H123.791ZM146.223 241.96C143.526 241.048 142.31 238.939 142.272 236.945H145.672V234.95H136.269V236.945H139.707C139.669 239.11 138.397 241.333 135.586 242.283L136.858 244.258C138.891 243.593 140.258 242.188 141.037 240.478C141.778 242.036 143.089 243.289 145.007 243.916L146.223 241.96ZM138.378 247.164H147.799V251.495H150.307V245.17H138.378V247.164ZM147.799 234.001V238.161H145.216V240.174H147.799V244.391H150.307V234.001H147.799ZM167.686 234.001H165.159V246.556H167.686V234.001ZM155.852 239.547C155.852 238.104 156.878 237.268 158.169 237.268C159.48 237.268 160.468 238.104 160.468 239.547C160.468 240.953 159.48 241.808 158.169 241.808C156.878 241.808 155.852 240.953 155.852 239.547ZM162.918 239.547C162.918 236.964 160.848 235.102 158.169 235.102C155.491 235.102 153.401 236.964 153.401 239.547C153.401 242.093 155.491 243.973 158.169 243.973C160.848 243.973 162.918 242.093 162.918 239.547ZM158.549 249.178V245.322H156.042V251.172H168.123V249.178H158.549Z" fill="white"/>
<path d="M7.24072 206.843L205.156 206.843" stroke="white" stroke-width="1.58292" stroke-linecap="round" stroke-linejoin="round"/>
<path fill-rule="evenodd" clip-rule="evenodd" d="M110.861 87.7097L134.009 110.058L133.935 110.037C136.887 113.176 150.28 127.923 146.941 133.585C146.941 133.585 145.577 138.895 125.021 133.517C129.716 128.684 133.264 121.263 133.369 109.874L88.7612 97.0474C88.2473 96.9052 87.7446 96.7693 87.2529 96.6396C96.7103 86.9045 110.861 87.7097 110.861 87.7097ZM78.9428 120.398L123.517 133.114C124.03 133.255 124.531 133.389 125.021 133.517C115.563 143.252 101.452 142.484 101.452 142.484L78.4198 120.249L78.4788 120.265C75.7401 117.365 61.9007 102.253 65.2759 96.5159C65.2759 96.5159 66.6295 91.1971 87.2529 96.6396C82.5471 101.483 79.0033 108.937 78.9428 120.398Z" fill="white"/>
<defs>
<linearGradient id="paint0_linear" x1="0" y1="0" x2="205.719" y2="276.542" gradientUnits="userSpaceOnUse">
<stop stop-color="#FF6E65"/>
<stop offset="1" stop-color="#FF6E65"/>
</linearGradient>
</defs>
</svg>
