<svg width="114" height="125" viewBox="0 0 114 125" fill="none" xmlns="http://www.w3.org/2000/svg">
<rect width="114" height="125" fill="#FAAA6B"/>
<path d="M72.7986 67.9693C70.1347 65.2385 65.9677 64.9875 63.0274 67.2161C68.0665 61.2176 67.8157 52.1584 62.2665 46.4704C56.5412 40.6015 47.3178 40.5121 41.4808 46.1971C41.386 46.2852 41.2912 46.3765 41.2003 46.4704C38.2666 49.4778 38.2666 54.3539 41.2003 57.3615C43.8642 60.0923 48.0311 60.343 50.9714 58.1144C45.9323 64.1132 46.1831 73.1721 51.7324 78.8604C57.4576 84.729 66.681 84.8187 72.5181 79.1333C72.6131 79.0453 72.7065 78.9543 72.7983 78.8604C75.7339 75.8537 75.7339 70.9776 72.7986 67.9693ZM51.8262 57.3615L62.1755 67.9693L51.8262 57.3615Z" fill="white"/>
</svg>
