<svg width="56" height="56" viewBox="0 0 56 56" fill="none" xmlns="http://www.w3.org/2000/svg">
<path d="M51.24 0H4.2C1.932 0 0 1.848 0 4.2V51.24C0 53.508 1.848 55.44 4.2 55.44H51.24C53.508 55.44 55.44 53.592 55.44 51.24V4.2C55.44 1.848 53.592 0 51.24 0ZM5.292 52.08L11.088 44.604C11.592 44.016 12.264 43.68 13.02 43.68C13.776 43.68 14.532 44.016 14.952 44.604L20.748 52.08H5.292ZM52.08 51.24C52.08 51.66 51.744 52.08 51.24 52.08H25.032L20.076 45.696L31.584 30.828C32.004 30.24 32.76 29.904 33.432 29.904C34.188 29.904 34.86 30.24 35.364 30.744L52.08 50.484V51.24ZM52.08 45.276L37.884 28.56C36.708 27.216 35.112 26.46 33.348 26.544C31.584 26.544 29.988 27.384 28.896 28.812L17.976 42.924L17.64 42.504C16.548 41.076 14.868 40.236 13.02 40.236C11.172 40.236 9.492 41.076 8.4 42.504L3.36 49.056V4.2C3.36 3.78 3.696 3.36 4.2 3.36H51.24C51.66 3.36 52.08 3.696 52.08 4.2V45.276Z" fill="white"/>
<path d="M16.3801 18.48C12.9361 18.48 10.0801 21.336 10.0801 24.78C10.0801 28.224 12.9361 31.08 16.3801 31.08C19.8241 31.08 22.6801 28.224 22.6801 24.78C22.6801 21.336 19.8241 18.48 16.3801 18.48ZM16.3801 27.72C14.7841 27.72 13.4401 26.376 13.4401 24.78C13.4401 23.184 14.7841 21.84 16.3801 21.84C17.9761 21.84 19.3201 23.184 19.3201 24.78C19.3201 26.376 17.9761 27.72 16.3801 27.72Z" fill="white"/>
</svg>
