<svg width="133" height="133" viewBox="0 0 133 133" fill="none" xmlns="http://www.w3.org/2000/svg">
<path d="M133 73.6799V59.733L120.911 65.4907H71.2484L114.259 40.6707L127.609 39.6156L120.636 27.5267L113.043 38.5833L70.0097 63.4032L94.8525 20.3927L105.886 12.8229L93.7973 5.82649L92.7651 19.1999L67.9681 62.1187V12.0888L73.7487 0H59.7789L65.5595 12.0888V62.2104L40.4872 18.787L39.432 5.43653L27.3432 12.41L38.3769 20.0028L63.4491 63.4032L20.0257 38.331L12.4329 27.2973L5.45947 39.3862L18.8329 40.4414L62.2334 65.4907H12.0888L0 59.733V73.6799L12.0888 67.9222H62.2104L18.787 92.9945L5.43653 94.0267L12.41 106.116L20.0028 95.0819L63.4032 70.0097L38.331 113.433L27.2973 121.026L39.3862 127.999L40.4414 114.649L65.5595 71.1566V120.911L59.7789 133H73.7487L67.9681 120.911V71.2484L92.811 114.259L93.8432 127.609L105.932 120.636L94.8984 113.043L70.0555 70.0097L113.066 94.8525L120.659 105.886L127.632 93.7973L114.282 92.7651L71.2484 67.9222H120.911L133 73.6799Z" fill="white"/>
</svg>
